<svg width="24" height="24" viewBox="0 0 24 24" fill="none" xmlns="http://www.w3.org/2000/svg">
<path d="M19.1476 13.8975L12.3976 20.6475C12.2922 20.7528 12.1492 20.812 12.0001 20.812C11.8511 20.812 11.7081 20.7528 11.6026 20.6475L4.85263 13.8975C4.75327 13.7909 4.69918 13.6498 4.70175 13.5041C4.70432 13.3584 4.76335 13.2193 4.86641 13.1163C4.96947 13.0132 5.10851 12.9542 5.25424 12.9516C5.39996 12.949 5.541 13.0031 5.64763 13.1025L11.4376 18.8916V3.75C11.4376 3.60082 11.4969 3.45774 11.6024 3.35225C11.7079 3.24676 11.8509 3.1875 12.0001 3.1875C12.1493 3.1875 12.2924 3.24676 12.3979 3.35225C12.5034 3.45774 12.5626 3.60082 12.5626 3.75V18.8916L18.3526 13.1025C18.4593 13.0031 18.6003 12.949 18.746 12.9516C18.8917 12.9542 19.0308 13.0132 19.1338 13.1163C19.2369 13.2193 19.2959 13.3584 19.2985 13.5041C19.3011 13.6498 19.247 13.7909 19.1476 13.8975Z" fill="white"/>
</svg>
