<?xml version="1.0" encoding="utf-8"?>
<!-- Generator: Adobe Illustrator 27.5.0, SVG Export Plug-In . SVG Version: 6.00 Build 0)  -->
<svg version="1.1" xmlns="http://www.w3.org/2000/svg" xmlns:xlink="http://www.w3.org/1999/xlink" x="0px" y="0px"
	 viewBox="0 0 750 500" style="enable-background:new 0 0 750 500;" xml:space="preserve">
<g id="Background">
</g>
<g id="Objects">
	<g>
		<path style="fill:#EBD1A9;" d="M121.244,300.21c0,0-23.143-50.65,7.406-82.981s51.839-47.703,64.799-75.657
			c12.96-27.954,84.239-91.827,130.524-94.604c46.285-2.777,113.362,12.96,142.772,12.96c29.409,0,77.832,21.291,96.203,66.651
			c18.371,45.359,40.588,48.856,53.548,74.879c12.96,26.023,35.177,68.71,26.845,97.817s26.786,79.095,1.821,106.866
			c-24.964,27.771-132.89,10.183-183.532,23.143c-50.641,12.96-80.264,24.994-150.617,14.811
			c-70.353-10.183-197.891-29.592-198.167-80.536C112.651,327.799,122.169,337.763,121.244,300.21z"/>
		<path style="fill:#003B2F;" d="M210.451,322.323c0,0-9.177-11.384-4.589-25.708c4.589-14.324,6.654-12.718,4.589-31.531
			c-2.065-18.814,4.589-45.658,16.29-50.247c11.701-4.589,27.991,8.937,29.597,28.215c1.606,19.278,12.231,25.244,14.146,32.356
			c1.915,7.113-1.514,21.606,7.772,27.208c9.286,5.602,8.439,12.143,9.515,16.238c1.076,4.095-3.212,10.916-3.9,12.185
			C283.183,332.309,210.451,322.323,210.451,322.323z"/>
		<path style="fill:#003B2F;" d="M381.481,325.851l0.2-85.243c0,0,2.678-2.364,5.386-2.403s16.635,11.114,16.635,11.114
			s-6.638-18.935-9.65-19.159c-3.011-0.224-10.491,5.157-10.491,5.157v-12.661c0,0,8.998-3.134,9.03-4.099
			c0.032-0.965,11.111,0.557,11.111,0.557s-10.086-4.687-13.589-3.421s-6.552,4.451-6.552,4.451v-10.766
			c0,0,5.897-3.158,10.645-2.062c4.748,1.096,9.496,1.135,9.496,1.135s-10.194-6.985-11.111-6.994c-0.917-0.009-1.903-3.156-5.525,0
			c-3.622,3.156-5.386,4.692-5.386,4.692l1.881-10.399c0,0,12.861-2.151,14.127-2.816c1.266-0.665,16.459,5.869,17.725,6.717
			c1.266,0.848,11.711,9.726,11.711,9.726l-18.285-26.215c0,0-6.518-3.975-8.835-2.973c-2.317,1.002-12.482,8.841-12.939,9.669
			c-0.457,0.828-5.386,6.209-5.386,6.209s-14.062-7.987-18.809-6.209c-4.748,1.778-12.344,15.667-12.344,15.667v18.08l8.863,10.762
			l0.316-24.99l4.831-7.92l9.73-3.562l3.165,5.769c0,0-6.647,5.845-6.964,9.886c-0.316,4.041,2.334,18.918,1.642,19.867
			c-0.692,0.95,2.473-13.274,2.473-13.274l3.482-8.679l2.216-2.086l-4.176,118.006L381.481,325.851z"/>
		<path style="fill:#305949;" d="M588.015,315.632c0,0,4.34-23.404,4.926-24.323c0.586-0.918,6.48-3.521,8.164-4.21
			c1.684-0.689,12.477,0.459,13.09,0.536c0.612,0.077-5.894-4.287-7.885-4.363c-1.99-0.077-8.726,1.99-9.951,3.368
			c-1.225,1.378-3.062,3.399-3.062,3.399s1.378-6.461,2.297-7.15c0.918-0.689,8.191-3.062,9.568-3.215
			c1.378-0.153,12.554,2.832,12.554,2.832s-6.308-5.88-8.972-6.538c-2.664-0.658-6.108,0.644-6.797,1.103
			c-0.689,0.459-5.664,3.521-6.124,3.98c-0.459,0.459-1.148,1.914-1.148,1.914s1.684-6.813,2.909-7.731s9.262-4.899,11.788-5.129
			c2.526-0.23,19.06,0.938,19.06,0.938s-9.109-5.607-12.401-5.913c-3.292-0.306-14.008,5.779-14.774,5.913
			c-0.766,0.134-4.287,3.579-4.287,3.579s3.786-11.142,5.638-12.788c1.851-1.646,8.537-8.604,10.491-10.988
			c1.954-2.384,16.046-19.663,16.046-19.663s-14.914,7.845-16.765,9.425c-1.852,1.58-10.286,16.791-10.594,17.774
			c-0.309,0.983-2.88,8.183-2.88,8.183l-2.777,8.743l-0.514-1.901c0,0,2.777-19.905,3.909-25.562
			c1.131-5.657-3.291-22.217-3.394-22.731c-0.103-0.514-1.44,13.486-1.44,19.703c0,6.217,0.926,9.611,0.926,9.611
			s-0.926,18.823-0.926,19.131c0,0.309,0.103,2.777,0,3.086c-0.103,0.309-0.103,2.16-0.103,2.16s-4.023-20.468-4.429-22.217
			c-0.406-1.748-6.268-10.41-6.783-11.068c-0.514-0.658-7.668-2.456-7.668-2.456s5.714,9.821,6.948,11.878
			c1.234,2.057,4.731,6.891,4.731,6.891s2.56,3.737,2.771,4.286c0.211,0.549,3.4,12.891,3.503,14.023
			c0.103,1.132-7.817,35.49-7.817,35.49H588.015z"/>
		<path style="fill:#305949;" d="M121.019,312.345c0,0,11.494-11.097,18.264-6.203c6.77,4.893,9.232,9.49,9.232,9.49
			s-1.231-8.548,2.462-6.572c3.693,1.976,7.386,7.685,7.386,7.685s-0.494-6.008,2.144-5.924c2.638,0.084,5.073,1.91,5.073,1.91
			l1.015,4.014c0,0,1.826-6.414,3.856-5.924c2.029,0.49,4.464,2.316,5.073,3.533c0.609,1.217,2.232-1.421,4.059-2.232
			c1.826-0.812,3.856-0.203,5.276,0.812c1.421,1.015,11.77,10.552,13.393,8.726c1.623-1.826,6.494-10.958,12.176-10.146
			c5.682,0.812,14.408,9.335,14.408,9.335s0.406-4.87,3.247-4.261c2.841,0.609,4.262,2.841,4.262,2.841s7.914-6.588,11.364-6.034
			c3.45,0.555,4.87,3.193,4.87,3.193s3.044-4.356,5.276-3.193s4.261,5.628,4.261,5.628s5.479-8.211,8.726-5.628
			s1.015,8.497,1.015,8.497s6.088-4.696,7.305-3.073c1.218,1.623-0.812,6.088-0.812,6.088s8.117-4.667,10.146-1.826
			c2.029,2.841,1.826,3.856,1.826,3.856s5.276-5.276,7.508-2.638c2.232,2.638,2.435,4.261,2.435,4.261s3.247-4.87,4.87-3.653
			c1.623,1.217,2.029,3.653,2.029,3.653s0.406-5.276,3.653-5.885c3.247-0.609,3.044,1.826,3.044,1.826s3.247-6.697,6.697-5.479
			c3.45,1.217,1.421,4.261,1.421,4.261s2.029-2.841,3.856-1.217c1.826,1.623,2.841,2.435,2.841,2.435s-0.812-5.276,1.623-3.856
			c2.435,1.421,3.247,3.856,3.247,3.856s-0.609-5.276,1.826-3.856c2.435,1.421,4.667,4.464,4.667,4.464s0-5.276,3.856-5.276
			c3.856,0,6.291,3.247,6.291,3.247s1.218-6.414,3.653-6.352c2.435,0.062,1.826,3.714,1.826,3.714s11.364-10.349,16.437-9.943
			c5.073,0.406,11.77,10.958,11.77,10.958s2.029-3.856,6.291-3.45c4.261,0.406,9.943,5.276,9.943,5.276s8.096-2.924,12.416-3.85
			c4.32-0.926,8.64,2.695,8.64,2.695s0-7.453,1.543-5.383c1.543,2.071,2.469,6.596,2.469,6.596s1.851-4.526,3.394-2.983
			c1.543,1.543,1.851,5.246,1.851,5.246s2.469-5.411,4.629-3.477s2.16,1.934,2.16,1.934s2.777-2.942,5.554-1.934
			s5.246,1.214,5.246,1.214s1.851-8.667,4.011-6.596c2.16,2.071,4.011,6.596,4.011,6.596s1.851-7.611,4.011-5.143
			c2.16,2.469,3.768,5.143,3.768,5.143s0.861-4.629,2.918-4.629s4.114,3.415,4.114,3.415s0.617-3.826,3.291-3.415
			c2.674,0.411,5.76,3.415,5.76,3.415s1.234-6.151,3.703-5.4c2.469,0.751,6.994,3.014,6.994,3.014s1.44-5.76,3.497-5.349
			c2.057,0.411,4.114,7.734,4.114,7.734s1.646-4.855,2.88-4.237c1.234,0.617,1.44,5.451,1.44,5.451s1.234-7.742,4.114-6.596
			c2.88,1.145,3.703,7.934,3.703,7.934s4.731-6.994,6.788-5.76c2.057,1.234,3.291,3.209,3.291,3.209s1.851-9.586,3.086-8.557
			c1.234,1.029,1.029,4.731,1.029,4.731s2.104-4.705,4.731-5.974c2.627-1.269,12.022,7.414,12.08,8.236
			c0.057,0.823,26.279-15.81,34.973-11.505c8.695,4.305,13.426,10.888,13.426,10.888s2.663-6.994,4.417-6.171
			c1.754,0.823,2.783,2.952,2.783,2.952s0.823-8.922,3.291-8.817c2.469,0.105,3.703,5.659,3.703,5.659s3.497-5.377,6.583-2.997
			c3.086,2.38,5.554,6.154,5.554,6.154s4.32-6.018,5.76-4.382c1.44,1.636-1.234,4.399-1.234,4.399s5.143-2.754,7.817-1.113
			c2.674,1.641,5.76,5.55,5.76,5.55s-0.411-5.133,1.44-5.55c1.851-0.416,2.057,2.67,2.057,2.67s0.411-5.74,2.674-5.956
			c2.263-0.216,5.754-0.018,5.754-0.018s3.373,10.499,12.181,33.95c8.808,23.451,21.768,54.925-15.878,69.736
			c-37.645,14.811-136.577,9.257-171.659,17.897s-78.898,21.2-158.509,13.994c-62.848-5.688-135.31-16.886-174.881-43.21
			c-18.87-12.553-27.274-36.063-20.885-57.808c0.059-0.202,0.12-0.405,0.181-0.609C118.775,325.913,121.019,312.345,121.019,312.345
			z"/>
		<g>
			<path style="fill:#968234;" d="M516.378,286.354c0,0-0.182,1.862,0,3.684c0.182,1.821,16.578,27.796,16.394,28.349
				c-0.184,0.553,0.067,2.026-0.888,2.395c-0.955,0.368-15.324,2.947-17.35,4.053c-2.026,1.105-3.487,5.711-3.954,6.632
				c-0.467,0.921,12.428,3.132,15.929,3.5c3.5,0.368,24.695-2.763,25.611-3.132c0.916-0.368,11.785-7.922,12.89-10.132
				c1.105-2.211-18.975-35.562-19.712-36.019c-0.737-0.457-7.488,0-7.488,0L516.378,286.354z"/>
			<path style="fill:#768A4A;" d="M485.285,215.689l-10.834-21.946c0,0-5.657,2.674-7.707,4.152
				c-0.786,0.567-3.637,3.799-6.937,7.63c6.721,4.973,14.188,8.649,21.064,13.031C483.544,216.823,485.285,215.689,485.285,215.689z
				"/>
			<path style="fill:#E2966A;" d="M459.807,205.525c-5.301,6.153-11.765,13.852-12.716,14.549c-1.543,1.131-36.34,6.359-36.34,6.359
				s-2.622-1.173-3.933-1.656c-1.311-0.483-6.693,1.656-7.935,2.208c-1.242,0.552-5.658,2.622-4.83,3.174
				c0.828,0.552,6.417-1.173,6.417-1.173s-2.691,2.07-3.519,2.691s-6.279,8.97-6.762,9.867c-0.483,0.897,1.518,0.746,1.518,0.746
				s-0.069,0.979,1.104,0.772s4.83-4.692,4.83-4.692s-3.105,6.831-2.76,7.107c0.345,0.276,7.314-8.694,7.314-8.694
				s-1.794,3.519-2.07,4.002s-0.966,3.174-0.69,4.002c0.276,0.828,4.278-6.486,4.485-6.624s2.691-0.345,4.14-0.759
				c1.449-0.414,3.243-2.967,3.726-2.967c0.483,0,37.887,3.047,39.898,2.441c1.54-0.464,20.43-12.646,29.187-18.323
				C473.995,214.174,466.529,210.498,459.807,205.525z"/>
			<path style="fill:#305949;" d="M473.633,189.858c0,0,1.044,16.952,5.292,24.418c4.248,7.467,20.314,11.906,22.371,10.09
				c2.057-1.816,3.47-14.99,3.47-14.99L473.633,189.858z"/>
			<path style="fill:#486E67;" d="M533.911,169.409c0,0,19.903,0.036,30.262,3.211c10.358,3.175,28.598,29.521,25.671,43.032
				c-2.927,13.511-19.141,37.831-18.915,41.208c0.225,3.378,6.981,17.114,6.08,18.69c-0.901,1.576-1.576,6.08-2.927,6.981
				c-1.351,0.901-27.472,8.332-29.274,7.431c-1.801-0.901-4.053-4.278-4.053-4.278l-22.518,2.702c0,0-7.656-7.881-7.656-11.484
				c0-3.603,10.133-73.41,10.133-73.41L533.911,169.409z"/>
			<path style="fill:#768A4A;" d="M475.888,194.583c0,0,4.947,19.194,11.665,22.025c6.718,2.831,20.698-4.778,25.299-7.786
				c4.601-3.008,18.227-0.708,22.828-6.371c4.601-5.663,8.671-6.719,7.255-15.305c-1.416-8.585-9.025-17.738-9.025-17.738
				s-37.624,1.726-40.49,3.316C490.556,174.314,475.888,194.583,475.888,194.583z"/>
			<path style="fill:#305949;" d="M493.422,177.875c0,0,0.658,10.574,5.916,19.233c5.258,8.66,7.91,10.824,10.218,11.288
				s17.706-2.169,17.706-2.169s6.868,1.396,9.806,0.468c2.938-0.928,2.629-11.974,0.928-21.373
				c-1.701-9.399-7.211-15.762-7.211-15.762s-23.075,1.003-25.714,1.518C502.43,171.593,493.422,177.875,493.422,177.875z"/>
			<path style="fill:#BA413F;" d="M479.837,191.482c0,0,7.546,2.121,7.716,1.236c0.171-0.885,3.179-9.556,3.179-9.556l-4.955,0.885
				L479.837,191.482z"/>
			<path style="fill:#B5754E;" d="M467.736,145.268c0,0,7.942-10.69,16.203-10.569c8.261,0.121,11.176,13.484,10.69,13.727
				C494.143,148.669,469.026,146.604,467.736,145.268z"/>
			<path style="fill:#B59665;" d="M452.354,168.227c0,0-9.84,1.395-16.157-8.717c-6.317-10.112-3.523-21.653,6.074-23.11
				c9.597-1.458,17.603,1.336,24.473,3.766c6.869,2.43,13.794,4.009,26.063,3.644c12.27-0.365,25.632-0.402,25.997,10.428
				c0.365,10.831,1.944,16.093-21.38,18.382C474.099,174.909,452.354,168.227,452.354,168.227z"/>
			<path style="fill:#4D1510;" d="M456.774,158.487c0,0-2.208,4.305-4.897,6.492c-2.689,2.187-6.838,7.719-4.686,11.714
				c2.151,3.995,7.76,3.941,7.76,3.941L456.774,158.487z"/>
			<path style="fill:#E2966A;" d="M456.208,158.921c0,0-3.749,21.128,0,30.84s11.075,9.712,18.913,5.282
				c7.838-4.43,16.698-17.55,18.231-26.581C494.886,159.432,470.52,147.505,456.208,158.921z"/>
			<path style="fill:none;stroke:#BA413F;stroke-width:0.9086;stroke-miterlimit:10;" d="M466.451,170.428
				c0,0-2.268,15.044-1.814,14.893c0.454-0.151,2.797-2.117,3.1-2.646"/>
			<ellipse style="fill:#BA413F;" cx="474.805" cy="178.35" rx="4.12" ry="2.284"/>
			<path style="fill:#BA413F;" d="M463.503,177.119c0,1.03-1.506,1.865-3.364,1.865s-3.364-0.835-3.364-1.865
				c0-1.03,1.506-1.865,3.364-1.865S463.503,176.089,463.503,177.119z"/>
			<circle style="fill:#4D1510;" cx="473.633" cy="172.62" r="1.512"/>
			<circle style="fill:#4D1510;" cx="460.932" cy="172.62" r="1.512"/>
			<path style="fill:#4D1510;" d="M462.804,188.089c0,0,1.598,1.964,3.353,1.807c1.755-0.157,3.601-2.396,3.955-2.554
				c0.354-0.157,0.573-0.197,0.573-0.197s-1.768,3.222-3.94,3.536C464.572,190.997,462.922,189.464,462.804,188.089z"/>
			<path style="fill:#4D1510;" d="M464.577,165.967c0,0,0.157-1.3-2.132-0.918c-2.289,0.382-3.972,2.294-3.742,2.294
				c0.229,0,2.927-0.688,4.102-0.612C463.979,166.809,464.577,165.967,464.577,165.967z"/>
			<path style="fill:#4D1510;" d="M478.128,169.409c0,0-3.441-4.729-5.507-4.43c-2.065,0.3-1.936,2.824-1.936,2.824
				S477.439,168.568,478.128,169.409z"/>
			<path style="fill:#4D1510;" d="M456.109,159.51c0,0,5.241,5.23,10.048,6.001c4.806,0.771,6.346-2.351,6.346-2.351
				s1.902,6.249,6.422,7.947s8.897-1.057,8.897-1.057s-1.783,3.275,0,5.204c1.783,1.929,1.783,1.929,1.783,1.929
				s-8.268,6.646-5.755,9.24c2.513,2.594,9.889,4.134,16.049-0.486c6.16-4.62,6.809-8.511,5.431-13.941
				c-1.378-5.431-4.296-6.484-6.16-8.673c-1.864-2.189-4.62-5.512-7.133-6.322c-2.513-0.811-15.563-3.485-20.831-3.729
				C465.937,153.029,456.661,155.719,456.109,159.51z"/>
			<path style="fill:#4D1510;" d="M456.109,159.51c0,0,1.961,3.595,4.823,5.015c2.862,1.42,5.224,1.176,5.224,1.176
				s-3.386-0.69-5.024-1.785C459.495,162.821,456.109,159.51,456.109,159.51z"/>
			<path style="fill:#4D1510;" d="M472.121,163.092c0,0,2.998,8.874,7.113,9.528c4.114,0.654,8.32-1.984,8.32-1.984
				s-5.085,2.124-7.716,1.558c-2.632-0.566-7.289-9.581-7.289-9.581L472.121,163.092z"/>
			<path style="fill:#4D1510;" d="M456.109,158.487c0,0-1.158,3.185-3.924,4.126c-2.766,0.942-8.144,4.848-7.529,8.465
				c0.615,3.617,1.938,4.462,1.938,4.462s-2.057-3.611,0-6.684c2.057-3.073,6.617-5.839,7.948-7.299
				c1.331-1.46,2.232-2.689,2.232-2.689S457.267,157.568,456.109,158.487z"/>
			<path style="fill:#768A4A;" d="M525.673,201.457c0,0,8.846-1.206,8.846-8.523c0-7.317-14.757-14.643-23.04-12.3
				c-6.486,1.834-6.85,16.844-3.938,38.479l19.807-6.16C526.396,206.342,525.673,201.457,525.673,201.457z"/>
			<path style="fill:#E2966A;" d="M507.541,219.113c0.807,5.995,1.865,12.498,3.115,19.372l-29.634,34.971l-6.16,2.057
				c0,0-3.497-1.851-5.143,0c-1.646,1.851-1.646,1.851-1.646,1.851l5.908,1.44l-3.297,6.788c0,0,7.545,0.206,9.153,0
				c1.608-0.206,5.448-4.731,5.448-4.731s45.942-31.885,46.559-32.708c0.416-0.554-2.529-21.555-4.496-35.201L507.541,219.113z"/>
			<path style="fill:#4C5930;" d="M523,186.38l2.673,15.077c0,0,2.869-0.341,5.85-2.457L523,186.38z"/>
			<path style="fill:none;stroke:#305949;stroke-width:0.9086;stroke-miterlimit:10;" d="M540.754,285.684
				c0,0-5.774-12.871-5.096-16.605c0.679-3.733,8.146-47.515,8.824-49.721c0.679-2.206,11.37-20.024,17.818-23.758
				s13.406-4.877,13.406-4.877"/>
			<path style="fill:none;stroke:#305949;stroke-width:0.9086;stroke-miterlimit:10;" d="M548.206,212.671
				c0,0,3.234-11.979,5.61-15.712c2.376-3.733,10.012-8.91,10.012-8.91"/>
			<path style="fill:none;stroke:#305949;stroke-width:0.9086;stroke-miterlimit:10;" d="M542.937,187.146
				c0,0,7.825-0.709,10.54-3.255c2.715-2.545,3.828-12.784,3.828-12.784"/>
			<path style="fill:none;stroke:#305949;stroke-width:0.9086;stroke-miterlimit:10;" d="M535.603,206.957
				c0,0,3.958,8.82,5.486,10.272c1.527,1.451,3.211,2.914,3.211,2.914"/>
			<path style="fill:none;stroke:#244236;stroke-width:0.9086;stroke-miterlimit:10;" d="M514.802,176.066
				c4.892-1.134,15.059,7.096,15.059,7.096l-1.719-4.812"/>
			<path style="fill:none;stroke:#244236;stroke-width:0.9086;stroke-miterlimit:10;" d="M483.708,209.994
				c0,0,3.073,2.983,9.714,2.16c6.64-0.823,10.137-2.777,10.137-2.777l-6.891,4.173"/>
			<path style="fill:#5D8F86;" d="M540.77,246.922c0,0-0.365-1.318,2.452-1.844c2.818-0.527,13.621-2.079,14.675-0.644
				c1.054,1.435,4.348,27.257,3.162,28.047c-1.186,0.79-17.917,4.348-19.762,3.294c-1.845-1.054-3.821-4.743-3.952-5.402
				C537.213,269.714,540.77,246.922,540.77,246.922z"/>
			<path style="fill:#5D8F86;" d="M552.12,243.95c0,0,0.816-3.957,1.218-4.057c0.402-0.1,1.105,0.201,1.105,0.502
				c0,0.301-1.161,4.421-1.161,4.421L552.12,243.95z"/>
			<path style="fill:#5D8F86;" d="M549.327,245.52c0,0-0.009-4.622-0.411-4.823c-0.402-0.201-1.005,0-1.005,0v4.823H549.327z"/>
			<polygon style="fill:#5D8F86;" points="545.298,245.52 544.3,241.702 543.222,242.345 544.26,245.52 			"/>
			<path style="fill:#5D8F86;" d="M556.653,244.817c0,0,1.708-2.23,2.11-2.472c0.402-0.241,0.904,0.719,0.904,0.719l-2.512,2.959
				L556.653,244.817z"/>
			<polygon style="fill:#5D8F86;" points="558.16,251.649 561.313,250.846 561.878,252.152 558.16,252.956 			"/>
			<path style="fill:#5D8F86;" d="M559.668,258.784l2.914-0.402c0,0,0.101,0.904,0,1.005c-0.1,0.1-2.914,0.517-2.914,0.517V258.784z
				"/>
			<polygon style="fill:#5D8F86;" points="560.019,266.923 563.988,266.119 563.988,267.827 560.019,268.531 			"/>
			<polygon style="fill:#5D8F86;" points="560.471,271.043 563.988,271.043 563.586,272.349 560.471,272.349 			"/>
			<path style="fill:#B59C3E;" d="M543.098,288.6c0,0-1.068,2.943,0,4.037c1.068,1.094,20.847,27.162,20.755,27.8
				c-0.091,0.638-0.547,1.367-0.82,1.732c-0.273,0.365-18.23,10.3-18.868,12.123c-0.638,1.823-0.82,5.651-0.365,6.107
				c0.456,0.456,13.964,3.515,24.763-1.011c10.8-4.526,12.96-6.274,13.371-6.377c0.411-0.103,2.777,0.103,5.451-1.543
				c2.674-1.646,5.554-2.571,5.554-4.32c0-1.749-14.863-43.199-14.863-43.971s-2.371-3.861-2.371-3.861s-1.023,2.935-2.875,3.552
				c-1.851,0.617-28.025,7.095-28.025,7.095L543.098,288.6z"/>
			<path style="fill:#4D2926;" d="M552.468,303.201c0,0,5.348,0.713,8.679,0c3.331-0.714,8.562-4.043,9.157-3.924
				c0.595,0.119,3.448,3.607,3.092,4.241c-0.357,0.634-9.719,4.083-10.448,4.32s-6.198,0.025-7.863-0.951
				C554.344,306.453,552.468,303.201,552.468,303.201z"/>
			<path style="fill:#4D2926;" d="M559.994,312.251c0,0,2.575,3.348,2.953,3.852c0.378,0.504,3.484,0.846,4.835,0.504
				c1.351-0.342,7.245-3.844,7.501-4.356c0.256-0.513-0.085-4.633-0.854-4.324c-0.769,0.31-7.431,4.221-8.456,4.4
				C564.948,312.507,559.994,312.251,559.994,312.251z"/>
			<path style="fill:#4D2926;" d="M522.02,300.21c0,0,5.325,1.33,8.725,0.978c3.4-0.352,9.73-0.978,9.73-0.978
				s2.068,2.521,2.148,3.391c0.08,0.87,0.272,1.573,0,2.042c-0.272,0.469-15.16,0.52-17.036,0.494
				c-1.876-0.025-2.814-1.432-2.814-1.432L522.02,300.21z"/>
			<path style="fill:#4D2926;" d="M527.354,309.059c0,0,6.385,1.908,10.457,1.18c4.071-0.728,7.354-1.18,7.354-1.18l1.876,5.258
				c0,0-11.254,1.524-12.661,1.289c-1.407-0.234-5.744-1.758-5.744-1.758L527.354,309.059z"/>
			<path style="fill:#4D2926;" d="M543.596,337.51c0,0-0.343,3.605,0.458,4.321c0.8,0.716,15.826,1.973,21,0.716
				c5.174-1.257,16.262-7.55,16.262-7.55s2.629,0.108,3.658,0c1.029-0.108,8.572-4.452,8.458-5.48
				c-0.114-1.029-1.59-6.175-1.59-6.175s-11.326,8.536-15.326,9.871c-4.001,1.334-16.002,6.592-17.831,6.592
				S543.596,337.51,543.596,337.51z"/>
			<path style="fill:#4D2926;" d="M511.427,329.431c0,0,11.656,2.653,13.76,2.653c2.104,0,23.888-1.534,23.888-1.534
				s-3.859,2.474-4.384,3.107c-0.525,0.634-1.003,2.939-1.003,2.939s-14.797,1.295-16.733,1.211
				c-1.935-0.084-17.841-3.45-17.841-3.703s0.673-2.525,0.926-3.03C510.291,330.569,511.427,329.431,511.427,329.431z"/>
			<path style="fill:#486E67;" d="M552.468,328.447c0,0,6.971-0.584,9.669,0.984c2.697,1.569,6.575,3.76,6.828,4.603
				c0.253,0.843,0.652,1.842,0.652,1.842s-9.588,4.396-10.683,4.48s-15.337-2.846-15.337-2.846s0.586-3.856,0.923-4.298
				C544.856,332.77,552.468,328.447,552.468,328.447z"/>
			<path style="fill:#486E67;" d="M525.569,322.127c0,0,9.241,1.674,10.034,3.046c0.793,1.372,2.052,5.641,1.594,6.192
				c-0.458,0.552-12.231,1.466-13.717,1.237s-12.053-3.172-12.053-3.172s0.852-4.258,2.452-4.944
				C515.479,323.802,525.569,322.127,525.569,322.127z"/>
		</g>
		<path style="fill:#768A4A;" d="M568.478,351.208c0,0-4.142-1.368-8.007,1.688c-3.865,3.056-6.511,5.42-4.816,8.923
			c1.694,3.503,9.06,5.788,13.962,4.341c4.902-1.447,6.09-2.222,6.09-2.222s2.188,4.248,4.118,3.838
			c1.929-0.41,2.894-2.581,2.894-2.581s2.17,5.746,5.788,4.561c3.617-1.185,0-3.355,0-3.355s5.305,5.505,8.199,3.355
			c2.894-2.15,2.17-4.079,2.17-4.079s4.582,5.295,11.335,4.577c6.753-0.718,18.328-3.612,18.328-3.612s6.029,2.508,11.576,1.134
			c5.547-1.375,11.334-8.851,11.334-8.851s3.859,2.409,6.511,1.687c2.653-0.723,7.73-8.293,1.206-13.504
			c-6.524-5.211-6.082-4.027-6.082-4.027s3.67-0.793,2.465-2.724c-1.206-1.931-4.422-2.548-4.422-2.548s2.01-5.799,0.081-8.379
			c-1.929-2.58-7.235-6.947-9.646-6.09c-2.412,0.857-4.1,2.063-4.1,2.063s0.965-5.547-0.482-5.547c-1.447,0-2.171,2.27-2.171,2.27
			s-0.601-6.139-3.195-6.496c-2.593-0.356-1.44,5.55-1.44,5.55s-2.186-6.786-6.458-7.231c-4.272-0.445-7.119,2.794-7.119,2.794
			s2.936-6.434,1.245-6.172s-5.607,5.336-5.607,5.336s-4.183-8.01-7.921-6.764c-3.738,1.246-4.476,4.036-4.476,4.036
			s-2.645-7.151-4.425-5.816c-1.78,1.335-2.403,8.277-2.403,8.277s-2.403-2.937-3.916-2.403c-1.513,0.534-1.78,9.523-2.047,9.701
			c-0.267,0.178-4.806-1.423-6.141,0.401c-1.335,1.824,0.623,4.405,0.623,4.405s-1.157-1.691-4.806,1.246
			c-3.649,2.937-4.183,6.675-3.827,7.298c0.356,0.623,0.531,1.869,0.531,1.869s-3.824-0.757-4.358,0.6
			c-0.534,1.358,1.246,2.07,1.246,2.07s-2.848,0.089-3.738,2.67C565.686,346.081,564.862,350.373,568.478,351.208z"/>
		<circle style="fill:#DEAB68;" cx="553.281" cy="118.108" r="23.463"/>
		<path style="fill:#486E67;" d="M459.129,425.486c0,0,10.405-27.929,27.108-31.763c16.703-3.833,17.248-8.488,25.19-17.798
			c7.942-9.31,12.597-8.762,19.716-13.691c7.119-4.929,16.429-10.953,24.096-7.119c7.667,3.833,1.03,11.5-2.771,19.715
			c-3.801,8.215,0.3,15.06-3.393,23.001c-3.693,7.941-8.074,12.048-9.991,18.072s-8.24,12.27-8.24,12.27s-38.649,1.234-51.374,3.487
			c-12.725,2.253-24.885,5.271-24.885,5.271L459.129,425.486z"/>
		<path style="fill:none;stroke:#305949;stroke-width:0.9086;stroke-miterlimit:10;" d="M488.827,430.771
			c0,0,8.551-16.359,17.102-23.423c8.551-7.064,8.923-9.481,14.128-17.288c5.205-7.808,10.41-9.481,15.429-13.942
			c5.019-4.461,9.667-12.827,12.269-15.057c2.603-2.231,8.851-5.109,8.851-5.109"/>
		<path style="fill:none;stroke:#305949;stroke-width:0.9086;stroke-miterlimit:10;" d="M539.524,371.737
			c0,0,3.699-2.877,8.297-3.628c4.598-0.751,8.141,0,8.141,0"/>
		<path style="fill:none;stroke:#305949;stroke-width:0.9086;stroke-miterlimit:10;" d="M528.43,363.939
			c0,0,0.841,4.004-0.449,6.306c-1.289,2.303-4.329,8.29-3.961,10.961c0.368,2.671,0.735,3.226,0.735,3.226"/>
		<path style="fill:none;stroke:#305949;stroke-width:0.9086;stroke-miterlimit:10;" d="M516.093,396.268
			c0,0,6.255-6.39,10.253-6.168c3.997,0.222,5.179,1.836,8.652-0.006c3.473-1.842,4.212-2.285,7.39-2.581
			c3.177-0.296,8.339-1.251,8.339-1.251"/>
		<path style="fill:none;stroke:#305949;stroke-width:0.9086;stroke-miterlimit:10;" d="M498.319,415.718
			c0,0,5.152-4.91,13.274-5.111c8.122-0.201,10.252-5.415,14.752-5.916c4.5-0.501,8.211,1.103,12.121-1.203s9.77-3.942,9.77-3.942"
			/>
		<path style="fill:none;stroke:#305949;stroke-width:0.9086;stroke-miterlimit:10;" d="M509.788,376.614
			c0,0,4.111,6.618,2.306,11.13c-1.805,4.512-3.61,7.42-3.61,11.13c0,3.71-0.39,6.631-0.39,6.631"/>
		<path style="fill:none;stroke:#305949;stroke-width:0.9086;stroke-miterlimit:10;" d="M488.827,391.266
			c0,0,4.755,7.846,2.904,14.24c-1.851,6.394-2.064,9.891-1.238,14.417c0.827,4.526,0.844,6.387,0.844,6.387"/>
		<circle style="fill:#BA413F;" cx="579.12" cy="346.02" r="2.836"/>
		<circle style="fill:#BA413F;" cx="590.105" cy="331.513" r="2.836"/>
		<circle style="fill:#BA413F;" cx="605.909" cy="327.383" r="2.836"/>
		<path style="fill:#BA413F;" d="M599.104,348.855c0,1.566-1.27,2.836-2.836,2.836c-1.566,0-2.835-1.27-2.835-2.836
			c0-1.566,1.269-2.835,2.835-2.835C597.834,346.02,599.104,347.289,599.104,348.855z"/>
		<g>
			<g>
				<path style="fill:#305949;" d="M600.072,353.115c2.75-3.529,7.7-4.181,11.273-1.485c0.24,0.181,0.586-0.119,0.5-0.385
					c-1.377-4.299,1.785-8.656,6.306-8.645c0.438,0.001,0.439-0.68,0-0.681c-4.949-0.012-8.475,4.784-6.963,9.507
					c0.167-0.128,0.334-0.257,0.5-0.385c-3.793-2.861-9.179-2.155-12.099,1.592C599.323,352.975,599.802,353.46,600.072,353.115
					L600.072,353.115z"/>
			</g>
		</g>
		<g>
			<g>
				<path style="fill:#305949;" d="M601.276,338.605c1.161-2.614,4.111-4.231,6.943-3.712c0.134,0.025,0.324-0.013,0.385-0.157
					c0.598-1.404,1.626-2.527,2.98-3.234c0.389-0.203,0.045-0.791-0.344-0.588c-1.445,0.754-2.586,1.978-3.224,3.478
					c0.128-0.052,0.256-0.104,0.385-0.157c-3.112-0.57-6.42,1.117-7.713,4.025C600.511,338.658,601.098,339.005,601.276,338.605
					L601.276,338.605z"/>
			</g>
		</g>
		<path style="fill:#003B2F;" d="M459.07,422.088c0,0,6.248-19.947,6.008-20.668c-0.24-0.721-6.489-13.732-8.652-15.157
			c-2.163-1.425-9.613-16.506-9.613-16.506s5.447-0.545,7.77,1.981c2.323,2.526,10.501,26.799,10.501,26.799s3.34-5.579,2.988-7.476
			c-0.352-1.897-7.321-23.045-8.523-25.208c-1.202-2.163-0.961-18.287-0.961-18.287s6.008,16.848,6.969,20.211
			s4.086,19.945,4.086,19.945l1.682-8.892c0,0-3.622-11.055-3.253-17.303c0.369-6.248,2.292-21.168,2.292-21.168
			s4.085,19.745,4.085,23.581c0,3.836,0,10.247,0,10.247l3.124-10.247c0,0-0.24-22.885,1.202-25.506
			c1.442-2.621,3.845-5.794,3.845-5.794s-2.403,22.786-2.644,23.314c-0.24,0.527,2.644-3.079,2.644-3.079s5.615-15.902,9.536-18.525
			c3.922-2.623,7.82-4.131,7.82-4.131s-5.941,18.366-9.486,21.472c-3.545,3.107-10.754,10.316-10.754,10.316l-1.442,5.769
			c0,0,7.363-7.932,10.531-10.335c3.168-2.403,12.3-7.21,12.3-7.21s-9.219,12.497-12.3,14.9c-3.081,2.403-12.453,9.054-12.453,9.054
			l-6.248,16.875c0,0,6.969-9.932,11.776-14.446c4.806-4.514,12.977-8.838,12.977-8.838s-10.814,18.503-13.698,21.387
			c-2.884,2.884-11.535,7.105-11.535,7.105l-8.892,31.827L459.07,422.088z"/>
		<path style="fill:#33755C;" d="M366.458,349.557c0,0-0.516-6.448,1.548-4.9c2.063,1.547,1.547,4.9,1.547,4.9
			s1.805-2.561,5.158-2.57c3.353-0.009,4.9,4.891,4.9,4.891s4.384-4.366,9.543-3.731c5.158,0.636,10.316,5.751,10.316,5.751
			s0.516-2.795,2.579-3.053c2.063-0.258,0,3.053,0,3.053s5.932-2.363,7.479,0c1.548,2.363-1.547,3.137-1.547,3.137
			s6.19-1.805,5.416,4.126c0,0,7.221,3.168,10.058,6.613c2.837,3.445,0,6.409,0,6.409s5.674-0.127,5.416,1.162
			c-0.258,1.29-2.837,2.125-2.837,2.125s6.964,0.196,7.221,4.839c0,0,5.416-0.865,12.122,3.952c6.706,4.817,6.19,10.005,6.19,10.005
			s4.384-1.002,5.158,0c0.774,1.002-2.142,2.291-2.142,2.291s6.778,2.955,7.557,6.947c0.78,3.992,0.774,11.881,0.774,11.881
			s7.737-3.338,7.737-1.669c0,1.669-2.321,2.958-2.321,2.958s8.253,1.547,9.027,5.932c0.774,4.385,0,7.337,0,7.337
			s-60.507,18.937-98.152,19.554c-37.645,0.617-116.333-6.766-124.972-9.863c0,0-5.244-7.217-1.541-10.866
			c3.703-3.648,4.937,0,4.937,0s-2.16-6.117,0.309-7.043c2.469-0.926,2.16,4.367,2.16,4.367s-0.309-6.836,3.086-7.762
			c3.394-0.926,3.394-0.926,3.394-0.926s-1.543-4.937,0.926-5.863c2.469-0.926,1.851,2.172,1.851,2.172s2.468-3.098,5.554-3.098
			c3.086,0,3.086,0,3.086,0s-3.703-5.783-0.926-13.074c2.777-7.291,10.8-8.486,10.8-8.486s-3.703-2.766-2.16-4.797
			c1.543-2.031,4.32,1.363,4.32,1.363s-0.926-7.213,3.394-11.012c4.32-3.799,9.874-5.034,9.874-5.034s-5.246-3.394-2.469-4.32
			c2.777-0.926,5.863,1.543,5.863,1.543s-0.926-7.406,1.851-8.331c2.777-0.926,3.703,0.926,3.703,0.926s2.469-13.905,9.257-16.981
			c6.788-3.076,12.343-4.31,12.343-4.31s2.469-4.974,6.171-5.11c3.703-0.136,0.309,2.813,0.309,2.813s7.097-0.136,11.726,0
			c4.628,0.136,4.011,3.222,4.011,3.222s5.246-0.617,5.863,0.926c0.617,1.543,0.309,3.086,0.309,3.086
			S366.053,345.431,366.458,349.557z"/>
		<path style="fill:#BA413F;" d="M391.398,371.787c0,0-3.939-1.206-6.753,0.723c-2.814,1.929-6.19,10.209,1.849,13.183
			s12.621,0.482,14.63-4.984s1.045-11.013-2.653-11.495S391.398,370.019,391.398,371.787z"/>
		<path style="fill:#BA413F;" d="M374.372,373.123c0,0-2.057-3.394-4.629-2.469c-2.571,0.926-3.291,4.32-0.617,5.04
			C371.801,376.415,374.886,375.592,374.372,373.123z"/>
		<path style="fill:#BA413F;" d="M342.178,362.118c0,0-4.32,0-6.48,3.086c-2.16,3.086-1.646,10.08,2.777,11.623
			c4.423,1.543,10.594-1.954,11.108-3.086c0,0,6.48-0.128,6.891-4.075c0.411-3.948-4.217-13.205-8.434-12.073
			C343.824,358.724,342.178,362.118,342.178,362.118z"/>
		<path style="fill:#BA413F;" d="M398.939,403.71c0,0-1.094-2.735-3.282-1.751c-2.188,0.985-2.407,4.377,0,4.705
			C398.064,406.992,398.829,405.132,398.939,403.71z"/>
		<path style="fill:#BA413F;" d="M423.448,382.374c0,0-3.064,3.064-6.127,2.407c-3.064-0.656-6.346-5.799-3.72-8.206
			c2.626-2.407,4.445-1.313,4.445-1.313s-0.725-2.954,1.682-3.939c2.407-0.985,7.769,2.48,7.44,5.89
			C426.84,380.623,423.448,382.374,423.448,382.374z"/>
		<path style="fill:#BA413F;" d="M430.122,396.16c0,0-1.204-3.064-5.361-1.969s-8.206,8.753-4.267,14.005
			c3.939,5.252,11.707,3.173,14.99-0.766C438.766,403.491,437.891,395.613,430.122,396.16z"/>
		<path style="fill:#BA413F;" d="M368.521,399.552c0,0,4.595-1.969,7.112,1.532c2.517,3.501-0.766,15.209-8.316,16.084
			c-7.55,0.875-14.333-2.55-13.349-10.466C354.954,398.786,364.473,387.735,368.521,399.552z"/>
		<path style="fill:#BA413F;" d="M312.403,383.923c0,0-3.693-1.583-5.715,0c-2.022,1.583-2.638,9.408,1.407,11.342
			c4.044,1.934,8.529,1.407,10.639-4.044C320.844,385.77,315.393,381.637,312.403,383.923z"/>
		<path style="fill:#BA413F;" d="M331.481,400.895c0,0-1.029-1.646-2.469-0.926c-1.44,0.72-1.748,2.777,0,3.086
			C330.761,403.363,331.481,401.923,331.481,400.895z"/>
		<path style="fill:#BA413F;" d="M308.75,418.174c0,0-1.321-4.011-3.643-2.777c-2.322,1.234-2.1,4.423,0,4.834
			C307.207,420.643,309.059,418.925,308.75,418.174z"/>
		<path style="fill:#003B2F;" d="M430.417,396.558c0,0,0.741,2.317,2.641,3.104c1.9,0.788,2.363,0.556,2.363,0.556
			s-1.281-2.506-2.224-3.243c-0.943-0.737-1.946-0.417-1.946-0.417l1.668-4.541h-1.158l-1.112,3.753c0,0-0.093-2.139-1.39-2.506
			c-1.297-0.367-4.216-0.321-4.216-0.321s0.973,2.502,2.317,2.919C428.702,396.28,430.417,396.558,430.417,396.558z"/>
		<path style="fill:#003B2F;" d="M416.862,374.836c0,0-0.846-0.37-0.705-2.361c0.141-1.991,0.634-3.313,0.634-3.313l1.304,0.299
			l-0.864,2.256c0,0-0.035,2.256,0.282,2.52c0.317,0.264,0.211,0.229,0.211,0.229s-0.194-1.269,0.229-1.886
			c0.423-0.617,2.996-2.132,2.996-2.132s-0.42,2.555-1.038,3.383c-0.618,0.828-1.799,1.551-1.799,1.551s-1.198-0.194-1.815-0.106
			c-0.617,0.088-3.137,0.881-3.137,0.881s0.247-1.128,0.581-1.392c0.335-0.264,3.19,0.018,3.19,0.018"/>
		<path style="fill:#003B2F;" d="M390.571,370.887c0,0-1.365-1.365-2.619-1.438c-1.254-0.074-5.349,1.438-5.349,1.438
			s3.099,1.775,3.984,1.773c0.885-0.002,4.057-0.408,4.242-0.445c0.184-0.037,0.906,0.148,0.988,0.148s0.377-0.848,0.377-0.848
			s1.844-1.107,2.767-1.217c0.922-0.111,1.807-0.516,1.807-0.516s-1.918-0.967-3.135-0.668c-1.217,0.299-1.815,1.643-1.815,1.643
			s-0.435-5.143-0.545-5.254c-0.111-0.111-1.254,0.59-1.254,0.59L390.571,370.887z"/>
		<path style="fill:#003B2F;" d="M367.624,400.037c0,0,0.124,1.735,2.541,2.169c2.417,0.434,7.312,0.31,7.312,0.31
			s-3.966-4.214-5.887-4.276c-1.921-0.062-2.355,0.867-2.355,0.867l3.656-5.843h-1.611l-2.355,5.037c0,0-0.806-3.011-1.735-3.922
			c-0.93-0.911-5.329-0.478-5.329-0.478s3.904,3.406,4.647,3.996C367.252,398.487,367.624,400.037,367.624,400.037z"/>
		<path style="fill:#003B2F;" d="M341.548,361.125c0,0-1.119-1.413-1.119-3.239c0-1.825-0.353-3.857-0.177-3.945
			c0.177-0.088,2.09,0.03,2.09,0.03s-0.795,3.651-0.824,4.24c-0.029,0.589,0.677,2.738,0.677,2.738s-0.147-0.736,0.501-1.384
			c0.648-0.648,5.359-1.443,5.359-1.443s-2.002,2.974-3.003,3.298c-1.001,0.324-2.179,0.501-2.179,0.501l-0.677,0.883
			c0,0-2.679-0.913-4.299-0.294c-1.619,0.618-3.033,0.736-3.033,0.736s1.855-1.884,1.973-1.973c0.118-0.088,1.501-0.795,2.355-0.707
			C340.046,360.653,341.548,361.125,341.548,361.125z"/>
		<path style="fill:#003B2F;" d="M311.776,383.22l0.381-4.628l1.546,0.401l-0.963,4.227c0,0,0.642-1.015,1.927-1.015
			s4.541,1.767,4.541,1.767s-4.701,0.401-5.263,0.482c-0.562,0.08-2.168,0-2.168,0s-3.693-1.445-4.978-1.606
			c-1.285-0.16-3.35-0.401-3.35-0.401s3.029-1.847,3.431-1.847C307.279,380.599,311.776,383.22,311.776,383.22z"/>
		<path style="fill:#305949;" d="M418.89,330.218c0,0-2.331-35.2-3.054-36.165c-0.723-0.965-2.171-9.021-5.547-8.369
			c-3.376,0.652-9.888,0-9.888,0s7.877-11.406,9.244-12.371c1.367-0.965,5.225,5.788,6.19,7.717
			c0.965,1.929,3.054,12.299,3.054,12.299s7.316-15.431,10.21-17.362c2.894-1.931,14.952-2.748,14.952-2.748l2.762,2.748
			c0,0-19.801,12.225-21.772,14.07c-1.971,1.845-6.474,8.611-6.152,10.172c0.322,1.561,2.061,30.009,2.061,30.009H418.89z"/>
		<path style="fill:#305949;" d="M391.817,330.218c0,0-5.066-30.534-4.75-31.923c0.316-1.388,0.685-5.4,3.047-6.171
			c2.361-0.771,10.288,1.389,10.288,1.389s-8.792-8.023-10.288-6.943c-1.496,1.08-4.89,8.177-4.89,8.794
			c0,0.617,0.154,3.086,0,3.549c-0.154,0.463-2.006-10.846-1.08-12.443c0.926-1.597,4.226-10.7,5.97-12.243
			c1.744-1.543,18.252-11.725,18.715-11.725c0.463,0-13.114-1.234-14.657-0.617c-1.543,0.617-7.113,4.011-7.105,4.474
			c0.008,0.463-2.853,8.331-3.505,9.72c-0.652,1.389-0.807,7.406-0.807,8.177c0,0.771-10.337-18.36-12.96-17.897
			c-2.623,0.463-6.48,3.548-6.48,3.548l-8.794,18.668l10.015-7.406c0,0,2.173-0.926,2.944-1.389c0.772-0.463,4.166-0.154,4.629,0
			c0.463,0.154,5.091,3.24,6.017,4.011s4.32,4.474,4.32,4.474l2.623,14.965c0,0-8.794-4.474-12.96-4.011
			c-4.166,0.463-12.189,5.674-12.189,5.674l-1.234,3.891c0,0,15.086-5.246,17.417-5.246s5.263,0.858,6.189,1.354
			c0.926,0.497,3.548,4.663,3.548,4.663l2.777,18.977L391.817,330.218z"/>
		<g>
			<g>
				<path style="fill:#DEAB68;" d="M399.026,319.173c-0.146-0.239-5.436-6.931-5.776-16.105c-0.34-9.174-0.136-20.046,2.888-20.386
					c3.024-0.34,12.877,25.686,11.382,32.549C406.025,322.095,401.946,323.935,399.026,319.173z"/>
				<g>
					<g>
						<path style="fill:#A3763B;" d="M393.843,295.836c0.653,0.533,1.541,0.707,2.328,0.367c0.734-0.317,1.329-1.096,1.328-1.915
							c0-0.409-0.227-0.826-0.65-0.921c-0.387-0.087-0.744,0.186-0.855,0.548c-0.276,0.899,0.847,1.491,1.568,1.594
							c0.974,0.139,1.915-0.336,2.418-1.174c0.226-0.377-0.363-0.72-0.588-0.344c-0.33,0.549-0.916,0.889-1.561,0.863
							c-0.323-0.013-0.652-0.12-0.916-0.31c-0.105-0.076-0.256-0.199-0.272-0.337c-0.008-0.068,0.005-0.18,0.086-0.163
							c0.252,0.051-0.013,0.716-0.076,0.834c-0.14,0.261-0.349,0.482-0.606,0.63c-0.537,0.31-1.245,0.237-1.722-0.153
							C393.988,295.079,393.503,295.559,393.843,295.836L393.843,295.836z"/>
					</g>
				</g>
				<g>
					<g>
						<path style="fill:#A3763B;" d="M394.683,290.907c1.252,0.657,2.84,0.047,3.253-1.329c0.086-0.286,0.093-0.648-0.126-0.88
							c-0.236-0.251-0.622-0.244-0.872-0.016c-0.593,0.541,0.035,1.37,0.598,1.607c0.708,0.298,1.545-0.021,1.877-0.715
							c0.188-0.394-0.399-0.74-0.588-0.344c-0.189,0.395-0.622,0.613-1.042,0.428c-0.181-0.08-0.346-0.232-0.395-0.428
							c-0.004-0.016,0-0.05,0.005-0.044c-0.004-0.004-0.118-0.035-0.095-0.047c0.019-0.01-0.011,0.223-0.013,0.228
							c-0.26,0.965-1.395,1.405-2.26,0.951C394.639,290.115,394.294,290.703,394.683,290.907L394.683,290.907z"/>
					</g>
				</g>
				<g>
					<g>
						<path style="fill:#A3763B;" d="M394.71,300.62c0.805,0.715,1.882,1.039,2.946,0.825c0.969-0.195,1.99-0.906,2.333-1.863
							c0.304-0.847-0.373-1.969-1.342-1.467c-0.925,0.479-0.727,1.663,0.078,2.144c1.242,0.743,2.49-0.397,3.575-0.88
							c0.4-0.178,0.054-0.765-0.344-0.588c-0.789,0.351-1.709,1.234-2.639,0.987c-0.328-0.087-0.764-0.449-0.584-0.832
							c0.176-0.373,0.629-0.323,0.667,0.099c0.039,0.43-0.363,0.861-0.659,1.123c-0.315,0.278-0.699,0.478-1.105,0.584
							c-0.861,0.224-1.784-0.028-2.444-0.613C394.865,299.848,394.382,300.329,394.71,300.62L394.71,300.62z"/>
					</g>
				</g>
				<g>
					<g>
						<path style="fill:#A3763B;" d="M394.716,304.841c0.193,0.522,0.657,0.931,1.213,1.025c0.576,0.097,1.32-0.136,1.477-0.771
							c0.088-0.357-0.045-0.752-0.369-0.942c-0.154-0.09-0.38-0.04-0.466,0.122c-0.086,0.163-0.042,0.37,0.122,0.466
							c0.032,0.02,0.03,0.017-0.005-0.01c0.01,0.008,0.019,0.017,0.028,0.026c0.017,0.018,0.013,0.011-0.012-0.02
							c0.01,0.014,0.019,0.028,0.028,0.043c0.037,0.051-0.008-0.054,0.007,0.014c0.006,0.026,0.013,0.05,0.018,0.077
							c-0.015-0.086-0.007-0.006-0.005,0.015c-0.003,0.039-0.001,0.035,0.004-0.011c-0.002,0.013-0.005,0.026-0.008,0.039
							c-0.007,0.021-0.046,0.097-0.008,0.032c-0.015,0.025-0.03,0.05-0.045,0.075c0.035-0.058-0.01,0.009-0.021,0.02
							c-0.02,0.021-0.042,0.041-0.065,0.059c0.058-0.045-0.028,0.014-0.041,0.022c-0.03,0.017-0.061,0.034-0.093,0.047
							c0.055-0.024-0.009,0.001-0.03,0.007c-0.028,0.009-0.055,0.016-0.084,0.022c-0.034,0.008-0.077,0.013-0.017,0.006
							c-0.032,0.004-0.063,0.006-0.095,0.007c-0.059,0.002-0.118-0.001-0.177-0.008c0.06,0.007,0.018,0.002-0.017-0.006
							c-0.027-0.006-0.053-0.012-0.08-0.02c-0.026-0.007-0.052-0.016-0.078-0.025c-0.017-0.006-0.034-0.012-0.051-0.019
							c0.035,0.015,0.041,0.017,0.018,0.007c-0.053-0.028-0.106-0.053-0.157-0.085c-0.023-0.015-0.045-0.031-0.068-0.046
							c0.064,0.043-0.003-0.003-0.017-0.015c-0.049-0.042-0.091-0.088-0.134-0.135c-0.048-0.052,0.029,0.047-0.013-0.017
							c-0.015-0.023-0.03-0.045-0.044-0.068s-0.027-0.047-0.04-0.072c-0.008-0.016-0.016-0.033-0.023-0.049
							c0.017,0.039,0.018,0.041,0.004,0.005c-0.061-0.167-0.234-0.298-0.419-0.238C394.79,304.475,394.65,304.662,394.716,304.841
							L394.716,304.841z"/>
					</g>
				</g>
				<g>
					<g>
						<path style="fill:#A3763B;" d="M402.962,303.953c0.789,0.198,1.697-0.2,2.046-0.946c0.076-0.161,0.051-0.375-0.122-0.466
							c-0.151-0.08-0.385-0.05-0.466,0.122c-0.033,0.069-0.07,0.135-0.113,0.198c-0.006,0.009-0.013,0.019-0.02,0.028
							c-0.015,0.02-0.009,0.012,0.019-0.024c-0.003,0.014-0.027,0.033-0.036,0.044c-0.025,0.029-0.051,0.057-0.078,0.083
							c-0.027,0.027-0.055,0.052-0.085,0.077c-0.038,0.032-0.024,0.011,0.006-0.004c-0.016,0.008-0.032,0.023-0.046,0.034
							c-0.066,0.046-0.135,0.086-0.207,0.121c-0.012,0.006-0.065,0.04-0.022,0.011c0.04-0.027-0.01,0.004-0.023,0.009
							c-0.036,0.014-0.072,0.026-0.109,0.037c-0.036,0.011-0.073,0.02-0.111,0.028c-0.019,0.004-0.037,0.008-0.056,0.011
							c-0.053,0.009-0.021-0.002,0.012,0c-0.079-0.003-0.159,0.012-0.239,0.008c-0.019-0.001-0.038-0.003-0.057-0.004
							c-0.064-0.005,0.055,0.01,0.011,0.002c-0.042-0.008-0.082-0.015-0.123-0.025c-0.173-0.043-0.378,0.056-0.419,0.238
							C402.684,303.711,402.777,303.907,402.962,303.953L402.962,303.953z"/>
					</g>
				</g>
			</g>
			<path style="fill:#305949;" d="M406.802,325.851c0,0,4.666-18.563,5.173-20.085c0.507-1.522,1.42-8.825,1.42-8.825
				s-5.681,3.956-6.594,6.289c-0.913,2.333-1.826,11.361-1.826,11.361v7.202c0,0-2.637-18.056-3.043-18.259
				c-0.406-0.203-3.449,0.71-3.449,0.71s0.589,9.637,1.917,12.68c1.329,3.043,2.14,5.68,2.14,5.68s-8.622-16.23-10.752-18.665
				c-2.13-2.435-5.173-3.855-5.173-3.855s2.739,9.434,5.173,13.288c2.435,3.855,9.028,10.042,9.028,10.042L406.802,325.851z"/>
		</g>
		<g>
			<g>
				<path style="fill:#DEAB68;" d="M297.148,312.303c0.028-0.279-0.142-8.807,5.132-16.322c5.274-7.514,12.007-16.053,14.621-14.496
					c2.615,1.557-5.265,28.247-10.604,32.811C300.958,318.862,296.596,317.862,297.148,312.303z"/>
				<g>
					<g>
						<path style="fill:#A3763B;" d="M307.132,290.623c0.181,0.756,0.753,1.386,1.496,1.623c0.784,0.25,1.758,0.008,2.293-0.63
							c0.252-0.3,0.374-0.72,0.165-1.079c-0.204-0.351-0.647-0.436-0.993-0.248c-0.85,0.462-0.377,1.633,0.102,2.184
							c0.657,0.757,1.761,1.002,2.686,0.633c0.402-0.161,0.227-0.82-0.181-0.657c-0.657,0.262-1.398,0.168-1.912-0.34
							c-0.217-0.214-0.388-0.487-0.457-0.786c-0.028-0.122-0.059-0.321,0.056-0.413c0.088-0.071,0.12-0.055,0.127,0.047
							c0.017,0.254-0.424,0.496-0.613,0.576c-0.29,0.123-0.624,0.163-0.933,0.097c-0.595-0.127-1.038-0.607-1.178-1.189
							C307.687,290.015,307.03,290.196,307.132,290.623L307.132,290.623z"/>
					</g>
				</g>
				<g>
					<g>
						<path style="fill:#A3763B;" d="M310.791,287.201c0.573,1.229,2.188,1.692,3.31,0.909c0.274-0.191,0.534-0.475,0.492-0.835
							c-0.041-0.347-0.366-0.56-0.701-0.521c-0.758,0.088-0.778,1.058-0.507,1.587c0.377,0.735,1.287,0.961,2,0.595
							c0.39-0.2,0.046-0.788-0.344-0.588c-0.403,0.207-0.902,0.037-1.083-0.382c-0.044-0.102-0.068-0.221-0.061-0.332
							c0.002-0.044,0.007-0.105,0.028-0.145c0,0,0.046-0.066,0.046-0.062c0,0,0.021-0.002,0.02,0.006
							c0.002-0.013-0.113-0.075-0.074-0.083c-0.001,0-0.068,0.094-0.082,0.109c-0.039,0.039-0.083,0.069-0.129,0.099
							c-0.839,0.543-1.911,0.187-2.325-0.7c-0.078-0.167-0.318-0.209-0.466-0.122C310.742,286.835,310.713,287.034,310.791,287.201
							L310.791,287.201z"/>
					</g>
				</g>
				<g>
					<g>
						<path style="fill:#A3763B;" d="M304.931,294.958c0.196,1.004,0.858,1.915,1.783,2.366c0.93,0.454,2.262,0.54,3.13-0.11
							c0.39-0.292,0.636-0.79,0.487-1.277c-0.12-0.395-0.495-0.632-0.895-0.656c-1.025-0.061-1.443,1.037-1.056,1.862
							c0.585,1.247,2.169,1.094,3.289,1.358c0.426,0.1,0.608-0.556,0.181-0.657c-0.844-0.199-2.088-0.052-2.712-0.774
							c-0.217-0.251-0.381-0.77-0.066-1.02c0.231-0.182,0.674-0.101,0.614,0.254c-0.081,0.473-0.751,0.626-1.145,0.673
							c-0.465,0.055-0.947-0.011-1.378-0.194c-0.838-0.355-1.402-1.125-1.574-2.006
							C305.504,294.347,304.847,294.529,304.931,294.958L304.931,294.958z"/>
					</g>
				</g>
				<g>
					<g>
						<path style="fill:#A3763B;" d="M302.364,298.316c-0.161,0.523-0.003,1.093,0.348,1.502c0.174,0.203,0.412,0.355,0.668,0.435
							c0.302,0.094,0.678,0.08,0.941-0.113c0.288-0.212,0.484-0.613,0.336-0.966c-0.036-0.086-0.073-0.155-0.156-0.204
							c-0.073-0.043-0.181-0.061-0.263-0.034c-0.157,0.051-0.312,0.243-0.238,0.419c0.004,0.008,0.023,0.082,0.027,0.083
							c-0.006-0.055-0.007-0.063-0.004-0.026c0.001,0.014,0,0.029,0,0.043c-0.003,0.038-0.002,0.029,0.004-0.026
							c-0.003,0.014-0.007,0.029-0.011,0.043c-0.004,0.014-0.009,0.028-0.014,0.042c0.02-0.047,0.022-0.054,0.006-0.021
							c-0.007,0.013-0.015,0.026-0.023,0.039c-0.021,0.03-0.016,0.025,0.013-0.015c0.001,0.006-0.06,0.066-0.063,0.065
							c0.04-0.029,0.045-0.033,0.016-0.012c-0.012,0.008-0.025,0.016-0.038,0.023c-0.034,0.017-0.031,0.016,0.01-0.001
							c-0.016,0.006-0.033,0.012-0.049,0.017c-0.019,0.006-0.126,0.044-0.037,0.013c-0.029,0.01-0.074,0.005-0.105,0.004
							c-0.018,0-0.035-0.001-0.053-0.003c-0.039-0.004-0.035-0.003,0.012,0.002c-0.028,0.005-0.077-0.016-0.104-0.024
							c-0.031-0.009-0.074-0.016-0.1-0.034c0.075,0.05-0.003-0.003-0.022-0.014c-0.013-0.007-0.152-0.086-0.148-0.094
							c0.04,0.031,0.046,0.035,0.018,0.013c-0.011-0.009-0.022-0.019-0.033-0.029c-0.022-0.02-0.043-0.04-0.063-0.061
							c-0.02-0.021-0.039-0.044-0.058-0.065c-0.023-0.028-0.019-0.023,0.013,0.017c-0.009-0.012-0.017-0.024-0.026-0.036
							c-0.033-0.048-0.063-0.099-0.09-0.151c-0.007-0.013-0.013-0.026-0.019-0.04c-0.015-0.034-0.013-0.027,0.008,0.021
							c0.001-0.001-0.028-0.076-0.031-0.082c-0.018-0.056-0.033-0.112-0.044-0.17c-0.003-0.014-0.005-0.029-0.007-0.043
							c0.007,0.054,0.008,0.063,0.004,0.025c-0.002-0.029-0.005-0.058-0.005-0.087s0-0.058,0.001-0.087
							c0.001-0.015,0.002-0.029,0.003-0.044c0.004-0.038,0.003-0.029-0.004,0.025c0.012-0.02,0.011-0.063,0.016-0.086
							c0.007-0.029,0.015-0.057,0.023-0.085c0.052-0.17-0.062-0.379-0.238-0.419C302.598,298.036,302.42,298.134,302.364,298.316
							L302.364,298.316z"/>
					</g>
				</g>
				<g>
					<g>
						<path style="fill:#A3763B;" d="M309.511,302.59c0.519,0.645,1.493,0.806,2.214,0.429c0.158-0.083,0.219-0.316,0.122-0.466
							c-0.104-0.161-0.297-0.211-0.466-0.122c-0.018,0.01-0.037,0.019-0.056,0.028c-0.008,0.004-0.015,0.007-0.023,0.01
							c-0.023,0.01-0.015,0.007,0.024-0.01c-0.006-0.005-0.097,0.034-0.105,0.037c-0.036,0.011-0.072,0.02-0.108,0.028
							c-0.02,0.004-0.041,0.007-0.061,0.012c-0.047,0.01,0.065-0.006,0.017-0.002c-0.079,0.007-0.157,0.012-0.236,0.008
							c-0.037-0.002-0.074-0.006-0.112-0.009c-0.043-0.004,0.069,0.014,0.004,0c-0.02-0.004-0.041-0.008-0.061-0.012
							c-0.073-0.016-0.145-0.037-0.215-0.063c-0.066-0.025-0.001-0.011,0.001,0.001c-0.001-0.004-0.04-0.018-0.045-0.021
							c-0.037-0.018-0.074-0.038-0.109-0.059c-0.032-0.019-0.063-0.039-0.094-0.061c-0.061-0.043,0.002-0.003,0,0.001
							c0.001-0.001-0.035-0.029-0.038-0.032c-0.063-0.054-0.12-0.115-0.172-0.179c-0.112-0.139-0.367-0.126-0.482,0
							C309.375,302.257,309.392,302.441,309.511,302.59L309.511,302.59z"/>
					</g>
				</g>
			</g>
			<path style="fill:#305949;" d="M299.306,322.323c0,0,14.937-11.969,16.26-12.875s6.465-6.173,6.465-6.173
				s-6.917-0.281-9.054,1.026c-2.137,1.307-8.321,7.948-8.321,7.948l-4.353,5.738c0,0,8.811-15.979,8.611-16.386
				c-0.201-0.407-3.177-1.519-3.177-1.519s-5.355,8.033-6.136,11.261c-0.781,3.227-1.728,5.819-1.728,5.819
				s2.94-18.141,2.714-21.368c-0.226-3.227-1.792-6.198-1.792-6.198s-3.52,9.171-3.91,13.713c-0.39,4.542,1.123,13.457,1.123,13.457
				L299.306,322.323z"/>
		</g>
		<g>
			<g>
				<path style="fill:#DEAB68;" d="M271.103,323.681c-0.124-0.251-4.782-7.398-4.284-16.564c0.498-9.166,1.692-19.975,4.734-20.038
					c3.042-0.063,10.482,26.753,8.367,33.451C277.806,327.228,273.576,328.689,271.103,323.681z"/>
				<g>
					<g>
						<path style="fill:#A3763B;" d="M268.09,299.991c0.592,0.581,1.493,0.828,2.288,0.549c0.75-0.263,1.385-0.959,1.47-1.766
							c0.043-0.403-0.137-0.858-0.555-0.987c-0.397-0.122-0.79,0.124-0.923,0.506c-0.302,0.868,0.753,1.542,1.462,1.698
							c0.971,0.214,1.924-0.194,2.502-0.984c0.259-0.354-0.332-0.695-0.588-0.344c-0.374,0.51-1.019,0.785-1.645,0.688
							c-0.306-0.047-0.61-0.179-0.845-0.381c-0.102-0.088-0.246-0.223-0.254-0.369c-0.007-0.113,0.05-0.209,0.138-0.112
							c0.167,0.184-0.094,0.647-0.202,0.806c-0.165,0.243-0.402,0.442-0.672,0.56c-0.576,0.253-1.255,0.084-1.694-0.347
							C268.258,299.202,267.776,299.684,268.09,299.991L268.09,299.991z"/>
					</g>
				</g>
				<g>
					<g>
						<path style="fill:#A3763B;" d="M269.381,295.154c1.177,0.762,2.79,0.267,3.326-1.03c0.115-0.278,0.158-0.612-0.018-0.875
							c-0.198-0.295-0.598-0.327-0.874-0.127c-0.635,0.461-0.131,1.343,0.398,1.642c0.703,0.398,1.582,0.136,1.991-0.548
							c0.226-0.377-0.363-0.72-0.588-0.344c-0.233,0.39-0.729,0.526-1.115,0.27c-0.088-0.058-0.162-0.133-0.22-0.221
							c-0.027-0.041-0.051-0.083-0.064-0.131c-0.007-0.024-0.002-0.094-0.01-0.111c0,0-0.052-0.045-0.078-0.026
							c-0.014,0.011-0.04,0.195-0.052,0.226c-0.382,0.934-1.533,1.216-2.351,0.686C269.355,294.326,269.013,294.916,269.381,295.154
							L269.381,295.154z"/>
					</g>
				</g>
				<g>
					<g>
						<path style="fill:#A3763B;" d="M268.517,304.835c0.726,0.773,1.787,1.192,2.847,1.065c0.999-0.12,2.1-0.738,2.508-1.699
							c0.354-0.834-0.277-1.934-1.254-1.51c-0.931,0.404-0.844,1.564-0.106,2.114c1.16,0.864,2.479-0.136,3.602-0.518
							c0.413-0.14,0.236-0.799-0.181-0.657c-0.825,0.28-1.791,1.05-2.704,0.784c-0.326-0.095-0.763-0.466-0.601-0.852
							c0.148-0.355,0.633-0.378,0.681,0.045c0.05,0.443-0.415,0.87-0.735,1.108c-0.346,0.256-0.76,0.431-1.186,0.499
							c-0.892,0.143-1.779-0.211-2.389-0.86C268.698,304.033,268.217,304.515,268.517,304.835L268.517,304.835z"/>
					</g>
				</g>
				<g>
					<g>
						<path style="fill:#A3763B;" d="M268.124,309.046c0.145,0.539,0.599,0.97,1.137,1.11c0.58,0.151,1.339-0.064,1.528-0.694
							c0.107-0.355-0.026-0.725-0.324-0.938c-0.146-0.104-0.385-0.03-0.466,0.122c-0.093,0.176-0.033,0.355,0.122,0.466
							c-0.094-0.067,0.039,0.046-0.005-0.003c-0.033-0.036,0.019,0.038,0.026,0.049c-0.025-0.048-0.014-0.026-0.001,0.013
							c0.023,0.07,0.003-0.065,0.002,0.01c0,0.01-0.004,0.111,0.001,0.057c0.005-0.054-0.013,0.044-0.016,0.055
							c-0.016,0.064,0.033-0.047-0.006,0.012c-0.007,0.01-0.061,0.08-0.013,0.027c-0.019,0.022-0.04,0.042-0.06,0.063
							c-0.029,0.025-0.029,0.026,0.001,0.002c-0.012,0.009-0.024,0.017-0.036,0.025c-0.029,0.019-0.06,0.034-0.09,0.05
							c-0.062,0.033,0.045-0.009-0.029,0.01c-0.029,0.008-0.057,0.018-0.086,0.025c-0.011,0.003-0.119,0.02-0.069,0.015
							c0.05-0.005-0.054,0.002-0.064,0.003c-0.027,0.001-0.055,0-0.082-0.001c-0.027-0.001-0.054-0.004-0.081-0.007
							c0.085,0.009,0.003-0.001-0.017-0.006c-0.063-0.013-0.123-0.033-0.183-0.054c-0.083-0.03,0.06,0.032-0.019-0.009
							c-0.024-0.013-0.049-0.025-0.073-0.038c-0.028-0.016-0.055-0.032-0.082-0.05c-0.014-0.009-0.093-0.07-0.031-0.019
							c-0.042-0.035-0.083-0.071-0.121-0.111c-0.019-0.02-0.036-0.041-0.055-0.061c-0.024-0.03-0.023-0.028,0.003,0.005
							c-0.011-0.015-0.021-0.029-0.031-0.045c-0.031-0.046-0.056-0.093-0.081-0.142c-0.036-0.069,0.013,0.049-0.008-0.019
							c-0.011-0.035-0.023-0.069-0.033-0.105c-0.046-0.172-0.245-0.294-0.419-0.238
							C268.185,308.684,268.074,308.861,268.124,309.046L268.124,309.046z"/>
					</g>
				</g>
				<g>
					<g>
						<path style="fill:#A3763B;" d="M276.439,308.893c0.776,0.271,1.699-0.088,2.112-0.791c0.09-0.154,0.04-0.38-0.122-0.466
							c-0.164-0.086-0.37-0.042-0.466,0.122c-0.02,0.034-0.042,0.067-0.064,0.1c-0.034,0.053,0.03-0.034,0.004-0.003
							c-0.013,0.015-0.025,0.03-0.038,0.045c-0.026,0.03-0.053,0.058-0.082,0.085c-0.021,0.02-0.079,0.053-0.089,0.078
							c0.005-0.013,0.052-0.038,0.013-0.01c-0.016,0.012-0.032,0.023-0.048,0.034c-0.033,0.022-0.066,0.043-0.101,0.062
							c-0.034,0.019-0.069,0.037-0.105,0.054c-0.03,0.014-0.043,0.039,0.005-0.001c-0.013,0.011-0.04,0.016-0.055,0.021
							c-0.071,0.025-0.143,0.046-0.217,0.06c-0.019,0.004-0.039,0.007-0.058,0.01c-0.043,0.008,0.073-0.006,0.008-0.001
							c-0.039,0.003-0.078,0.007-0.118,0.008c-0.039,0.001-0.079,0-0.118-0.002c-0.016-0.001-0.031-0.003-0.047-0.004
							c-0.081-0.006,0.077,0.015-0.003,0c-0.078-0.014-0.154-0.033-0.229-0.059c-0.168-0.059-0.38,0.067-0.419,0.238
							C276.158,308.664,276.258,308.83,276.439,308.893L276.439,308.893z"/>
					</g>
				</g>
			</g>
			<path style="fill:#305949;" d="M278.237,331.04c0,0,6.339-18.06,6.983-19.529c0.644-1.469,2.219-8.659,2.219-8.659
				s-6.017,3.422-7.139,5.662c-1.122,2.24-2.854,11.147-2.854,11.147l-0.657,7.172c0,0-0.98-18.221-1.366-18.46
				c-0.386-0.239-3.499,0.393-3.499,0.393s-0.292,9.65,0.754,12.802s1.613,5.852,1.613,5.852s-7.107-16.949-9.006-19.567
				c-1.899-2.618-4.8-4.31-4.8-4.31s1.867,9.644,3.94,13.705c2.073,4.061,8.075,10.824,8.075,10.824L278.237,331.04z"/>
		</g>
		<g>
			<g>
				<path style="fill:#DEAB68;" d="M244.148,326.967c-0.124-0.251-4.782-7.398-4.284-16.564c0.498-9.166,1.692-19.975,4.735-20.038
					c3.042-0.063,10.482,26.753,8.367,33.451C250.852,330.515,246.622,331.975,244.148,326.967z"/>
				<g>
					<g>
						<path style="fill:#A3763B;" d="M241.135,303.277c0.592,0.581,1.493,0.828,2.288,0.549c0.749-0.263,1.385-0.96,1.47-1.766
							c0.043-0.403-0.137-0.858-0.555-0.987c-0.398-0.123-0.79,0.124-0.923,0.506c-0.303,0.867,0.753,1.542,1.462,1.698
							c0.971,0.214,1.923-0.194,2.502-0.984c0.259-0.354-0.332-0.695-0.588-0.344c-0.374,0.51-1.019,0.785-1.645,0.688
							c-0.306-0.047-0.61-0.179-0.845-0.381c-0.102-0.088-0.246-0.223-0.254-0.369c-0.007-0.113,0.05-0.209,0.138-0.112
							c0.167,0.184-0.094,0.647-0.202,0.806c-0.165,0.243-0.402,0.442-0.672,0.56c-0.576,0.253-1.255,0.084-1.694-0.347
							C241.304,302.488,240.821,302.97,241.135,303.277L241.135,303.277z"/>
					</g>
				</g>
				<g>
					<g>
						<path style="fill:#A3763B;" d="M242.426,298.44c1.177,0.762,2.79,0.267,3.326-1.03c0.115-0.278,0.158-0.612-0.018-0.875
							c-0.198-0.295-0.598-0.327-0.874-0.127c-0.635,0.461-0.131,1.343,0.398,1.642c0.703,0.398,1.582,0.136,1.991-0.548
							c0.226-0.377-0.363-0.72-0.588-0.344c-0.233,0.39-0.729,0.526-1.115,0.27c-0.088-0.058-0.162-0.133-0.22-0.221
							c-0.027-0.041-0.051-0.084-0.064-0.131c-0.007-0.024-0.002-0.094-0.01-0.111c0,0-0.052-0.045-0.078-0.026
							c-0.014,0.011-0.04,0.195-0.052,0.226c-0.382,0.934-1.533,1.216-2.351,0.686C242.401,297.613,242.059,298.202,242.426,298.44
							L242.426,298.44z"/>
					</g>
				</g>
				<g>
					<g>
						<path style="fill:#A3763B;" d="M241.562,308.121c0.726,0.773,1.787,1.192,2.847,1.065c0.999-0.119,2.1-0.738,2.508-1.699
							c0.354-0.834-0.277-1.934-1.254-1.51c-0.931,0.404-0.844,1.565-0.106,2.114c1.16,0.864,2.479-0.136,3.602-0.518
							c0.413-0.14,0.236-0.799-0.181-0.657c-0.825,0.28-1.791,1.05-2.704,0.784c-0.326-0.095-0.762-0.466-0.601-0.852
							c0.148-0.354,0.633-0.378,0.682,0.045c0.05,0.443-0.415,0.87-0.735,1.108c-0.346,0.256-0.76,0.431-1.186,0.499
							c-0.892,0.143-1.779-0.211-2.389-0.86C241.743,307.319,241.262,307.801,241.562,308.121L241.562,308.121z"/>
					</g>
				</g>
				<g>
					<g>
						<path style="fill:#A3763B;" d="M241.169,312.332c0.145,0.539,0.599,0.97,1.137,1.11c0.58,0.151,1.339-0.064,1.528-0.694
							c0.107-0.355-0.026-0.725-0.324-0.938c-0.145-0.104-0.386-0.03-0.466,0.122c-0.093,0.176-0.033,0.355,0.122,0.466
							c-0.094-0.067,0.039,0.046-0.005-0.003c-0.033-0.036,0.02,0.038,0.026,0.049c-0.025-0.048-0.014-0.026-0.001,0.013
							c0.023,0.07,0.003-0.065,0.002,0.01c0,0.01-0.004,0.112,0.001,0.057c0.006-0.054-0.013,0.044-0.016,0.055
							c-0.015,0.064,0.033-0.047-0.006,0.012c-0.006,0.01-0.061,0.08-0.013,0.027c-0.019,0.022-0.04,0.042-0.06,0.063
							c-0.029,0.025-0.029,0.026,0.001,0.002c-0.012,0.009-0.024,0.017-0.036,0.025c-0.029,0.019-0.06,0.034-0.09,0.05
							c-0.062,0.033,0.045-0.009-0.029,0.01c-0.029,0.008-0.057,0.018-0.086,0.025c-0.011,0.003-0.119,0.02-0.069,0.015
							c0.05-0.005-0.054,0.003-0.064,0.003c-0.027,0.001-0.055,0.001-0.082-0.001c-0.027-0.001-0.054-0.004-0.081-0.007
							c0.085,0.009,0.003-0.001-0.017-0.006c-0.063-0.013-0.123-0.033-0.183-0.054c-0.083-0.03,0.06,0.032-0.019-0.009
							c-0.024-0.013-0.049-0.025-0.073-0.038c-0.028-0.016-0.055-0.032-0.082-0.05c-0.014-0.009-0.093-0.07-0.031-0.019
							c-0.042-0.035-0.083-0.071-0.121-0.111c-0.019-0.02-0.036-0.041-0.055-0.061c-0.024-0.03-0.023-0.028,0.003,0.005
							c-0.011-0.015-0.021-0.03-0.031-0.045c-0.03-0.045-0.056-0.093-0.081-0.142c-0.036-0.069,0.013,0.049-0.008-0.019
							c-0.011-0.035-0.023-0.069-0.032-0.105c-0.046-0.172-0.245-0.294-0.419-0.238C241.23,311.97,241.119,312.147,241.169,312.332
							L241.169,312.332z"/>
					</g>
				</g>
				<g>
					<g>
						<path style="fill:#A3763B;" d="M249.484,312.179c0.776,0.271,1.699-0.088,2.112-0.791c0.09-0.154,0.04-0.38-0.122-0.466
							c-0.163-0.086-0.37-0.042-0.466,0.122c-0.02,0.034-0.042,0.066-0.064,0.1c-0.034,0.053,0.03-0.034,0.004-0.003
							c-0.013,0.015-0.025,0.03-0.038,0.045c-0.026,0.03-0.053,0.058-0.082,0.085c-0.021,0.02-0.079,0.053-0.089,0.078
							c0.005-0.013,0.052-0.038,0.013-0.01c-0.016,0.012-0.032,0.023-0.049,0.034c-0.033,0.022-0.066,0.043-0.101,0.062
							c-0.034,0.02-0.07,0.038-0.105,0.054c-0.03,0.014-0.043,0.039,0.005-0.001c-0.013,0.011-0.04,0.015-0.055,0.021
							c-0.071,0.025-0.143,0.046-0.217,0.06c-0.019,0.004-0.039,0.007-0.058,0.01c-0.043,0.009,0.073-0.006,0.008-0.001
							c-0.039,0.003-0.078,0.007-0.118,0.008c-0.039,0.001-0.079,0-0.118-0.002c-0.016-0.001-0.031-0.002-0.047-0.004
							c-0.081-0.006,0.077,0.015-0.003,0c-0.078-0.014-0.154-0.033-0.229-0.059c-0.168-0.059-0.38,0.067-0.419,0.238
							C249.203,311.95,249.304,312.116,249.484,312.179L249.484,312.179z"/>
					</g>
				</g>
			</g>
			<path style="fill:#305949;" d="M251.282,334.326c0,0,6.339-18.06,6.983-19.529c0.644-1.469,2.219-8.659,2.219-8.659
				s-6.018,3.422-7.139,5.662c-1.122,2.24-2.854,11.147-2.854,11.147l-0.657,7.172c0,0-0.98-18.221-1.366-18.46
				c-0.385-0.239-3.499,0.393-3.499,0.393s-0.292,9.65,0.753,12.802c1.046,3.152,1.613,5.852,1.613,5.852
				s-7.107-16.948-9.006-19.567c-1.899-2.619-4.8-4.31-4.8-4.31s1.867,9.644,3.94,13.705c2.073,4.061,8.075,10.824,8.075,10.824
				L251.282,334.326z"/>
		</g>
		<g>
			<g>
				<path style="fill:#DEAB68;" d="M377.431,193.962c-0.113-0.184-4.196-5.35-4.459-12.432c-0.262-7.081-0.105-15.474,2.229-15.736
					c2.334-0.262,9.94,19.828,8.786,25.126S379.685,197.638,377.431,193.962z"/>
				<g>
					<g>
						<path style="fill:#A3763B;" d="M373.43,175.948c0.504,0.412,1.19,0.546,1.797,0.283c0.567-0.245,1.026-0.846,1.025-1.478
							c0-0.315-0.175-0.638-0.502-0.711c-0.299-0.067-0.574,0.143-0.66,0.423c-0.213,0.694,0.654,1.151,1.211,1.23
							c0.752,0.107,1.478-0.259,1.867-0.906c0.175-0.291-0.28-0.556-0.454-0.266c-0.255,0.424-0.707,0.686-1.205,0.666
							c-0.25-0.01-0.504-0.093-0.707-0.239c-0.082-0.059-0.197-0.153-0.21-0.26c-0.006-0.052,0.004-0.139,0.066-0.126
							c0.194,0.039-0.01,0.553-0.058,0.644c-0.108,0.202-0.269,0.372-0.468,0.486c-0.414,0.239-0.961,0.183-1.329-0.118
							C373.542,175.364,373.168,175.734,373.43,175.948L373.43,175.948z"/>
					</g>
				</g>
				<g>
					<g>
						<path style="fill:#A3763B;" d="M374.079,172.143c0.966,0.507,2.192,0.036,2.511-1.025c0.066-0.221,0.072-0.5-0.097-0.679
							c-0.182-0.193-0.48-0.188-0.673-0.012c-0.458,0.418,0.027,1.058,0.462,1.241c0.546,0.23,1.192-0.016,1.449-0.552
							c0.145-0.304-0.308-0.571-0.454-0.266c-0.146,0.305-0.48,0.473-0.804,0.33c-0.14-0.062-0.267-0.179-0.305-0.33
							c-0.003-0.012,0-0.039,0.004-0.034c-0.003-0.003-0.091-0.027-0.073-0.036c0.014-0.008-0.009,0.172-0.01,0.176
							c-0.2,0.745-1.077,1.085-1.745,0.734C374.045,171.532,373.779,171.986,374.079,172.143L374.079,172.143z"/>
					</g>
				</g>
				<g>
					<g>
						<path style="fill:#A3763B;" d="M374.1,179.641c0.622,0.552,1.453,0.802,2.274,0.637c0.748-0.151,1.536-0.699,1.801-1.438
							c0.234-0.654-0.288-1.52-1.036-1.133c-0.714,0.37-0.562,1.283,0.06,1.655c0.959,0.573,1.922-0.307,2.76-0.68
							c0.309-0.137,0.041-0.591-0.266-0.454c-0.609,0.271-1.319,0.953-2.037,0.762c-0.254-0.068-0.59-0.347-0.451-0.642
							c0.136-0.288,0.486-0.249,0.515,0.076c0.03,0.332-0.28,0.664-0.509,0.867c-0.243,0.215-0.54,0.369-0.853,0.451
							c-0.664,0.173-1.377-0.021-1.887-0.473C374.219,179.045,373.846,179.416,374.1,179.641L374.1,179.641z"/>
					</g>
				</g>
				<g>
					<g>
						<path style="fill:#A3763B;" d="M374.104,182.899c0.149,0.403,0.507,0.719,0.936,0.791c0.445,0.075,1.019-0.105,1.14-0.595
							c0.068-0.275-0.034-0.581-0.285-0.727c-0.119-0.07-0.293-0.031-0.36,0.094c-0.067,0.126-0.033,0.286,0.094,0.36
							c0.025,0.016,0.023,0.013-0.004-0.007c0.008,0.006,0.015,0.013,0.022,0.02c0.013,0.014,0.01,0.009-0.009-0.016
							c0.008,0.011,0.015,0.022,0.021,0.033c0.029,0.04-0.006-0.041,0.005,0.011c0.005,0.02,0.01,0.039,0.014,0.059
							c-0.012-0.066-0.005-0.005-0.004,0.012c-0.002,0.03-0.001,0.027,0.003-0.009c-0.002,0.01-0.004,0.02-0.006,0.03
							c-0.005,0.016-0.035,0.075-0.006,0.025c-0.011,0.02-0.023,0.039-0.035,0.058c0.027-0.044-0.008,0.007-0.016,0.016
							c-0.016,0.016-0.033,0.031-0.05,0.045c0.045-0.035-0.021,0.011-0.031,0.017c-0.023,0.013-0.047,0.026-0.072,0.036
							c0.043-0.018-0.007,0.001-0.023,0.006c-0.021,0.007-0.043,0.012-0.065,0.017c-0.026,0.006-0.059,0.01-0.013,0.005
							c-0.024,0.003-0.049,0.005-0.073,0.006c-0.046,0.001-0.091-0.001-0.136-0.006c0.046,0.005,0.013,0.001-0.013-0.004
							c-0.021-0.004-0.041-0.009-0.061-0.015c-0.02-0.006-0.04-0.012-0.06-0.019c-0.013-0.005-0.027-0.01-0.04-0.015
							c0.027,0.012,0.032,0.014,0.014,0.006c-0.041-0.021-0.082-0.041-0.121-0.066c-0.018-0.011-0.035-0.024-0.052-0.036
							c0.049,0.033-0.002-0.002-0.013-0.011c-0.038-0.033-0.07-0.068-0.104-0.105c-0.037-0.04,0.022,0.036-0.01-0.013
							c-0.012-0.018-0.023-0.035-0.034-0.053c-0.011-0.018-0.021-0.036-0.031-0.055c-0.006-0.012-0.012-0.025-0.018-0.038
							c0.013,0.03,0.014,0.032,0.003,0.004c-0.047-0.129-0.18-0.23-0.324-0.184C374.161,182.616,374.053,182.761,374.104,182.899
							L374.104,182.899z"/>
					</g>
				</g>
				<g>
					<g>
						<path style="fill:#A3763B;" d="M380.469,182.214c0.609,0.152,1.31-0.154,1.58-0.73c0.058-0.124,0.039-0.289-0.094-0.36
							c-0.116-0.062-0.297-0.039-0.36,0.094c-0.025,0.053-0.054,0.105-0.087,0.153c-0.005,0.007-0.01,0.014-0.015,0.021
							c-0.012,0.016-0.007,0.01,0.014-0.018c-0.003,0.011-0.021,0.026-0.028,0.034c-0.019,0.022-0.039,0.044-0.06,0.064
							c-0.021,0.021-0.043,0.04-0.065,0.059c-0.029,0.025-0.018,0.009,0.005-0.003c-0.012,0.006-0.024,0.018-0.036,0.026
							c-0.051,0.035-0.104,0.067-0.16,0.094c-0.009,0.004-0.05,0.031-0.017,0.009c0.031-0.021-0.008,0.003-0.018,0.007
							c-0.027,0.01-0.055,0.02-0.084,0.028c-0.028,0.008-0.057,0.016-0.086,0.022c-0.014,0.003-0.029,0.006-0.043,0.008
							c-0.041,0.007-0.017-0.001,0.009,0c-0.061-0.002-0.123,0.009-0.185,0.006c-0.015-0.001-0.029-0.002-0.044-0.003
							c-0.05-0.004,0.042,0.008,0.009,0.002c-0.032-0.006-0.064-0.012-0.095-0.02c-0.133-0.033-0.292,0.043-0.324,0.184
							C380.254,182.027,380.326,182.178,380.469,182.214L380.469,182.214z"/>
					</g>
				</g>
			</g>
			<path style="fill:#305949;" d="M383.434,199.117c0,0,3.602-14.329,3.993-15.504c0.391-1.175,1.096-6.812,1.096-6.812
				s-4.385,3.054-5.09,4.855c-0.705,1.801-1.409,8.77-1.409,8.77v5.56c0,0-2.036-13.938-2.349-14.095s-2.662,0.548-2.662,0.548
				s0.455,7.439,1.48,9.788c1.026,2.349,1.652,4.385,1.652,4.385s-6.656-12.528-8.3-14.408c-1.644-1.879-3.993-2.976-3.993-2.976
				s2.114,7.282,3.993,10.258s6.969,7.752,6.969,7.752L383.434,199.117z"/>
		</g>
		<g>
			<g>
				<path style="fill:#DEAB68;" d="M375.61,257.157c-0.198-0.087-6.498-2.002-10.752-7.67c-4.253-5.668-8.91-12.652-7.142-14.198
					c1.768-1.546,19.472,10.62,21.545,15.631C381.334,255.929,379.557,258.891,375.61,257.157z"/>
				<g>
					<g>
						<path style="fill:#A3763B;" d="M362.098,244.643c0.624,0.052,1.252-0.258,1.588-0.787c0.329-0.518,0.365-1.282,0.009-1.798
							c-0.184-0.266-0.522-0.446-0.839-0.299c-0.288,0.134-0.381,0.47-0.27,0.755c0.251,0.643,1.161,0.526,1.657,0.293
							c0.681-0.32,1.093-1.055,1.041-1.801c-0.023-0.336-0.55-0.338-0.526,0c0.037,0.535-0.211,1.04-0.687,1.3
							c-0.214,0.117-0.474,0.183-0.718,0.158c-0.088-0.009-0.214-0.032-0.266-0.115c-0.014-0.022-0.026-0.053-0.026-0.08
							c0-0.046,0.002-0.033,0.018-0.037c0.197-0.05,0.305,0.386,0.326,0.511c0.04,0.237,0.006,0.493-0.097,0.711
							c-0.218,0.462-0.712,0.705-1.21,0.663C361.76,244.089,361.762,244.615,362.098,244.643L362.098,244.643z"/>
					</g>
				</g>
				<g>
					<g>
						<path style="fill:#A3763B;" d="M360.393,241.145c0.505-0.06,0.953-0.305,1.257-0.717c0.311-0.422,0.405-1.002,0.258-1.504
							c-0.072-0.243-0.222-0.5-0.49-0.558c-0.264-0.057-0.507,0.133-0.557,0.39c-0.119,0.607,0.639,0.837,1.101,0.741
							c0.611-0.127,0.954-0.736,0.855-1.328c-0.023-0.14-0.197-0.219-0.324-0.184c-0.149,0.041-0.207,0.183-0.184,0.324
							c0.056,0.335-0.201,0.657-0.535,0.688c-0.133,0.012-0.293-0.009-0.389-0.111c-0.023-0.017-0.028-0.028-0.014-0.034
							c0.004,0.004,0.005,0.008,0.003,0.013c-0.003,0-0.081,0.039-0.06,0.017c-0.005,0.005,0.046,0.074,0.056,0.097
							c0.155,0.339,0.083,0.78-0.109,1.087c-0.186,0.297-0.521,0.513-0.87,0.554c-0.141,0.017-0.263,0.109-0.263,0.263
							C360.13,241.011,360.251,241.162,360.393,241.145L360.393,241.145z"/>
					</g>
				</g>
				<g>
					<g>
						<path style="fill:#A3763B;" d="M364.753,247.296c0.801,0.1,1.645-0.194,2.196-0.789c0.525-0.566,0.88-1.495,0.63-2.261
							c-0.123-0.377-0.459-0.699-0.876-0.68c-0.331,0.015-0.585,0.274-0.675,0.58c-0.229,0.773,0.569,1.267,1.254,1.122
							c0.986-0.209,1.228-1.347,1.679-2.083c0.177-0.289-0.277-0.554-0.454-0.266c-0.309,0.503-0.457,1.129-0.879,1.557
							c-0.176,0.179-0.4,0.308-0.658,0.296c-0.187-0.009-0.421-0.103-0.45-0.313c-0.018-0.126,0.036-0.324,0.176-0.363
							c0.285-0.08,0.412,0.345,0.426,0.543c0.039,0.563-0.195,1.143-0.587,1.542c-0.465,0.474-1.129,0.671-1.781,0.589
							c-0.142-0.018-0.262,0.134-0.263,0.263C364.489,247.189,364.613,247.278,364.753,247.296L364.753,247.296z"/>
					</g>
				</g>
				<g>
					<g>
						<path style="fill:#A3763B;" d="M366.604,249.991c0.346,0.243,0.808,0.253,1.187,0.089c0.4-0.173,0.754-0.649,0.607-1.101
							c-0.088-0.269-0.345-0.495-0.64-0.472c-0.137,0.01-0.27,0.113-0.263,0.263c0.006,0.133,0.116,0.274,0.263,0.263
							c0.013-0.001,0.027-0.002,0.04-0.002c0.03,0.002,0.026,0.001-0.011-0.002c0.001,0.017,0.086,0.004,0.012-0.001
							c0.017,0.001,0.079,0.059,0.03,0.014c0.015,0.014,0.029,0.028,0.044,0.043c-0.041-0.041-0.002-0.002,0.007,0.013
							c0.007,0.012,0.013,0.024,0.019,0.036c-0.013-0.032-0.014-0.033-0.005-0.006c0.003,0.014,0.008,0.07,0.006,0.014
							c0.001,0.03,0.002,0.059,0,0.09c0.003-0.047,0-0.004-0.006,0.019c-0.002,0.008-0.026,0.083-0.016,0.055
							c0.01-0.028-0.022,0.043-0.027,0.051c-0.011,0.02-0.024,0.039-0.037,0.058c-0.018,0.024-0.018,0.025,0,0.002
							c-0.009,0.011-0.018,0.021-0.028,0.032c-0.013,0.014-0.027,0.028-0.041,0.041c-0.005,0.005-0.061,0.056-0.032,0.03
							c0.029-0.026-0.029,0.02-0.036,0.025c-0.038,0.025-0.077,0.045-0.118,0.065c-0.057,0.029,0.053-0.017-0.008,0.003
							c-0.021,0.007-0.043,0.015-0.064,0.021c-0.029,0.009-0.093,0.036-0.123,0.028c0.038-0.005,0.042-0.005,0.012-0.002
							c-0.013,0.001-0.026,0.003-0.039,0.003c-0.019,0.001-0.039,0.002-0.058,0.002c-0.026,0-0.052,0-0.077-0.002
							c-0.018-0.001-0.076,0.002-0.007,0.001c-0.041,0.001-0.092-0.017-0.132-0.029c-0.018-0.006-0.036-0.012-0.055-0.018
							c-0.027-0.011-0.024-0.009,0.009,0.005c-0.012-0.005-0.023-0.011-0.035-0.016c-0.04-0.02-0.079-0.044-0.116-0.07
							c-0.113-0.079-0.297-0.024-0.36,0.094C366.438,249.766,366.483,249.906,366.604,249.991L366.604,249.991z"/>
					</g>
				</g>
				<g>
					<g>
						<path style="fill:#A3763B;" d="M371.389,245.779c0.629-0.238,1.003-0.894,0.89-1.556c-0.023-0.136-0.198-0.224-0.323-0.184
							c-0.147,0.048-0.208,0.178-0.184,0.324c0.01,0.061-0.005-0.063,0-0.001c0.001,0.012,0.002,0.023,0.003,0.034
							c0.002,0.031,0.003,0.063,0.002,0.094c-0.001,0.029-0.002,0.057-0.005,0.086c-0.004,0.043-0.006,0.012,0.002-0.01
							c-0.005,0.015-0.006,0.036-0.009,0.051c-0.012,0.056-0.027,0.112-0.047,0.166c-0.003,0.009-0.016,0.057-0.006,0.017
							c0.009-0.039-0.003,0.006-0.008,0.016c-0.014,0.029-0.028,0.057-0.044,0.084c-0.014,0.025-0.03,0.049-0.046,0.073
							c-0.008,0.012-0.017,0.024-0.025,0.035c-0.033,0.048,0.026-0.031,0.004-0.005c-0.04,0.046-0.079,0.091-0.124,0.131
							c-0.011,0.01-0.021,0.019-0.033,0.028c-0.031,0.026-0.016,0.006,0.006-0.004c-0.024,0.011-0.048,0.034-0.071,0.049
							c-0.027,0.017-0.054,0.032-0.082,0.046c-0.012,0.006-0.029,0.011-0.039,0.019c0.01-0.004,0.021-0.009,0.031-0.013
							c-0.011,0.004-0.021,0.009-0.032,0.013c-0.128,0.048-0.23,0.18-0.184,0.324C371.106,245.72,371.251,245.831,371.389,245.779
							L371.389,245.779z"/>
					</g>
				</g>
			</g>
			<path style="fill:#305949;" d="M383.48,257.969c0,0-5.212-13.825-5.56-15.014c-0.348-1.188-2.984-6.221-2.984-6.221
				s-1.861,5.009-1.413,6.89s3.843,8.008,3.843,8.008l3.17,4.567c0,0-9.62-10.289-9.967-10.239c-0.347,0.05-1.875,1.968-1.875,1.968
				s4.615,5.852,6.797,7.197c2.182,1.345,3.857,2.66,3.857,2.66s-12.612-6.497-15.034-7.103c-2.422-0.606-4.977-0.167-4.977-0.167
				s5.889,4.777,9.13,6.149c3.241,1.373,10.145,2.394,10.145,2.394L383.48,257.969z"/>
		</g>
		<path style="fill:#305949;" d="M348.055,332.639c0,0-0.917-10.531,1.274-12.573c2.191-2.042,9.283-8.036,10.01-7.119
			c0.727,0.917,8.827,1.095,8.827,1.095s-7.513-6.403-9.478-5.255c-1.965,1.148-7.509,4.981-8.16,5.803
			c-0.651,0.822-2.472,3.36-2.472,3.36s-2.861-42.563-2.574-44.73c0.288-2.167,8.442-19.222,13.857-22.704
			c5.415-3.483,12.702-8.225,12.702-8.225s-15.867,1.446-18.605,3.193c-2.738,1.747-10.131,24.2-10.131,24.2s0-12.596,0-14.512
			s10.385-27.108,11.216-28.477c0.832-1.369,10.015-7.582,10.015-7.582s-9.287,4.1-11.648,4.296
			c-2.361,0.196-11.63,16.577-11.429,20.884c0.202,4.307-0.003,9.412-0.003,9.412s-4.176-15.843-3.628-18.552
			c0.548-2.709,10.227-25.776,10.227-25.776s-11.773,10.746-13.19,13.758c-1.417,3.012-2.513,9.31-1.691,10.679
			c0.822,1.369,3.012,9.239,3.012,9.239s-17.798-5.413-23.001-3.492c-5.202,1.92-13.965,14.145-13.965,14.145
			s11.774-5.937,15.06-7.301s6.024-1.763,8.215-2.111c2.191-0.348,15.06,2.111,15.06,2.111l1.917,15.308
			c0,0-13.691-4.789-19.441-2.653c-5.75,2.136-11.227,9.529-11.227,9.529l-1.369,7.667c0,0,8.346-9.368,9.906-10.186
			c1.56-0.817,9.437-3.195,9.808-3.344c0.372-0.149,7.431,0.594,7.431,0.594l6.613,1.412c0,0,0.669,1.635,0.892,2.006
			c0.223,0.372,0.446,8.322,0.446,8.322s-5.053-2.303-9.288-2.155c-4.235,0.149-10.18,3.344-10.849,4.087
			c-0.669,0.743-3.715,5.87-4.087,6.539c-0.372,0.669,13.152-5.201,14.861-5.796c1.709-0.595,6.613-0.892,6.613-0.892l3.27,1.115
			l2.43,33.437c0,0-9.011-8.281-11.788-8.145s-10.183,8.286-10.646,8.145c-0.463-0.14,12.052-1.066,12.583-1.066
			c0.531,0,6.857,1.066,6.857,1.066l3.857,5.105l0.309,17.126L348.055,332.639z"/>
		<path style="fill:#305949;" d="M290.613,328.238c0,0-3.545-9.04-3.979-16.842s0.805-26.205,0.805-26.205s2.089,8.964,3.175,12.983
			c1.085,4.019,4.62,19.298,4.209,22.058s0,5.354,0,5.354s1.365-14.049,1.989-19.658c0.145-1.305,0.251-2.154,0.289-2.261
			c0.205-0.57,2.119,16.565,2.119,16.565s3.162-4.197,8.04-6.958c4.878-2.761,10.465-5.727,10.465-5.727s1.144,4.232-4.935,8.754
			c-6.079,4.522-10.613,8.501-10.613,8.501s17.196-12.047,19.004-12.173c1.809-0.126,3.617,1.321,2.894,2.225
			c-0.723,0.904-5.322,7.453-6.097,8.429c-0.776,0.976-5.372,5.48-7.324,6.936C308.7,331.674,290.613,328.238,290.613,328.238z"/>
		<path style="fill:none;stroke:#486E67;stroke-width:0.9086;stroke-miterlimit:10;" d="M232.121,213.958
			c0,0,3.086,31.811,6.181,45.101c3.095,13.29-1.759,33.171,0,40.696s1.059,13.165,1.059,13.165"/>
		<path style="fill:none;stroke:#486E67;stroke-width:0.9086;stroke-miterlimit:10;" d="M238.502,285.191
			c0,0,3.944-8.465,7.759-11.352c3.815-2.887,14.967-13.555,14.967-13.555"/>
		<path style="fill:none;stroke:#486E67;stroke-width:0.9086;stroke-miterlimit:10;" d="M211.24,277.314
			c0,0,10.357,3.81,13.217,6.035c2.86,2.224,4.767,6.25,7.097,8.156c2.33,1.907,6.379,5.111,6.379,5.111"/>
		<path style="fill:none;stroke:#486E67;stroke-width:0.9086;stroke-miterlimit:10;" d="M211.842,240.994
			c0,0,9.38,11.458,11.661,14.689c2.281,3.231,6.653,5.629,7.793,7.756c1.141,2.128,8.061,7.381,8.061,7.381"/>
		<path style="fill:none;stroke:#486E67;stroke-width:0.9086;stroke-miterlimit:10;" d="M220.497,219.844
			c0,0,5.553,7.524,7.848,10.038c2.295,2.513,6.235,5.928,6.235,5.928"/>
		<path style="fill:none;stroke:#486E67;stroke-width:0.9086;stroke-miterlimit:10;" d="M238.302,259.059
			c0,0,2.093-7.816,4.693-9.935c2.6-2.118,7.318-8.763,8.763-11.459c1.444-2.696,1.721-6.074,1.721-6.074"/>
		<path style="fill:#486E67;" d="M214.725,334.326c0.502-0.491,7.361-8.458,7.027-14.094c-0.335-5.636-3.513-11.526-5.186-17.615
			s-4.904-22.991-11.988-21.316c-7.084,1.675-8.088,10.826-10.43,16.79c-2.342,5.965-10.707,18.177-9.703,25.371
			c1.004,7.194,2.175,10.011,3.346,11.53c1.171,1.519,4.35-2.329,6.525-2.161c2.175,0.167,4.852,2.517,4.852,2.517
			s-0.502-4.873,1.338-4.197c1.84,0.676,2.558,3.175,2.558,3.175s1.458-4.495,3.632-3.748c2.175,0.747,2.008,3.748,2.008,3.748
			s1.262-3.335,3.14-2.499C213.721,332.664,214.725,334.326,214.725,334.326z"/>
		<path style="fill:none;stroke:#003B2F;stroke-width:0.9086;stroke-miterlimit:10;" d="M205.385,282.094
			c0-0.897,0.09,10.422-0.807,17.146s-0.997,11.254-1.515,16.092c-0.519,4.839-1.428,16.558-1.428,16.558"/>
		<path style="fill:none;stroke:#003B2F;stroke-width:0.9086;stroke-miterlimit:10;" d="M187.617,311.216
			c0,0,6.78,1.757,9.243,2.893c2.463,1.137,5.554,8.214,5.554,8.214"/>
		<path style="fill:none;stroke:#003B2F;stroke-width:0.9086;stroke-miterlimit:10;" d="M203.062,315.332
			c0,0,4.638-3.953,7.364-3.819c2.726,0.133,8.606-1.647,8.606-1.647"/>
		<path style="fill:none;stroke:#003B2F;stroke-width:0.9086;stroke-miterlimit:10;" d="M195.725,293.329c0,0,5.38,2.613,5.91,4.214
			c0.53,1.6,2.949,6.718,2.949,6.718"/>
		<path style="fill:#305949;" d="M158.96,322.323c-0.281-1.582-11.817-33.429-16.881-41.139
			c-5.064-7.71-14.349-13.337-14.349-13.337s8.441,8.056,10.41,13.453c1.97,5.397,12.942,31.851,12.942,31.851
			s-15.474-23.761-19.413-25.248c-3.939-1.487-8.722-0.939-8.722-0.939s16.178,22.765,18.007,22.377
			c1.829-0.388,9.847,12.981,9.847,12.981H158.96z"/>
		<path style="fill:#FFFFFF;" d="M608.302,109.943c-1.105,0-20.393-2.639-25.975,2.763c-5.582,5.402-7.461,11.053-10.5,11.053
			c-3.04,0-9.923-2.211-13.666,1.382c-3.743,3.592-1.318,8.061-4.879,9.557c-3.561,1.496-14.338-2.213-20.417,1.3
			c-6.079,3.513-7.016,4.894-9.864,4.618c-2.848-0.276-9.68-0.574-8.198,0.956c1.482,1.531,9.016,2.083,15.059,2.36
			c6.043,0.276,61.585,1.934,63.796,2.211c2.211,0.276,11.606-4.421,14.645-5.527C611.341,139.51,608.302,109.943,608.302,109.943z"
			/>
		<path style="fill:#FFFFFF;" d="M481.893,118.108c0,0,3.361-8.497,8.839-6.69s6.173,4.448,6.173,4.448s0.834-1.485,3.475-1.229
			c2.641,0.256,3.184,2.341,5.554,2.758c2.369,0.417,3.342-0.695,6.54-0.556c3.197,0.139,7.027,1.39,7.684,2.641
			c0.656,1.251,1.846,2.502,0,2.78c-1.846,0.278-31.898,0.139-34.873,0c-2.975-0.139-15.902,2.823-15.068,0.16
			C471.051,119.758,477.445,116.737,481.893,118.108z"/>
		<path style="fill:#FFFFFF;" d="M377.056,137.656c0.775,0.521,1.462-8.189,8.833-6.551c7.37,1.638,7.916,6.551,7.916,6.551
			s2.184-5.644,6.825-2.958c4.641,2.685,5.776,5.415,8.211,5.142c2.435-0.273,6.53-2.419,8.714,0.019c2.184,2.438,0,3.803,0,4.076
			s-54.009,3.003-52.528,0C366.507,140.932,372.591,134.653,377.056,137.656z"/>
		<path style="fill:#FFFFFF;" d="M215.665,109.298c0,0,14.368-8.64,26.932,0c12.564,8.64,13.799,14.237,13.799,14.237
			s9.16-11.862,21.86-9.038s25.191,16.402,25.191,16.402s-1.307-6.962,6.678-3.173c7.985,3.789,11.907,10.39,11.907,10.39
			s6.753-5.041,12.832-2.118c6.079,2.923,6.724,8.34,13.19,9.334c6.466,0.994,28.491,3.13,30.438,7.925
			c1.948,4.795-33.432,0.142-37.034,0c-3.601-0.142-27.804,12.031-42.24,6.253c-14.435-5.778-20.964-11.064-20.964-11.064
			s-16.568,15.027-34.025,14.168s-31.891-8.597-32.389-9.357s-12.159,12.755-24.225,9.392
			c-12.066-3.363-12.683-15.225-11.449-17.317C177.403,143.24,215.665,109.298,215.665,109.298z"/>
		<g>
			<g>
				<path style="fill:#003B2F;" d="M250.086,362.337c-1.084-5.181-0.683-10.546,1.133-15.516c-0.219,0-0.438,0-0.657,0
					c1.416,5.181,3.654,10.222,6.739,14.632c0.499,0.714,1.121,1.504,2.058,1.585c0.809,0.069,1.476-0.452,1.855-1.128
					c0.478-0.852,0.455-1.78,0.278-2.714c-0.239-1.263-0.985-3.454,0.636-4.166c0.951-0.418,1.532,0.594,1.941,1.283
					c0.432,0.727,0.859,1.456,1.289,2.183c0.89,1.508,1.78,3.015,2.671,4.522c0.223,0.377,0.812,0.035,0.588-0.344
					c-0.982-1.663-1.965-3.327-2.947-4.99c-0.615-1.042-1.252-2.782-2.449-3.307c-1.055-0.463-2.065,0.292-2.514,1.23
					c-0.63,1.318-0.028,2.699,0.171,4.04c0.119,0.805,0.066,1.699-0.536,2.321c-0.932,0.963-1.896-0.078-2.453-0.859
					c-1.015-1.421-1.902-2.953-2.723-4.492c-1.689-3.167-3.001-6.515-3.947-9.977c-0.094-0.343-0.546-0.303-0.657,0
					c-1.858,5.085-2.241,10.581-1.133,15.878C249.519,362.947,250.176,362.765,250.086,362.337L250.086,362.337z"/>
			</g>
		</g>
		<g>
			<g>
				<path style="fill:#003B2F;" d="M286.038,354.923c0.609-2.039,1.218-4.077,1.827-6.116c-0.19,0.05-0.38,0.1-0.569,0.15
					c1.512,1.663,3.024,3.325,4.537,4.988c0.296,0.325,0.776-0.158,0.482-0.482c-1.512-1.663-3.024-3.325-4.537-4.988
					c-0.178-0.195-0.499-0.085-0.569,0.15c-0.609,2.039-1.218,4.077-1.827,6.116C285.255,355.163,285.913,355.342,286.038,354.923
					L286.038,354.923z"/>
			</g>
		</g>
		<g>
			<g>
				<path style="fill:#003B2F;" d="M293.98,351.061c1.384-2.052,2.767-4.103,4.151-6.155c-0.212-0.057-0.423-0.115-0.635-0.172
					c0.029,2.409,0.057,4.818,0.085,7.228c0.005,0.438,0.687,0.439,0.681,0c-0.028-2.409-0.057-4.818-0.085-7.228
					c-0.004-0.351-0.45-0.446-0.635-0.172c-1.384,2.052-2.767,4.103-4.151,6.155C293.146,351.082,293.736,351.423,293.98,351.061
					L293.98,351.061z"/>
			</g>
		</g>
		<g>
			<g>
				<path style="fill:#003B2F;" d="M267.115,346.715c0.186-3.053,0.372-6.105,0.558-9.158c-0.223,0.03-0.446,0.06-0.669,0.091
					c0.467,3.27,0.934,6.54,1.401,9.81c0.062,0.432,0.719,0.249,0.657-0.181c-0.467-3.27-0.934-6.54-1.401-9.81
					c-0.057-0.399-0.647-0.271-0.669,0.091c-0.186,3.053-0.372,6.105-0.558,9.158C266.407,347.153,267.089,347.151,267.115,346.715
					L267.115,346.715z"/>
			</g>
		</g>
		<g>
			<g>
				<path style="fill:#003B2F;" d="M270.654,346.433c0.565-2.549,1.129-5.098,1.694-7.647c-0.223-0.03-0.446-0.06-0.669-0.09
					c0.008,2.459,0.016,4.918,0.024,7.378c0.001,0.438,0.683,0.439,0.681,0c-0.008-2.459-0.016-4.918-0.024-7.378
					c-0.001-0.375-0.584-0.474-0.669-0.091c-0.565,2.549-1.129,5.098-1.694,7.647C269.903,346.679,270.559,346.862,270.654,346.433
					L270.654,346.433z"/>
			</g>
		</g>
		<g>
			<g>
				<path style="fill:#003B2F;" d="M279.342,343.187c0.331-0.871,0.662-1.743,0.992-2.614c0.065-0.172-0.072-0.374-0.238-0.419
					c-0.192-0.053-0.354,0.065-0.419,0.238c-0.331,0.871-0.662,1.743-0.992,2.614c-0.065,0.172,0.072,0.374,0.238,0.419
					C279.115,343.478,279.277,343.36,279.342,343.187L279.342,343.187z"/>
			</g>
		</g>
		<g>
			<g>
				<path style="fill:#003B2F;" d="M194.326,366.339c-0.109-5.922-0.218-11.845-0.326-17.768c-0.223,0.03-0.446,0.06-0.669,0.091
					c2.02,5.52,4.041,11.039,6.061,16.559c0.134,0.367,0.633,0.297,0.669-0.091c0.138-1.46,0.276-2.921,0.413-4.381
					c0.041-0.436-0.641-0.434-0.681,0c-0.138,1.46-0.275,2.921-0.413,4.381c0.223-0.03,0.446-0.06,0.669-0.09
					c-2.02-5.52-4.041-11.04-6.061-16.559c-0.126-0.344-0.677-0.316-0.669,0.09c0.109,5.923,0.218,11.845,0.326,17.768
					C193.652,366.777,194.334,366.778,194.326,366.339L194.326,366.339z"/>
			</g>
		</g>
		<g>
			<g>
				<path style="fill:#003B2F;" d="M206.157,363.266c0.662-2.332,1.324-4.664,1.986-6.995c-0.219,0-0.438,0-0.657,0
					c0.563,2.726,1.125,5.451,1.688,8.177c0.089,0.429,0.745,0.247,0.657-0.181c-0.563-2.726-1.125-5.451-1.688-8.177
					c-0.07-0.34-0.569-0.309-0.657,0c-0.662,2.332-1.324,4.663-1.986,6.995C205.38,363.508,206.037,363.688,206.157,363.266
					L206.157,363.266z"/>
			</g>
		</g>
		<g>
			<g>
				<path style="fill:#003B2F;" d="M213.43,363.827c0.745-2.943,1.49-5.885,2.235-8.827c-0.223-0.03-0.446-0.06-0.669-0.091
					c-0.166,2.669,0.286,5.347,1.324,7.812c0.168,0.398,0.827,0.223,0.657-0.181c-1.018-2.415-1.463-5.014-1.3-7.631
					c0.024-0.386-0.576-0.46-0.669-0.091c-0.745,2.943-1.49,5.885-2.235,8.827C212.665,364.072,213.322,364.253,213.43,363.827
					L213.43,363.827z"/>
			</g>
		</g>
		<g>
			<g>
				<path style="fill:#003B2F;" d="M224.388,355.599c1.858-4.791,3.715-9.582,5.573-14.374c-0.219-0.06-0.438-0.121-0.657-0.181
					c-0.391,2.248-0.783,4.496-1.174,6.745c-0.065,0.371,0.405,0.603,0.623,0.262c0.854-1.334,1.707-2.668,2.561-4.002
					c-0.212-0.057-0.423-0.115-0.635-0.172c-0.099,2.575-0.198,5.15-0.297,7.725c-0.017,0.438,0.665,0.438,0.681,0
					c0.099-2.575,0.198-5.15,0.297-7.725c0.013-0.352-0.461-0.444-0.635-0.172c-0.854,1.334-1.707,2.668-2.561,4.002
					c0.208,0.087,0.415,0.175,0.623,0.262c0.392-2.248,0.783-4.496,1.174-6.744c0.076-0.434-0.498-0.591-0.657-0.181
					c-1.858,4.791-3.715,9.582-5.573,14.374C223.572,355.827,224.231,356.004,224.388,355.599L224.388,355.599z"/>
			</g>
		</g>
		<g>
			<g>
				<path style="fill:#003B2F;" d="M238.233,341.345c-0.338,1.522-0.676,3.045-1.015,4.567c-0.095,0.427,0.562,0.61,0.657,0.181
					c0.338-1.522,0.677-3.045,1.015-4.567C238.985,341.099,238.328,340.917,238.233,341.345L238.233,341.345z"/>
			</g>
		</g>
		<g>
			<g>
				<path style="fill:#003B2F;" d="M167.144,344.022c-0.264-4.866-0.529-9.732-0.793-14.599c-0.223,0.03-0.446,0.06-0.669,0.091
					c1.871,5.163,3.743,10.325,5.614,15.488c0.148,0.409,0.807,0.232,0.657-0.181c-1.871-5.163-3.743-10.325-5.614-15.488
					c-0.123-0.339-0.691-0.318-0.669,0.091c0.264,4.866,0.529,9.733,0.793,14.599C166.486,344.459,167.168,344.461,167.144,344.022
					L167.144,344.022z"/>
			</g>
		</g>
		<g>
			<g>
				<path style="fill:#003B2F;" d="M176.659,338.315c-1.04-3.065-0.8-6.454,0.691-9.33c-0.208-0.027-0.415-0.054-0.623-0.081
					c1.173,3.571,2.347,7.143,3.52,10.714c0.136,0.415,0.795,0.237,0.657-0.181c-1.173-3.572-2.347-7.143-3.52-10.714
					c-0.086-0.262-0.481-0.355-0.623-0.081c-1.572,3.033-1.859,6.617-0.76,9.855C176.142,338.909,176.8,338.732,176.659,338.315
					L176.659,338.315z"/>
			</g>
		</g>
		<g>
			<g>
				<path style="fill:#003B2F;" d="M146.966,353.642c0.038-4.572,0.076-9.145,0.114-13.717c-0.223,0.03-0.446,0.06-0.669,0.091
					c1.637,5.277,3.275,10.555,4.912,15.832c0.13,0.418,0.788,0.239,0.657-0.181c-1.637-5.277-3.275-10.555-4.912-15.832
					c-0.113-0.363-0.666-0.301-0.669,0.091c-0.038,4.572-0.076,9.145-0.114,13.717C146.281,354.081,146.962,354.082,146.966,353.642
					L146.966,353.642z"/>
			</g>
		</g>
		<g>
			<g>
				<path style="fill:#003B2F;" d="M193.877,400.33c-0.029-4.001-0.058-8.002-0.087-12.004c-0.223,0.03-0.446,0.06-0.669,0.091
					c0.659,2.66,1.318,5.319,1.977,7.979c0.105,0.426,0.763,0.245,0.657-0.181c-0.659-2.66-1.318-5.319-1.977-7.979
					c-0.093-0.374-0.672-0.293-0.669,0.091c0.029,4.001,0.058,8.002,0.087,12.004C193.199,400.768,193.88,400.769,193.877,400.33
					L193.877,400.33z"/>
			</g>
		</g>
		<g>
			<g>
				<path style="fill:#003B2F;" d="M214.582,397.526c0.169-0.169,0.338-0.338,0.507-0.507c0.062-0.062,0.1-0.154,0.1-0.241
					c0-0.084-0.037-0.183-0.1-0.241c-0.065-0.06-0.15-0.104-0.241-0.1c-0.09,0.004-0.176,0.035-0.241,0.1
					c-0.169,0.169-0.338,0.338-0.508,0.507c-0.062,0.062-0.1,0.154-0.1,0.241c0,0.084,0.037,0.183,0.1,0.241
					c0.065,0.06,0.15,0.104,0.241,0.1C214.432,397.622,214.517,397.591,214.582,397.526L214.582,397.526z"/>
			</g>
		</g>
		<g>
			<g>
				<path style="fill:#003B2F;" d="M217.553,386.629c0.169,1.97,0.338,3.94,0.508,5.91c0.033,0.382,0.54,0.464,0.669,0.091
					c0.507-1.462,1.015-2.925,1.522-4.387c0.144-0.415-0.514-0.594-0.657-0.181c-0.508,1.463-1.015,2.925-1.522,4.387
					c0.223,0.03,0.446,0.06,0.669,0.091c-0.169-1.97-0.338-3.94-0.507-5.91C218.197,386.195,217.515,386.191,217.553,386.629
					L217.553,386.629z"/>
			</g>
		</g>
		<g>
			<g>
				<path style="fill:#003B2F;" d="M221.446,386.97c0.438,0,0.439-0.681,0-0.681C221.007,386.288,221.006,386.97,221.446,386.97
					L221.446,386.97z"/>
			</g>
		</g>
		<g>
			<g>
				<path style="fill:#003B2F;" d="M232.115,383.092c0.205,2.063,0.41,4.125,0.615,6.188c0.028,0.278,0.361,0.47,0.582,0.241
					c0.773-0.801,1.546-1.602,2.32-2.402c0.305-0.316-0.176-0.798-0.482-0.482c-0.773,0.801-1.547,1.602-2.32,2.402
					c0.194,0.08,0.388,0.161,0.582,0.241c-0.205-2.063-0.41-4.125-0.615-6.188C232.754,382.66,232.072,382.656,232.115,383.092
					L232.115,383.092z"/>
			</g>
		</g>
		<g>
			<g>
				<path style="fill:#003B2F;" d="M247.646,390.269c1.098-2.972,2.197-5.944,3.295-8.916c-0.223-0.03-0.446-0.06-0.669-0.091
					c-0.336,3.472-0.671,6.944-1.007,10.416c-0.042,0.436,0.639,0.433,0.681,0c0.336-3.472,0.671-6.944,1.007-10.416
					c0.039-0.407-0.545-0.426-0.669-0.09c-1.098,2.972-2.197,5.944-3.295,8.916C246.836,390.5,247.495,390.677,247.646,390.269
					L247.646,390.269z"/>
			</g>
		</g>
		<g>
			<g>
				<path style="fill:#003B2F;" d="M267.053,377.468c-0.319,2.709-0.637,5.417-0.956,8.126c-0.051,0.435,0.631,0.431,0.681,0
					c0.319-2.709,0.637-5.417,0.956-8.126C267.786,377.033,267.104,377.037,267.053,377.468L267.053,377.468z"/>
			</g>
		</g>
		<g>
			<g>
				<path style="fill:#003B2F;" d="M271.699,376.46c-0.335,2.514-0.669,5.028-1.004,7.542c-0.036,0.271,0.311,0.405,0.513,0.294
					c0.547-0.302,1.094-0.605,1.641-0.907c0.384-0.212,0.041-0.801-0.344-0.588c-0.547,0.302-1.094,0.605-1.641,0.907
					c0.171,0.098,0.342,0.196,0.513,0.294c0.335-2.514,0.669-5.028,1.004-7.542C272.438,376.027,271.756,376.031,271.699,376.46
					L271.699,376.46z"/>
			</g>
		</g>
		<g>
			<g>
				<path style="fill:#003B2F;" d="M276.537,373.937c0.155,3.045,0.311,6.091,0.466,9.136c0.022,0.436,0.704,0.439,0.681,0
					c-0.155-3.045-0.31-6.091-0.466-9.136C277.196,373.5,276.515,373.498,276.537,373.937L276.537,373.937z"/>
			</g>
		</g>
	</g>
</g>
</svg>
