<?xml version="1.0" encoding="utf-8"?>
<!-- Generator: Adobe Illustrator 27.5.0, SVG Export Plug-In . SVG Version: 6.00 Build 0)  -->
<svg version="1.1" xmlns="http://www.w3.org/2000/svg" xmlns:xlink="http://www.w3.org/1999/xlink" x="0px" y="0px"
	 viewBox="125 -500 750 500" style="enable-background:new 125 -500 750 500;" xml:space="preserve">
<g id="BACKGROUND">
	<rect x="125" y="-500" style="fill:#EFF9F6;" width="750" height="500"/>
</g>
<g id="OBJECTS">
	<g>
		<path style="fill:#D3F2E4;" d="M730.45-77.81c-2.86,1.62-5.74,3.19-8.63,4.7H232.86c-23.11-25.94-40.28-67.31-48.27-95.23
			c-10.22-35.75-3.24-77.71,23.8-103.44c19.2-18.27,45.67-26.53,68.7-39.78c30.67-17.65,55.04-44.06,79.39-69.63
			c24.35-25.57,49.83-51.2,81.71-66.62c31.88-15.41,71.79-18.94,101.9-0.38c36.09,22.25,52.08,71.25,92.13,85.33
			c32.17,11.31,67.93-4.53,101.65,0.73c45.95,7.18,77.41,52.7,85.25,98.15C831.55-191.93,794.46-114.06,730.45-77.81z"/>
		<g>
			<g>
				<g>
					<g>
						<path style="fill:#63B0AC;" d="M206.97-235.26c16.17,12.78,30.19,28.09,42.28,44.75c12.13,16.71,22.37,34.73,31.46,53.25
							c5.17,10.54,9.97,21.27,14.54,32.08c0.33,0.77-0.87,1.28-1.2,0.51c-8.04-19-16.79-37.72-27.03-55.65
							c-10.18-17.83-21.87-34.88-35.66-50.12c-7.76-8.57-16.18-16.53-25.25-23.69C205.39-234.7,206.25-235.83,206.97-235.26z"/>
						<g>
							<path style="fill:#63B0AC;" d="M209.6-232.15c-2.79-4.42-6.09-8.59-10.25-11.75c-4.17-3.16-9.27-5.25-14.5-5.19
								c-1.83,0.02-4.01,0.57-4.6,2.3c-0.69,2,1.22,3.9,2.99,5.04C190.79-236.88,199.67-234.6,209.6-232.15z"/>
							<path style="fill:#63B0AC;" d="M214.81-227.32c-6.37-3.56-14.18-4.45-21.19-2.41c-1.41,0.41-2.83,0.96-3.9,1.96
								c-1.07,1-1.74,2.55-1.36,3.97c0.36,1.33,1.57,2.3,2.88,2.72c1.31,0.42,2.72,0.39,4.09,0.31
								C202.25-221.18,209.1-222.7,214.81-227.32z"/>
							<path style="fill:#63B0AC;" d="M218.31-223.93c-3.51-5.57-6.49-11.93-5.84-18.48c0.12-1.2,0.38-2.41,1.02-3.43
								c0.65-1.01,1.76-1.8,2.96-1.8c1.84,0,3.19,1.7,4.06,3.32C223.5-238.72,224.23-231.96,218.31-223.93z"/>
							<path style="fill:#63B0AC;" d="M226.25-215.97c-7.97-5.23-18.64-6.04-27.31-2.09c-1.86,0.85-3.9,2.46-3.48,4.46
								c0.42,1.98,2.9,2.64,4.92,2.72C208.58-210.54,216.59-213.11,226.25-215.97z"/>
							<path style="fill:#63B0AC;" d="M230.94-211.71c-4.26-5.61-5.7-13.26-3.78-20.04c0.34-1.19,0.78-2.37,1.59-3.31
								c0.8-0.94,2.02-1.59,3.25-1.45c1.98,0.23,3.17,2.3,3.79,4.19C237.82-226.04,236.91-218.87,230.94-211.71z"/>
							<path style="fill:#63B0AC;" d="M237.21-204.73c-8.49-4.6-18.96-5.4-28.05-2.14c-1.71,0.61-3.59,1.64-3.87,3.43
								c-0.21,1.39,0.7,2.76,1.9,3.49s2.63,0.95,4.03,1.09C220.25-197.92,229.51-199.3,237.21-204.73z"/>
							<path style="fill:#63B0AC;" d="M242.48-197.21c-2.1-4.34-3.93-8.89-4.36-13.69c-0.42-4.8,0.72-9.91,3.97-13.46
								c0.84-0.92,1.97-1.77,3.2-1.6c1.48,0.2,2.34,1.75,2.85,3.15C251.02-214.89,249.73-205.57,242.48-197.21z"/>
							<path style="fill:#63B0AC;" d="M248.81-190.68c-7.85-5.88-18.66-7.57-27.93-4.37c-1.1,0.38-2.29,0.93-2.72,2.01
								c-0.43,1.09,0.1,2.37,0.98,3.14c0.88,0.77,2.04,1.13,3.18,1.41C230.85-186.33,240.08-187.11,248.81-190.68z"/>
							<path style="fill:#63B0AC;" d="M253.13-183.44c-2.86-7.84-0.85-17.23,4.97-23.22c1.16-1.19,2.54-2.29,4.18-2.55
								c2.2-0.34,4.45,1.01,5.53,2.95c1.08,1.94,1.12,4.35,0.49,6.48c-0.63,2.14-1.86,4.04-3.22,5.8
								C262.58-190.72,259.6-187.86,253.13-183.44z"/>
							<path style="fill:#63B0AC;" d="M259.13-173.69c-6.12-7.06-15.49-11.17-24.83-10.91c-1.2,0.03-2.43,0.15-3.51,0.67
								c-1.08,0.53-1.99,1.56-2.06,2.75c-0.11,1.76,1.48,3.12,2.97,4.06C239.79-172.07,249.98-170.53,259.13-173.69z"/>
							<path style="fill:#63B0AC;" d="M263.73-166.93c-2.04-5.73-1.35-12.37,1.82-17.56c0.88-1.45,1.98-2.81,3.42-3.7
								s3.27-1.26,4.86-0.67c2.09,0.77,3.34,3.04,3.49,5.26s-0.59,4.4-1.47,6.45C273.84-172.41,271.01-167.96,263.73-166.93z"/>
						</g>
					</g>
					<g>
						<path style="fill:#63B0AC;" d="M212.02-119.69c-6.59-2.84-13.27-5.46-20.04-7.87c-1.17-0.42-2.04,1.33-0.86,1.76
							c23.88,8.51,46.77,19.75,68.09,33.48c6.09,3.92,12.04,8.05,17.85,12.37c1,0.74,2.3-0.71,1.29-1.46
							C257.81-96.68,235.52-109.56,212.02-119.69z"/>
						<g>
							<path style="fill:#63B0AC;" d="M196.65-125.03c-5.23-7.56-14.51-12.12-23.69-11.67c-3.45,0.17-7.57,1.72-8.03,5.15
								c-0.46,3.44,3.1,6,6.34,7.25C178.86-121.37,187.39-120.94,196.65-125.03z"/>
							<path style="fill:#63B0AC;" d="M211-120.5c-9.15-4.83-17.22-11.69-23.47-19.94c-1.27-1.68-2.52-3.91-1.54-5.78
								c0.72-1.37,2.45-1.97,3.99-1.77c1.54,0.2,2.91,1.03,4.2,1.9C203.29-139.9,210.2-130.53,211-120.5z"/>
							<path style="fill:#63B0AC;" d="M226.59-112.45c-4.16-3.65-8.38-7.34-11.48-11.93c-3.1-4.58-5.02-10.22-4.06-15.67
								c0.3-1.69,1.01-3.5,2.56-4.23c2.41-1.15,5.08,0.93,6.78,2.98C227.24-133.02,230.94-122.22,226.59-112.45z"/>
							<path style="fill:#63B0AC;" d="M246.86-101.12c-7.62-5.49-12.44-14.68-12.63-24.08c-0.03-1.52,0.07-3.08,0.74-4.44
								s2.04-2.47,3.55-2.43c2.04,0.05,3.47,2,4.44,3.8C247.43-120,249.43-110.42,246.86-101.12z"/>
							<path style="fill:#63B0AC;" d="M215.01-117.92c-8.82-2.23-18.48-0.95-26.41,3.5c-2.37,1.33-4.85,3.46-4.57,6.16
								c0.21,2.01,2,3.58,3.95,4.1c1.95,0.52,4.02,0.19,5.99-0.29C201.28-106.22,208.08-110.04,215.01-117.92z"/>
							<path style="fill:#63B0AC;" d="M232.29-109.21c-10.25-2.25-21.51,0.66-29.39,7.6c-1.71,1.5-3.31,3.26-3.95,5.45
								c-0.64,2.18-0.06,4.86,1.85,6.08c2.4,1.54,5.56,0.28,8.05-1.11C216.73-95.59,223.94-101.17,232.29-109.21z"/>
							<path style="fill:#63B0AC;" d="M254.48-97.19c-5.43-0.9-10.95-1.63-16.41-1.02c-5.46,0.61-10.94,2.67-14.74,6.64
								c-1.23,1.29-2.29,2.8-2.69,4.54s-0.03,3.72,1.25,4.95c2.23,2.15,5.89,1.25,8.77,0.1C239.61-85.57,248.1-90.31,254.48-97.19z"
								/>
						</g>
					</g>
				</g>
				<g>
					<g>
						<g>
							<path style="fill:#63B0AC;" d="M791.71-286.62c-11.72,16.96-20.64,35.7-27.32,55.17c-6.7,19.53-11.22,39.76-14.48,60.13
								c-1.86,11.6-3.3,23.25-4.5,34.94c-0.09,0.83,1.21,0.97,1.29,0.14c2.12-20.52,5.01-40.99,9.54-61.12
								c4.51-20.03,10.7-39.75,19.42-58.37c4.9-10.47,10.63-20.54,17.2-30.05C793.39-286.54,792.23-287.37,791.71-286.62z"/>
							<g>
								<path style="fill:#63B0AC;" d="M790.11-282.87c1.37-5.04,3.3-10,6.36-14.24c3.06-4.24,7.33-7.73,12.34-9.21
									c1.76-0.52,4-0.63,5.07,0.85c1.24,1.71-0.02,4.08-1.38,5.7C806.71-292.9,798.88-288.12,790.11-282.87z"/>
								<path style="fill:#63B0AC;" d="M786.54-276.72c5.05-5.27,12.26-8.41,19.55-8.51c1.47-0.02,2.99,0.09,4.31,0.73
									c1.32,0.64,2.41,1.93,2.46,3.4c0.04,1.38-0.83,2.66-1.96,3.44c-1.13,0.79-2.49,1.17-3.82,1.49
									C800.35-274.54,793.35-273.98,786.54-276.72z"/>
								<path style="fill:#63B0AC;" d="M784.19-272.46c1.72-6.35,2.72-13.31,0.17-19.38c-0.47-1.11-1.07-2.2-1.98-2.98
									c-0.92-0.78-2.21-1.2-3.36-0.85c-1.76,0.54-2.55,2.56-2.91,4.36C774.89-285.08,776.18-278.41,784.19-272.46z"/>
								<path style="fill:#63B0AC;" d="M778.93-262.52c6.09-7.33,16.05-11.24,25.5-9.99c2.03,0.27,4.45,1.21,4.63,3.25
									c0.18,2.02-2,3.37-3.91,4.04C797.41-262.5,789.01-262.62,778.93-262.52z"/>
								<path style="fill:#63B0AC;" d="M775.69-257.08c2.43-6.61,1.57-14.35-2.26-20.27c-0.67-1.04-1.45-2.04-2.49-2.7
									c-1.04-0.66-2.4-0.93-3.53-0.43c-1.83,0.8-2.36,3.12-2.39,5.12C764.92-268.76,767.89-262.17,775.69-257.08z"/>
								<path style="fill:#63B0AC;" d="M771.74-248.57c6.77-6.89,16.54-10.72,26.19-10.26c1.81,0.09,3.91,0.51,4.7,2.15
									c0.61,1.26,0.14,2.84-0.79,3.89c-0.93,1.05-2.24,1.68-3.53,2.23C789.95-247.02,780.7-245.63,771.74-248.57z"/>
								<path style="fill:#63B0AC;" d="M768.9-239.83c0.74-4.76,1.16-9.66,0.16-14.37c-1-4.71-3.59-9.26-7.74-11.71
									c-1.07-0.63-2.4-1.12-3.52-0.59c-1.35,0.63-1.73,2.36-1.8,3.84C755.56-254.23,759.53-245.7,768.9-239.83z"/>
								<path style="fill:#63B0AC;" d="M764.76-231.74c5.78-7.92,15.62-12.7,25.42-12.35c1.17,0.04,2.46,0.22,3.19,1.13
									c0.73,0.91,0.6,2.3-0.02,3.29s-1.62,1.67-2.62,2.28C783.21-232.84,774.16-230.88,764.76-231.74z"/>
								<path style="fill:#63B0AC;" d="M762.76-223.54c0.44-8.33-4.24-16.73-11.55-20.74c-1.46-0.8-3.1-1.45-4.74-1.21
									c-2.2,0.32-3.96,2.27-4.43,4.44c-0.47,2.18,0.2,4.49,1.43,6.34c1.23,1.86,2.97,3.32,4.78,4.61
									C751.59-227.74,755.28-225.87,762.76-223.54z"/>
								<path style="fill:#63B0AC;" d="M759.87-212.46c3.79-8.54,11.54-15.22,20.55-17.7c1.16-0.32,2.37-0.57,3.56-0.38
									c1.19,0.19,2.35,0.91,2.78,2.03c0.62,1.65-0.5,3.42-1.66,4.75C778.84-216.58,769.54-212.13,759.87-212.46z"/>
								<path style="fill:#63B0AC;" d="M757.45-204.66c0.27-6.08-2.33-12.22-6.88-16.25c-1.27-1.12-2.71-2.1-4.35-2.53
									c-1.64-0.43-3.5-0.24-4.85,0.79c-1.77,1.35-2.3,3.89-1.8,6.06s1.85,4.04,3.29,5.74
									C746.19-206.94,750.19-203.51,757.45-204.66z"/>
							</g>
						</g>
						<g>
							<path style="fill:#63B0AC;" d="M677.93-230.31c-2.23-6.82-4.69-13.57-7.36-20.23c-0.46-1.15-2.35-0.65-1.88,0.52
								c9.43,23.53,16.15,48.13,19.97,73.2c1.09,7.16,1.93,14.36,2.54,21.57c0.11,1.24,2.06,1.25,1.95,0
								C690.98-180.75,685.89-205.99,677.93-230.31z"/>
							<g>
								<path style="fill:#63B0AC;" d="M671.76-245.37c2.2-8.92-0.51-18.9-6.93-25.48c-2.42-2.48-6.3-4.53-9.17-2.61
									c-2.89,1.93-2.45,6.3-1.24,9.55C657.24-256.28,662.56-249.59,671.76-245.37z"/>
								<path style="fill:#63B0AC;" d="M677.86-231.61c-2.44-10.06-2.64-20.65-0.59-30.79c0.42-2.07,1.26-4.47,3.31-4.98
									c1.5-0.37,3.1,0.54,3.97,1.82s1.16,2.86,1.36,4.4C687.29-250.23,684.85-238.84,677.86-231.61z"/>
								<path style="fill:#63B0AC;" d="M682.14-214.59c-0.02-5.53-0.04-11.14,1.34-16.5s4.34-10.53,9.06-13.42
									c1.46-0.89,3.29-1.56,4.87-0.89c2.45,1.05,2.67,4.42,2.25,7.06C697.99-227.73,692.34-217.8,682.14-214.59z"/>
								<path style="fill:#63B0AC;" d="M687.07-191.9c-0.93-9.35,2.77-19.05,9.69-25.4c1.12-1.03,2.36-1.99,3.82-2.39
									c1.46-0.4,3.2-0.1,4.17,1.06c1.31,1.57,0.8,3.92,0.09,5.84C701.6-203.97,695.74-196.13,687.07-191.9z"/>
								<path style="fill:#63B0AC;" d="M678.58-226.9c-4.17-8.09-11.52-14.48-20.1-17.48c-2.56-0.9-5.81-1.34-7.65,0.65
									c-1.37,1.48-1.36,3.87-0.46,5.68s2.52,3.14,4.18,4.3C660.72-229.45,668.09-226.87,678.58-226.9z"/>
								<path style="fill:#63B0AC;" d="M683.49-208.18c-5.1-9.17-14.73-15.68-25.15-17c-2.26-0.29-4.64-0.32-6.7,0.64
									c-2.06,0.96-3.68,3.17-3.33,5.42c0.43,2.82,3.47,4.35,6.17,5.3C662.98-210.83,671.93-209.12,683.49-208.18z"/>
								<path style="fill:#63B0AC;" d="M689.16-183.59c-2.92-4.66-6.03-9.28-10.1-12.98c-4.07-3.7-9.24-6.43-14.73-6.65
									c-1.78-0.07-3.62,0.14-5.18,0.99c-1.56,0.85-2.8,2.44-2.88,4.22c-0.14,3.1,2.96,5.25,5.73,6.64
									C670.61-187.05,679.78-183.81,689.16-183.59z"/>
							</g>
						</g>
					</g>
					<g>
						<g>
							<path style="fill:#218282;" d="M839.99-80.94h-204.5c-3-29.76,1.23-68.77,14.93-89.01c2.24-3.31,4.84-6.58,7.76-9.38
								c4.76-4.6,10.42-8,16.93-8.46c13.76-0.99,25.3,11.37,39.04,12.36c26.28,1.86,42.57-36.73,68.77-33.95
								c11.46,1.22,20.75,10.84,24.55,21.73c3.8,10.89,3.03,22.84,1.23,34.23c-1.03,6.58-2.28,13.84,1.23,19.5
								c3.7,5.93,11.22,7.89,17.3,11.34c2.88,1.63,5.28,3.96,7.22,6.8C840.52-106.93,842.14-93.19,839.99-80.94z"/>
							<path style="fill:#3EA396;" d="M834.44-115.79c-0.98-0.83-2.02-1.59-3.11-2.27c-8.92-5.6-21.16-6.76-27.11-15.47
								c-5.73-8.38-2.83-19.62-3.56-29.75c-0.48-6.72-2.78-13.43-7.17-18.52c-4.41-5.1-11.05-8.42-17.78-8.08
								c-11.85,0.59-20.2,11.31-29.94,18.09c-10.59,7.38-24.14,10.37-36.85,8.12c-9.43-1.66-18.12-5.99-26.96-9.67
								c-7.59-3.18-15.64-5.91-23.8-5.98c4.76-4.6,10.42-8,16.93-8.46c13.76-0.99,25.3,11.37,39.04,12.36
								c26.28,1.86,42.57-36.73,68.77-33.95c11.46,1.22,20.75,10.84,24.55,21.73s3.03,22.84,1.23,34.23
								c-1.03,6.58-2.28,13.84,1.23,19.5c3.7,5.93,11.22,7.89,17.3,11.34C830.1-120.97,832.49-118.63,834.44-115.79z"/>
						</g>
						<g>
							<path style="fill:#154559;" d="M808.02-111.86c-7.85,1.87-15.59,4.35-23.15,7.35c1.2-6.5,3.07-12.85,5.56-18.98
								c0.34-0.82-1-1.18-1.33-0.37c-2.61,6.44-4.55,13.15-5.84,19.98v0.01c-9.58,3.9-18.85,8.61-27.62,13.91
								c7.14-23.03,17.28-45.11,30.12-65.52c4.37-6.94,9.09-13.62,13.98-20.19c0.45-0.6-0.58-1.41-1.05-0.81
								c-11.93,15.29-22.06,32.1-30.33,49.74c-2.1-7.1-3.94-14.27-5.5-21.49c4.68-6.33,9.21-12.76,13.58-19.3
								c0.51-0.76-0.72-1.47-1.22-0.71c-4.11,6.17-8.36,12.24-12.74,18.23c-1.52-7.24-2.75-14.54-3.64-21.9
								c-0.11-0.88-1.5-0.89-1.39,0c0.95,7.89,2.23,15.75,3.87,23.54c-0.15,0.28-0.06,0.54,0.15,0.71
								c1.64,7.71,3.62,15.34,5.99,22.84l0,0c-3.83,8.33-7.24,16.83-10.23,25.45c-2.74,7.88-5.11,15.88-7.12,23.97
								c-0.22,0.88,1.14,1.26,1.36,0.37c1.08-4.34,2.28-8.65,3.58-12.94c0.07-0.02,0.13-0.03,0.2-0.07
								c8.19-5.03,16.74-9.47,25.58-13.23c8.96-3.81,18.17-6.75,27.55-9.31C809.2-110.81,808.85-112.06,808.02-111.86z"/>
							<path style="fill:#154559;" d="M704.38-144.11c-6.92,14.21-13.85,28.42-20.74,42.64c-0.74-3.52-1.46-7.05-2.14-10.59
								c-1.98-10.24-3.73-20.53-5.25-30.85c-0.88-5.97-1.68-11.95-2.4-17.93c-0.1-0.86-1.48-0.88-1.37,0
								c1.86,15.39,4.22,30.71,7.09,45.94c-4.52-3.34-8.89-6.9-13.06-10.67c-2.14-1.94-4.23-3.93-6.28-5.97
								c-1.95-1.95-4.23-3.9-5.43-6.43c-0.35-0.74-1.62-0.22-1.33,0.56c0.91,2.52,3.18,4.44,5.01,6.3c2.19,2.23,4.44,4.39,6.75,6.49
								c4.56,4.14,9.34,8.03,14.31,11.66c0.15,0.11,0.29,0.13,0.42,0.13c0.86,4.48,1.75,8.95,2.69,13.41c0,0.01-0.01,0.01-0.01,0.02
								c-0.16,0.33-0.03,0.63,0.18,0.82c0.01,0.05,0.02,0.1,0.03,0.15c1.25,5.86,2.43,11.79,3.97,17.59
								c0.24,0.89,1.57,0.51,1.38-0.38c-1.11-5.14-2.41-10.24-3.53-15.37c-0.2-0.92-0.39-1.84-0.58-2.76
								c7.19-14.67,14.33-29.36,21.5-44.04C705.97-144.21,704.77-144.91,704.38-144.11z"/>
						</g>
					</g>
				</g>
			</g>
			<g>
				<g>
					<g>
						<g>
							<path style="fill:#F08A78;" d="M500.07-278.41l-0.34,1.9l-3.59,20.22c-14.23-2.53-28.94-2.32-43.19,0.42
								c-0.97,0.18-1.94,0.38-2.9,0.6c-5.48,1.18-10.87,2.73-16.13,4.67c-0.92,0.32-1.84,0.67-2.75,1.03
								c-5.6,2.19-11.04,4.8-16.24,7.8c-0.85,0.49-1.69,0.99-2.52,1.5c-3.56,2.17-7,4.53-10.3,7.09c-1.48,1.14-2.93,2.32-4.35,3.54
								c-0.74,0.63-1.47,1.27-2.2,1.93c-4.82,4.34-9.28,9.09-13.33,14.18l-1.82,2.32c-3.94,5.19-7.46,10.71-10.54,16.47
								c-0.46,0.87-0.92,1.75-1.37,2.63c-3.05,6.07-5.6,12.39-7.61,18.88c-0.3,0.95-0.57,1.9-0.84,2.85
								c-2.05,7.31-3.42,14.8-4.02,22.36l-19.57-1.56l-2.82-0.22c0.62-7.75,1.91-15.45,3.83-22.99l0.76-2.87
								c2.23-8.05,5.16-15.92,8.75-23.49l1.3-2.66c3.73-7.47,8.11-14.64,13.06-21.37c0.58-0.79,1.17-1.58,1.77-2.35
								c5.33-6.95,11.29-13.4,17.81-19.23c0.72-0.66,1.46-1.29,2.2-1.93c1.71-1.47,3.47-2.9,5.26-4.28
								c3.93-3.04,8.03-5.85,12.28-8.44c0.83-0.53,1.67-1.02,2.51-1.51c6.85-4,14.06-7.41,21.51-10.21l2.76-1
								c6.92-2.46,14.03-4.39,21.24-5.78c0.97-0.18,1.94-0.36,2.91-0.52C467.62-281.17,484.09-281.24,500.07-278.41z"/>
							<path style="fill:#EB6963;" d="M499.73-276.51l-3.59,20.22c-14.23-2.53-28.94-2.32-43.19,0.42c-0.97,0.18-1.94,0.38-2.9,0.6
								c-5.48,1.18-10.87,2.73-16.13,4.67c-0.92,0.32-1.84,0.67-2.75,1.03c-5.6,2.19-11.04,4.8-16.24,7.8
								c-0.85,0.49-1.69,0.99-2.52,1.5c-3.56,2.17-7,4.53-10.3,7.09c-1.48,1.14-2.93,2.32-4.35,3.54c-0.74,0.63-1.47,1.27-2.2,1.93
								c-4.82,4.34-9.28,9.09-13.33,14.18l-1.82,2.32c-3.94,5.19-7.46,10.71-10.54,16.47c-0.46,0.87-0.92,1.75-1.37,2.63
								c-3.05,6.07-5.6,12.39-7.61,18.88c-0.3,0.95-0.57,1.9-0.84,2.85c-2.05,7.31-3.42,14.8-4.02,22.36l-19.57-1.56
								c0.66-7.02,1.89-13.99,3.64-20.84l0.75-2.87c2.23-8.05,5.16-15.92,8.75-23.49l1.3-2.66c3.73-7.47,8.12-14.64,13.06-21.37
								c0.59-0.79,1.18-1.58,1.78-2.35c5.32-6.94,11.29-13.4,17.8-19.22c0.73-0.66,1.46-1.29,2.21-1.93
								c1.71-1.47,3.46-2.9,5.26-4.28c3.93-3.04,8.02-5.85,12.27-8.43c0.84-0.53,1.67-1.02,2.52-1.51c6.84-4,14.06-7.41,21.5-10.21
								l2.76-1c6.93-2.46,14.03-4.39,21.25-5.78c0.97-0.18,1.93-0.36,2.9-0.52C469.26-278.63,484.68-278.84,499.73-276.51z"/>
						</g>
						<g>
							<path style="fill:#B03E54;" d="M414.92-241.77c-0.85,0.49-1.69,0.99-2.52,1.5l-11.75-19.12c0.83-0.53,1.67-1.02,2.51-1.51
								L414.92-241.77z"/>
							<path style="fill:#B03E54;" d="M397.76-229.64l-2.2,1.93l-14.64-17.03c0.72-0.66,1.46-1.29,2.2-1.93L397.76-229.64z"/>
							<path style="fill:#B03E54;" d="M382.22-213.54l-1.82,2.32l-19.07-11.96c0.58-0.79,1.17-1.58,1.77-2.35L382.22-213.54z"/>
							<path style="fill:#B03E54;" d="M348.28-201.81l21.59,7.06c-0.46,0.87-0.92,1.75-1.37,2.63l-21.52-7.04L348.28-201.81z"/>
							<polygon style="fill:#B03E54;" points="338.22,-175.67 360.89,-173.24 360.04,-170.38 337.47,-172.8 							"/>
							<path style="fill:#B03E54;" d="M424.68-271.12l6.48,21.54c0.91-0.37,1.83-0.71,2.75-1.03l-6.47-21.52L424.68-271.12z"/>
							<path style="fill:#B03E54;" d="M451.59-278.42l1.36,22.55c-0.97,0.18-1.94,0.38-2.9,0.6l-1.37-22.62
								C449.64-278.08,450.62-278.26,451.59-278.42z"/>
						</g>
					</g>
					<g>
						<g>
							<g>
								<rect x="453.2" y="-382.57" style="fill:#CEF2EF;" width="195.3" height="206.04"/>
								<rect x="460.03" y="-382.57" style="fill:#36BFB8;" width="181.62" height="206.04"/>
							</g>
							<g>
								<g style="opacity:0.549;">
									<path style="fill:#58D1C7;" d="M626.43-387.63c4.27,5.96,0.51,14.83-5.64,18.83c-6.15,4-13.79,4.61-21.03,5.78
										c-16.29,2.62-32.03,8.64-45.92,17.54c-11.03,7.07-21.01,15.99-33.12,20.99c-12.11,5-27.59,5.06-36.74-4.3
										c-6.53-6.67-8.42-16.47-10.01-25.67c-1.34-7.72-2.67-15.44-4.01-23.16c-0.44-2.56-0.87-5.29,0.18-7.67
										c1.81-4.11,6.98-5.27,11.43-5.85C526.95-397,573.17-396.13,626.43-387.63z"/>
									<path style="fill:#58D1C7;" d="M614.61-353.53c-12.7-4.78-26.79,2.21-37.36,10.72c-10.57,8.52-20.23,19.06-33.21,23.04
										c-7.51,2.31-17.09,3.29-20.05,10.57c-2.2,5.41,1.02,11.85,5.91,15.05c4.89,3.2,10.99,3.85,16.83,4
										c5.84,0.15,11.8-0.11,17.39,1.59c13.98,4.24,24.22,20.07,38.75,18.65c12.44-1.22,19.9-15.09,20.49-27.57
										c0.59-12.48-3.34-24.82-3.06-37.31C620.47-341.61,621.71-350.86,614.61-353.53z"/>
									<path style="fill:#58D1C7;" d="M614.32-172.56c5.28-7.5,10.06-15.54,12.34-24.43c2.29-8.88,1.85-18.77-2.82-26.67
										c-5.71-9.66-16.51-14.82-26.1-20.64c-10.32-6.28-19.82-13.87-30.3-19.87s-22.36-10.44-34.41-9.53
										c-12.05,0.9-24.15,8.13-28.09,19.55c-3.74,10.84,0.07,23.7-5.62,33.66c-3.99,6.99-11.7,10.78-18.32,15.37
										c-6.62,4.58-12.97,11.66-11.76,19.62c0.94,6.15,6.35,10.86,12.26,12.82c5.91,1.96,12.29,1.69,18.51,1.4
										C534.46-172.89,568.9-174.49,614.32-172.56z"/>
									<path style="fill:#58D1C7;" d="M506.3-306.57c-6.31-4.07-15.93-1.33-19.15,5.45c-2.67,5.61-1.13,12.28-2.31,18.39
										c-2.24,11.57-13.85,19.63-15.98,31.23c-0.86,4.68,0.61,10.45,5.08,12.09c4.05,1.48,8.56-1.22,11.05-4.74
										c2.49-3.52,3.69-7.78,5.85-11.51c4.44-7.68,12.61-12.58,17.32-20.1C514.12-285.3,515.23-300.82,506.3-306.57z"/>
								</g>
								<g style="opacity:0.7294;">
									<path style="fill:#054D4A;" d="M549.06-236.35c2.81-13.11,3.06-26.64,2-39.96c-0.61-7.64-1.65-15.24-2.87-22.8
										c-0.14-0.87-1.54-0.84-1.4,0.05c4.16,25.88,6.13,53.4-3.99,78.22c-2.7,6.62-6.26,12.68-10.45,18.45
										c-0.48,0.66,0.65,1.5,1.17,0.86C541.56-211.45,546.41-223.97,549.06-236.35z"/>
									<g>
										<g>
											<path style="fill:#169C52;" d="M550.17-269.07c-0.25-14.95,5.23-29.93,15.07-41.19c9.85-11.26,23.96-18.68,38.81-20.42
												C600.79-301.81,579.17-275.85,550.17-269.07z"/>
											<path style="fill:#096647;" d="M598.8-316.09c-3.11-0.27-6.22-0.36-9.34-0.28c3.08-2.86,6.24-5.63,9.48-8.3
												c0.31-0.25-0.14-0.68-0.45-0.43c-3.41,2.81-6.72,5.74-9.95,8.76c-0.01,0-0.02,0-0.03,0c-0.05-2.7-0.45-5.38-1.23-7.97
												c-0.12-0.4-0.74-0.21-0.62,0.19c0.79,2.64,1.2,5.37,1.2,8.13c0,0.08,0.03,0.14,0.08,0.2c-3.7,3.48-7.28,7.08-10.72,10.81
												c-0.13,0.14-0.25,0.28-0.38,0.42c-1.02-3.55-2.84-7.06-5.34-9.79c-0.3-0.33-0.74,0.16-0.47,0.5
												c2.4,2.98,4.2,6.17,5.28,9.86c0,0.01,0.01,0.01,0.01,0.01c-3.92,4.3-7.64,8.77-11.2,13.37c-1.45-2.64-3.22-5.1-5.3-7.29
												c-0.29-0.3-0.73,0.17-0.45,0.47c1.42,1.5,2.7,3.11,3.83,4.85c0.51,0.79,0.95,1.61,1.41,2.43
												c0.03,0.05,0.05,0.07,0.08,0.1c-1.97,2.56-3.89,5.15-5.74,7.79c-0.57,0.81-1.12,1.63-1.67,2.45
												c-0.03-0.04-0.07-0.08-0.1-0.13c-0.52-0.8-0.98-1.6-1.61-2.33c-0.64-0.75-1.37-1.42-2.17-2.01
												c-0.32-0.24-0.75,0.21-0.43,0.45c0.83,0.62,1.59,1.33,2.24,2.14c0.32,0.4,0.61,0.82,0.88,1.25
												c0.24,0.39,0.43,0.86,0.74,1.21c0.01,0.01,0.02,0.01,0.03,0.02c-2.4,3.57-4.69,7.2-6.87,10.91
												c-0.21,0.36,0.36,0.67,0.57,0.31c2.17-3.68,4.46-7.3,6.85-10.85c0.65,0.27,1.48,0.2,2.14,0.32
												c1.2,0.22,2.35,0.61,3.44,1.14c0.4,0.19,0.73-0.41,0.33-0.6c-0.96-0.46-1.97-0.83-3.01-1.07
												c-0.54-0.12-1.08-0.21-1.63-0.27c-0.33-0.03-0.61-0.04-0.86-0.12c2.38-3.52,4.86-6.96,7.45-10.33
												c0.07,0,0.14,0.01,0.23,0.02c0.56,0.05,1.12,0.1,1.68,0.16c2.22,0.22,4.43,0.46,6.64,0.74c2.24,0.28,4.46,0.69,6.7,0.95
												c0.43,0.05,0.6-0.58,0.16-0.67c-2.6-0.5-5.28-0.76-7.9-1.08c-2.33-0.28-4.67-0.54-7.02-0.75
												c0.45-0.59,0.9-1.18,1.37-1.76c3.14-3.98,6.43-7.84,9.84-11.58c4.24,0.1,8.56,1.57,12.17,3.7
												c0.37,0.22,0.69-0.36,0.32-0.58c-1.95-1.14-4.02-2.05-6.18-2.69c-1.9-0.56-3.81-0.84-5.76-1.03
												c2.97-3.24,6.04-6.39,9.21-9.44c0.67-0.64,1.34-1.27,2.01-1.9c3.37-0.1,6.74-0.03,10.09,0.28
												C599.26-315.37,599.24-316.05,598.8-316.09z"/>
										</g>
										<g>
											<path style="fill:#169C52;" d="M546.87-227.06c3.38-14.89,12.5-28.41,25.04-37.12c12.54-8.71,28.39-12.53,43.52-10.5
												C604.99-249.04,578.55-230.77,546.87-227.06z"/>
											<path style="fill:#096647;" d="M610.43-272.69c-4.25,1.94-8.42,4.05-12.52,6.27c0.24-1.74,0.2-3.49-0.16-5.22
												c-0.08-0.39-0.68-0.21-0.6,0.18c0.36,1.78,0.39,3.63,0.06,5.41c-4.52,2.48-8.96,5.12-13.28,7.93
												c-1.22,0.79-2.42,1.6-3.62,2.41c-0.47-2.96-1.08-5.89-1.84-8.78c-0.11-0.41-0.73-0.22-0.63,0.19
												c0.77,2.95,1.39,5.94,1.86,8.95c0,0.02,0.01,0.03,0.01,0.05c-5.28,3.62-10.4,7.49-15.32,11.59
												c-0.4-0.86-0.77-1.74-1.14-2.61c-0.75-1.77-1.45-3.57-2.12-5.37c-0.14-0.39-0.77-0.21-0.63,0.19
												c0.68,1.84,1.4,3.67,2.17,5.48c0.38,0.9,0.78,1.8,1.18,2.7c0.01,0.02,0.01,0.04,0.02,0.06
												c-1.32,1.11-2.64,2.22-3.94,3.37c-1.96,1.73-3.88,3.5-5.78,5.3c-0.1-0.19-0.2-0.39-0.29-0.56l-1.65-2.8
												c-0.22-0.37-0.78-0.02-0.56,0.35c0.59,1,1.17,1.99,1.76,2.99c0.09,0.15,0.17,0.31,0.26,0.48
												c-2.07,1.99-4.11,4.02-6.1,6.09c-0.29,0.3,0.18,0.75,0.47,0.45c1.96-2.03,3.97-4.01,6.01-5.97
												c0.03,0.04,0.07,0.09,0.1,0.12c0.31,0.3,0.77,0.42,1.15,0.58c2.07,0.87,3.99,1.95,5.98,3c0.39,0.21,0.68-0.35,0.33-0.59
												c-1.71-1.15-3.68-2.04-5.58-2.84c-0.43-0.18-1.07-0.31-1.41-0.63c-0.03-0.03-0.06-0.07-0.08-0.1
												c3.13-2.98,6.34-5.87,9.65-8.64c0.04,0.04,0.09,0.09,0.15,0.12c0.36,0.17,0.92,0.19,1.31,0.28
												c1.86,0.44,3.67,1.06,5.41,1.85c1.72,0.78,3.27,1.77,4.86,2.77c0.31,0.2,0.68-0.3,0.39-0.53
												c-2.75-2.13-6.19-3.59-9.52-4.51c-0.43-0.12-0.87-0.23-1.3-0.33c-0.31-0.07-0.51-0.1-0.67-0.18
												c1.9-1.58,3.82-3.12,5.78-4.63c3.22-2.48,6.52-4.84,9.88-7.14c4.64,0.68,8.77,2.91,12.03,6.28
												c0.29,0.3,0.71-0.16,0.44-0.46c-3-3.35-7.26-5.56-11.68-6.36c4.7-3.18,9.52-6.18,14.47-8.96
												c0.64-0.36,1.29-0.71,1.94-1.06c1.05,0.42,2.09,0.87,3.09,1.4c1.1,0.59,2.12,1.27,3.15,1.97c0.3,0.21,0.68-0.3,0.39-0.52
												c-1.76-1.35-3.79-2.45-5.88-3.26c4.06-2.2,8.18-4.27,12.38-6.19C611.17-272.29,610.82-272.86,610.43-272.69z"/>
										</g>
										<g>
											<path style="fill:#169C52;" d="M547.49-296.37c8.63-13.68,9.81-31.76,3.04-46.44c-6.77-14.69-21.28-25.53-37.28-27.86
												c0.37,13.29,0.75,26.7,4.01,39.59C520.51-318.2,526.93-305.7,547.49-296.37z"/>
											<path style="fill:#096647;" d="M547.83-296.97c-0.05-5.72-0.65-11.4-1.75-16.97c0.81-1.65,1.65-3.25,2.76-4.74
												c1.19-1.59,2.56-2.99,4.05-4.29c0.34-0.3-0.16-0.76-0.5-0.48c-2.67,2.17-5.06,5.11-6.56,8.29
												c-0.87-4.1-2-8.15-3.43-12.12c-1.01-2.82-2.17-5.58-3.43-8.3c1.2-4.8,3.48-9.27,6.7-13.03c0.3-0.35-0.22-0.84-0.52-0.49
												c-3.12,3.63-5.4,7.92-6.66,12.53c-2.99-6.27-6.59-12.26-10.68-17.88c-0.66-0.9-1.34-1.79-2.02-2.68
												c0.28-1.24,0.62-2.44,1.18-3.59c0.57-1.17,1.31-2.2,2.12-3.21c0.26-0.32-0.17-0.75-0.47-0.45
												c-1.66,1.73-2.89,4.15-3.37,6.54c-2.71-3.47-5.59-6.79-8.62-9.98c-0.3-0.31-0.76,0.17-0.46,0.48
												c3.03,3.18,5.91,6.51,8.61,9.97c-2.5,0.35-4.95,0.98-7.31,1.9c-0.39,0.15-0.2,0.78,0.19,0.63
												c2.44-0.96,4.98-1.61,7.57-1.94c3.44,4.45,6.58,9.12,9.35,14.02c1.31,2.32,2.53,4.7,3.66,7.12
												c-0.01,0.06-0.03,0.12-0.05,0.18c-5.19-0.14-10.37,0.62-15.29,2.28c-0.4,0.13-0.21,0.76,0.19,0.62
												c4.95-1.67,10.17-2.42,15.39-2.19c0.05,0,0.09-0.03,0.14-0.05c3.01,6.59,5.33,13.5,6.78,20.6
												c-0.03,0.08-0.07,0.15-0.1,0.23c-4.72-0.35-9.41-0.21-14.08,0.62c-0.41,0.07-0.22,0.69,0.19,0.62
												c4.6-0.81,9.38-1.07,14.03-0.55c0.04,0,0.09-0.01,0.13-0.01c1.05,5.38,1.64,10.88,1.58,16.36
												C547.18-296.53,547.83-296.55,547.83-296.97z"/>
										</g>
										<g>
											<path style="fill:#169C52;" d="M550.5-244.27c3.9-15.16-2.93-31.72-14.46-42.31c-11.53-10.59-27.04-15.93-42.52-18.27
												C497.74-277.48,517.92-253.18,550.5-244.27z"/>
											<path style="fill:#096647;" d="M550.89-244.41c-1.91-2.5-3.83-4.99-5.75-7.48c0.05-0.19,0.07-0.39,0.08-0.59
												c0.08-0.87,0.18-1.74,0.3-2.61c0.43-3.19,1.11-6.3,1.94-9.4c0.12-0.46-0.58-0.62-0.71-0.17
												c-0.85,2.79-1.45,5.69-1.85,8.57c-0.1,0.71-0.18,1.41-0.26,2.12c-0.03,0.31-0.06,0.62-0.09,0.92
												c-0.01,0.11-0.01,0.25-0.01,0.39c-3.81-4.91-7.66-9.79-11.62-14.57c0.32-5.36,0.59-10.87,2.91-15.81
												c0.2-0.43-0.45-0.79-0.65-0.36c-2.2,4.8-2.73,10.08-2.97,15.3c-0.16-0.19-0.31-0.39-0.47-0.58
												c-4.16-4.96-8.46-9.82-12.98-14.47c0.4-0.62,0.28-1.63,0.33-2.3c0.09-1.14,0.23-2.28,0.43-3.41
												c0.37-2.18,0.97-4.29,1.66-6.39c0.15-0.45-0.55-0.6-0.71-0.17c-0.74,1.98-1.26,4.07-1.63,6.15
												c-0.17,0.96-0.31,1.93-0.4,2.9c-0.05,0.47-0.09,0.94-0.12,1.41c-0.03,0.42,0.03,0.88-0.13,1.22
												c-2.48-2.54-5.02-5.01-7.64-7.41c-1.05-0.96-2.11-1.9-3.19-2.84c0.13-0.18,0.19-0.4,0.23-0.65
												c0.09-0.59,0.18-1.19,0.27-1.78c0.18-1.19,0.35-2.38,0.54-3.57c0.08-0.51-0.71-0.69-0.77-0.18
												c-0.14,1.04-0.3,2.08-0.46,3.13c-0.08,0.54-0.16,1.07-0.24,1.61c-0.04,0.26-0.04,0.56-0.12,0.8
												c-0.02,0.06-0.04,0.1-0.07,0.14c-3.07-2.63-6.23-5.15-9.49-7.53c-0.33-0.24-0.64,0.32-0.31,0.56
												c3.14,2.28,6.17,4.7,9.12,7.22c-1.99,0.44-3.99,0.87-5.98,1.3c-0.46,0.1-0.25,0.8,0.21,0.7c1.17-0.25,2.33-0.5,3.5-0.75
												c0.55-0.12,1.11-0.24,1.66-0.36c0.42-0.09,0.9-0.14,1.32-0.27c3.77,3.27,7.39,6.72,10.89,10.3h-0.01
												c-0.85,0.23-1.78,0.29-2.64,0.47c-0.92,0.2-1.82,0.43-2.72,0.7c-1.82,0.55-3.59,1.26-5.31,2.09
												c-0.42,0.2-0.04,0.82,0.38,0.62c1.85-0.9,3.78-1.64,5.76-2.2c0.97-0.27,1.95-0.51,2.94-0.7c0.54-0.1,1.07-0.18,1.61-0.26
												c0.2-0.03,0.39-0.07,0.57-0.14c0.52,0.54,1.05,1.07,1.57,1.61c4.29,4.51,8.37,9.22,12.34,14.01
												c-3.95,1.07-7.75,2.59-11.31,4.62c-0.39,0.22-0.03,0.81,0.36,0.59c3.58-2.03,7.43-3.6,11.43-4.58
												c0.01,0,0.01-0.01,0.02-0.02c2.4,2.91,4.78,5.85,7.11,8.81c1.51,1.92,3.01,3.86,4.5,5.8c-0.24,0.14-0.62,0.18-0.84,0.23
												c-0.35,0.09-0.69,0.18-1.04,0.27l-2.19,0.57c-0.43,0.11-0.23,0.77,0.2,0.66c0.77-0.2,1.54-0.39,2.31-0.59
												c0.62-0.16,1.44-0.23,2-0.55l0.01-0.01c1.85,2.41,3.7,4.82,5.54,7.23C550.55-243.65,551.18-244.03,550.89-244.41z"/>
										</g>
									</g>
								</g>
								<g>
									<circle style="fill:#8FE3DC;" cx="615.44" cy="-209.36" r="8.06"/>
									<circle style="fill:#8FE3DC;" cx="509.73" cy="-195.11" r="8.06"/>
									<circle style="fill:#8FE3DC;" cx="481.98" cy="-282.99" r="8.06"/>
									<circle style="fill:#8FE3DC;" cx="621.63" cy="-258.14" r="6.2"/>
									<circle style="fill:#8FE3DC;" cx="627.83" cy="-308.21" r="6.2"/>
									<circle style="fill:#8FE3DC;" cx="568.72" cy="-356.23" r="6.2"/>
									<circle style="fill:#8FE3DC;" cx="578.01" cy="-206.26" r="3.1"/>
									<circle style="fill:#8FE3DC;" cx="488.17" cy="-217.42" r="3.1"/>
									<circle style="fill:#8FE3DC;" cx="509.73" cy="-317.51" r="3.1"/>
									<circle style="fill:#8FE3DC;" cx="485.08" cy="-354.61" r="3.1"/>
									<circle style="fill:#8FE3DC;" cx="601.76" cy="-362.42" r="3.1"/>
								</g>
							</g>
							<g>
								<rect x="449.29" y="-399.17" style="fill:#28619E;" width="203.11" height="16.6"/>
								<g>
									<rect x="615.29" y="-399.17" style="fill:#0E3A7D;" width="29.29" height="16.6"/>
									<rect x="600.64" y="-399.17" style="fill:#0E3A7D;" width="7.81" height="16.6"/>
								</g>
								<g>
									<rect x="511.27" y="-399.17" style="fill:#599EC9;" width="3.91" height="16.6"/>
									<rect x="459.06" y="-399.17" style="fill:#599EC9;" width="44.92" height="16.6"/>
								</g>
							</g>
							<g>
								<rect x="449.29" y="-179.39" style="fill:#28619E;" width="203.11" height="16.6"/>
								<g>
									<rect x="615.29" y="-179.39" style="fill:#0E3A7D;" width="29.29" height="16.6"/>
									<rect x="600.64" y="-179.39" style="fill:#0E3A7D;" width="7.81" height="16.6"/>
								</g>
								<g>
									<rect x="511.27" y="-179.39" style="fill:#599EC9;" width="3.91" height="16.6"/>
									<rect x="459.06" y="-179.39" style="fill:#599EC9;" width="44.92" height="16.6"/>
								</g>
							</g>
						</g>
						<g>
							<g>
								<g>
									<polygon style="fill:#09235E;" points="673.35,-164.9 561.35,-164.9 540.34,-164.9 428.34,-164.9 420.32,-149.46 
										540.34,-149.46 561.35,-149.46 681.37,-149.46 									"/>
								</g>
								<rect x="420.32" y="-149.46" style="fill:#354D6E;" width="261.05" height="76.34"/>
							</g>
							<g>
								<g>
									<rect x="563.19" y="-144.94" style="fill:#213254;" width="112.64" height="62.65"/>
									<rect x="567.73" y="-144.94" style="fill:#4D6880;" width="112.64" height="59.56"/>
								</g>
								<g>
									<rect x="451.84" y="-144.94" style="fill:#213254;" width="99" height="62.65"/>
									<rect x="455.68" y="-144.94" style="fill:#4D6880;" width="95.17" height="59.56"/>
								</g>
							</g>
						</g>
					</g>
				</g>
				<g>
					<g>
						<g>
							<rect x="338.5" y="-74.96" style="fill:#132554;" width="18.55" height="6.84"/>
							<rect x="239.38" y="-74.96" style="fill:#132554;" width="18.55" height="6.84"/>
							<rect x="437.61" y="-74.96" style="fill:#132554;" width="18.55" height="6.84"/>
						</g>
						<g>
							<g>
								<g>
									<rect x="235.29" y="-162.87" style="fill:#E3FAF8;" width="223.61" height="90.81"/>
									<rect x="235.29" y="-164.97" style="fill:#BEE6E4;" width="223.61" height="6.84"/>
								</g>
								<rect x="319" y="-158.14" style="fill:#BEE6E4;" width="1.95" height="86.07"/>
							</g>
							<g>
								<g>
									<g>
										<rect x="243.59" y="-155.49" style="fill:#8FC7CF;" width="70.31" height="22.46"/>
										<rect x="268.98" y="-152.57" style="fill:#B02E27;" width="19.53" height="2.93"/>
									</g>
									<g>
										<rect x="243.59" y="-128.21" style="fill:#8FC7CF;" width="70.31" height="22.46"/>
										<rect x="268.98" y="-125.29" style="fill:#B02E27;" width="19.53" height="2.93"/>
									</g>
									<g>
										<rect x="243.59" y="-100.93" style="fill:#8FC7CF;" width="70.31" height="22.46"/>
										<rect x="268.98" y="-98.01" style="fill:#B02E27;" width="19.53" height="2.93"/>
									</g>
								</g>
								<g>
									<g>
										<rect x="326.07" y="-155.49" style="fill:#8FC7CF;" width="60.54" height="77.02"/>
										<rect x="379.28" y="-139.926" style="fill:#B02E27;" width="2.93" height="44.92"/>
									</g>
									<g>
										<rect x="390.29" y="-155.49" style="fill:#8FC7CF;" width="60.54" height="77.02"/>
										<rect x="394.687" y="-139.929" style="fill:#B02E27;" width="2.93" height="44.92"/>
									</g>
								</g>
							</g>
						</g>
						<g>
							<rect x="232.55" y="-173.27" style="fill:#28619E;" width="230.45" height="10.74"/>
							<rect x="232.55" y="-170.34" style="fill:#132554;" width="230.45" height="7.81"/>
						</g>
					</g>
					<g>
						<g>
							<rect x="278.63" y="-177.83" style="fill:#2A2C33;" width="51.19" height="4.56"/>
							<rect x="291.09" y="-189.66" style="fill:#17181F;" width="26.26" height="11.84"/>
						</g>
						<g>
							<g>
								<path style="fill:#2A2C33;" d="M252.23-189.02v-58.7c0-2.18,1.77-3.95,3.95-3.95h96.08c2.18,0,3.95,1.77,3.95,3.95v58.7
									c0,2.18-1.77,3.95-3.95,3.95h-96.08C254-185.06,252.23-186.83,252.23-189.02z"/>
								<circle style="fill:#474C57;" cx="304.22" cy="-188.61" r="2.14"/>
							</g>
							<g>
								<path style="fill:#4BB4C4;" d="M351.78-246.33v52.7c0,0.47-0.38,0.84-0.85,0.84h-93.16c-0.47,0-0.85-0.37-0.85-0.84v-52.7
									c0-0.47,0.38-0.85,0.85-0.85h93.16C351.39-247.19,351.78-246.8,351.78-246.33z"/>
								<g>
									<path style="fill:#1C62A3;" d="M351.78-246.33v5.76h-94.87v-5.76c0-0.47,0.38-0.85,0.85-0.85h93.16
										C351.39-247.19,351.78-246.8,351.78-246.33z"/>
									<g>
										<circle style="fill:#3AA1C7;" cx="345.71" cy="-243.88" r="1.51"/>
										<circle style="fill:#3AA1C7;" cx="339.97" cy="-243.88" r="1.51"/>
										<circle style="fill:#3AA1C7;" cx="333.95" cy="-243.88" r="1.51"/>
									</g>
								</g>
							</g>
						</g>
						<g>
							<g>
								<rect x="316.8" y="-238.67" style="fill:#1C62A3;" width="33.69" height="44.43"/>
								<g>
									<rect x="323.8" y="-235.97" style="fill:#3AA1C7;" width="23.68" height="1.46"/>
									<rect x="319.15" y="-230.11" style="fill:#3AA1C7;" width="28.32" height="1.46"/>
									<rect x="319.15" y="-224.25" style="fill:#3AA1C7;" width="28.32" height="1.46"/>
									<rect x="319.15" y="-217.79" style="fill:#3AA1C7;" width="28.32" height="1.46"/>
									<rect x="319.15" y="-211.64" style="fill:#3AA1C7;" width="28.32" height="1.46"/>
									<rect x="319.15" y="-205.49" style="fill:#3AA1C7;" width="28.32" height="1.46"/>
									<rect x="319.15" y="-199.63" style="fill:#3AA1C7;" width="28.32" height="1.46"/>
								</g>
							</g>
							<g>
								<circle style="fill:#B9E7EB;" cx="284.23" cy="-216.46" r="16.98"/>
								<circle style="fill:#278A49;" cx="284.23" cy="-216.46" r="15.14"/>
							</g>
						</g>
					</g>
					<g>
						<g>
							<circle style="fill:#E1FCF7;" cx="332.92" cy="-349.76" r="66.66"/>
							<g>
								<circle style="fill:#278A49;" cx="332.92" cy="-349.76" r="61.78"/>
								<g>
									<g>
										<defs>
											<circle id="SVGID_1_" cx="332.92" cy="-349.76" r="61.78"/>
										</defs>
										<clipPath id="SVGID_00000109014735774211783400000006373387693652825267_">
											<use xlink:href="#SVGID_1_"  style="overflow:visible;"/>
										</clipPath>
										<g style="clip-path:url(#SVGID_00000109014735774211783400000006373387693652825267_);">
											<path style="fill:none;stroke:#9BC74A;stroke-width:2;stroke-miterlimit:10;" d="M334.95-411.89
												c-0.15,21.04-4.16,41.84-6.53,62.75c-2.38,20.91-3.06,42.5,3.25,62.57"/>
											<path style="fill:none;stroke:#9BC74A;stroke-miterlimit:10;" d="M329.49-354.62c19.05-11.03,44.4-6.74,62.83-18.78"/>
											<path style="fill:none;stroke:#9BC74A;stroke-miterlimit:10;" d="M330.8-371.35c-6.01-7.9-14.93-13.54-24.65-15.58
												c-7.5-1.57-15.85-1.24-22.01-5.81"/>
											<path style="fill:none;stroke:#9BC74A;stroke-miterlimit:10;" d="M328.32-308.11c8.14-3.39,17.43-1.72,26.01,0.35
												c8.58,2.07,17.51,4.49,26.09,2.43"/>
											<path style="fill:none;stroke:#9BC74A;stroke-miterlimit:10;" d="M325.64-321.76c-19.51-1.03-38.8-6.12-56.28-14.83"/>
											<path style="fill:none;stroke:#9BC74A;stroke-width:0.5;stroke-miterlimit:10;" d="M312.92-384.45
												c-6.89,2.69-10.19,11.39-14.88,17.12c-7.01,8.55-18.7,11.32-29.52,13.58"/>
											<path style="fill:none;stroke:#9BC74A;stroke-width:0.5;stroke-miterlimit:10;" d="M300.83-370.58
												c-4.61,0.17-8.93-2.02-13.2-3.78c-4.27-1.76-9.15-3.13-13.41-1.36"/>
											<path style="fill:none;stroke:#9BC74A;stroke-width:0.5;stroke-miterlimit:10;" d="M290.09-373.37
												c-4.95,5.86-11.48,10.36-18.72,12.91"/>
											<path style="fill:none;stroke:#9BC74A;stroke-width:0.5;stroke-miterlimit:10;" d="M285.56-375.39
												c1.65-4.84,4.44-9.28,8.08-12.87"/>
											<path style="fill:none;stroke:#9BC74A;stroke-width:0.5;stroke-miterlimit:10;" d="M318.45-382.52
												c2.35-8.84,0.91-18.63-3.87-26.43"/>
											<path style="fill:none;stroke:#9BC74A;stroke-width:0.5;stroke-miterlimit:10;" d="M319.1-395.71
												c4.76-1.93,9.76-3.3,14.84-4.06"/>
											<path style="fill:none;stroke:#9BC74A;stroke-width:0.5;stroke-miterlimit:10;" d="M318.98-388.23
												c-5.79-4.09-11.58-8.18-17.37-12.27c-1.38-0.98-3.22-1.97-4.64-1.06"/>
											<path style="fill:none;stroke:#9BC74A;stroke-width:0.5;stroke-miterlimit:10;" d="M308.27-395.66
												c-3.59,1.46-6.6,4.31-8.26,7.81"/>
											<path style="fill:none;stroke:#9BC74A;stroke-width:0.5;stroke-miterlimit:10;" d="M325.94-398.18
												c0.01-5.31-0.33-10.63-1.01-15.9c-0.07,0.27-0.14,0.55-0.21,0.82"/>
											<path style="fill:none;stroke:#9BC74A;stroke-width:0.5;stroke-miterlimit:10;" d="M319.86-392.34
												c3.61,1.7,10.16,4.87,13.77,6.57"/>
											<path style="fill:none;stroke:#9BC74A;stroke-width:0.5;stroke-miterlimit:10;" d="M323.75-378.08
												c-9.35,9.99-10.67,25.23-18.75,36.26c-3.96,5.41-9.37,9.56-14.7,13.63"/>
											<path style="fill:none;stroke:#9BC74A;stroke-width:0.5;stroke-miterlimit:10;" d="M314.18-361.71
												c1.78,3.37,4.56,6.09,6.94,9.07c2.38,2.98,4.43,6.52,4.32,10.33"/>
											<path style="fill:none;stroke:#9BC74A;stroke-width:0.5;stroke-miterlimit:10;" d="M308.68-347.56
												c3.15,7.02,4.39,14.88,3.56,22.53"/>
											<path style="fill:none;stroke:#9BC74A;stroke-width:0.5;stroke-miterlimit:10;" d="M312.13-354.87
												c-15.09-0.05-30.09,6.32-40.54,17.21"/>
											<path style="fill:none;stroke:#9BC74A;stroke-width:0.5;stroke-miterlimit:10;" d="M305.21-378.61
												c1.63,8.18,0.24,16.93-3.85,24.2"/>
											<path style="fill:none;stroke:#9BC74A;stroke-width:0.5;stroke-miterlimit:10;" d="M285.41-357.57
												c-0.5,3.07-1,6.15-1.5,9.22"/>
											<path style="fill:none;stroke:#9BC74A;stroke-width:0.5;stroke-miterlimit:10;" d="M345.27-360.18
												c3.18-7.62,6.37-15.8,7.1-24.14c0.43-4.98-0.89-9.55-0.71-14.46c0.1-2.79,0.75-8.71,3.46-10.12"/>
											<path style="fill:none;stroke:#9BC74A;stroke-width:0.5;stroke-miterlimit:10;" d="M362.27-363.51
												c7.12-8.28,14.23-16.55,21.35-24.83"/>
											<path style="fill:none;stroke:#9BC74A;stroke-width:0.5;stroke-miterlimit:10;" d="M374.81-377.76
												c-6.63-5.02-14.04-8.99-21.88-11.75"/>
											<path style="fill:none;stroke:#9BC74A;stroke-width:0.5;stroke-miterlimit:10;" d="M361.03-386.83
												c1.09-5.46,3.8-10.58,7.7-14.56"/>
											<path style="fill:none;stroke:#9BC74A;stroke-width:0.5;stroke-miterlimit:10;" d="M350.63-376.25
												c-3.11-6.23-10.98-11.26-17.71-13.05"/>
											<path style="fill:none;stroke:#9BC74A;stroke-width:0.5;stroke-miterlimit:10;" d="M334.18-395.11
												c6.14-2.54,14.45-8.34,18.24-13.79"/>
											<path style="fill:none;stroke:#9BC74A;stroke-width:0.5;stroke-miterlimit:10;" d="M343.4-384.72
												c-2.9,7.55-3.69,16.46-3.89,24.54"/>
											<path style="fill:none;stroke:#9BC74A;stroke-width:0.5;stroke-miterlimit:10;" d="M371.06-374.01
												c3.91,1.33,7.68,3.08,11.23,5.2"/>
											<path style="fill:none;stroke:#9BC74A;stroke-width:0.5;stroke-miterlimit:10;" d="M342.85-359.2
												c5.6,7.5,11.25,15.1,14.74,23.79c3.48,8.68,4.6,18.71,0.98,27.34"/>
											<path style="fill:none;stroke:#9BC74A;stroke-width:0.5;stroke-miterlimit:10;" d="M373.38-365.21
												c3.61,6.36,4.66,13.79,6.53,20.86c1.88,7.07,5.02,14.36,11.24,18.2"/>
											<path style="fill:none;stroke:#9BC74A;stroke-width:0.5;stroke-miterlimit:10;" d="M378.32-351.46
												c-6.98,4.46-14.81,7.61-22.93,9.23"/>
											<path style="fill:none;stroke:#9BC74A;stroke-width:0.5;stroke-miterlimit:10;" d="M361.08-322.21
												c4.55,0.61,9.11-1.05,13.14-3.26c4.02-2.21,7.73-5,11.89-6.94"/>
											<path style="fill:none;stroke:#9BC74A;stroke-width:0.5;stroke-miterlimit:10;" d="M358.61-332.64
												c-11.19,1.3-22.13,4.74-32.05,10.09"/>
											<path style="fill:none;stroke:#9BC74A;stroke-width:0.5;stroke-miterlimit:10;" d="M341.86-329.52
												c-0.55-9.35-2.64-18.62-6.15-27.3"/>
											<path style="fill:none;stroke:#9BC74A;stroke-width:0.5;stroke-miterlimit:10;" d="M328.96-336.56
												c4.16-0.77,8.31-1.53,12.47-2.3"/>
											<path style="fill:none;stroke:#9BC74A;stroke-width:0.5;stroke-miterlimit:10;" d="M348.22-331.39
												c1.77,6.94,2.02,14.26,0.72,21.31"/>
											<path style="fill:none;stroke:#9BC74A;stroke-width:0.5;stroke-miterlimit:10;" d="M361.14-363.79
												c0.45,6.23,1.74,12.39,3.82,18.28"/>
											<path style="fill:none;stroke:#9BC74A;stroke-width:0.5;stroke-miterlimit:10;" d="M377.13-355.9
												c5.75-2.12,11.49-4.24,17.24-6.35"/>
											<path style="fill:none;stroke:#9BC74A;stroke-width:0.5;stroke-miterlimit:10;" d="M381.36-357.5
												c3.39,4.14,6.77,8.29,10.16,12.43c1.23,1.5,2.6,3.1,4.49,3.55"/>
											<path style="fill:none;stroke:#9BC74A;stroke-width:0.5;stroke-miterlimit:10;" d="M373.13-324.42
												c0.29,6.46-0.23,12.96-1.54,19.29"/>
											<path style="fill:none;stroke:#9BC74A;stroke-width:0.5;stroke-miterlimit:10;" d="M372.23-347.53
												c2.09,6.54,4.18,13.08,6.27,19.62"/>
											<path style="fill:none;stroke:#9BC74A;stroke-width:0.5;stroke-miterlimit:10;" d="M360.97-343.98
												c0.71,5.51,1.35,9.48,4.69,13.92c1.13,1.51,2.06,2.97,2.5,4.83c0.2,0.85-0.03,1.76,0.29,2.42"/>
											<path style="fill:none;stroke:#9BC74A;stroke-width:0.5;stroke-miterlimit:10;" d="M331.45-299.65
												c3.25,1.06,6.74,1.06,10.15,1.31s6.95,0.83,9.73,2.83c1.14,0.82,2.12,1.86,3.36,2.52s2.88,0.85,3.96-0.04"/>
											<path style="fill:none;stroke:#9BC74A;stroke-width:0.5;stroke-miterlimit:10;" d="M340.85-309.58
												c0.52,3.74,1.03,7.48,1.55,11.22"/>
											<path style="fill:none;stroke:#9BC74A;stroke-width:0.5;stroke-miterlimit:10;" d="M354.25-307.05
												c-0.89,3.93-1.77,7.87-2.66,11.8"/>
											<path style="fill:none;stroke:#9BC74A;stroke-width:0.5;stroke-miterlimit:10;" d="M337-298.77
												c0.2,2.3,0.41,4.63,1.06,6.85s1.77,4.36,3.53,5.86"/>
											<path style="fill:none;stroke:#9BC74A;stroke-width:0.5;stroke-miterlimit:10;" d="M363.13-305.24
												c-0.34,3.76,0.26,7.61,1.72,11.09"/>
											<path style="fill:none;stroke:#9BC74A;stroke-width:0.5;stroke-miterlimit:10;" d="M317.2-322.07
												c-4.99,9.28-6.96,19.84-8.85,30.2"/>
											<path style="fill:none;stroke:#9BC74A;stroke-width:0.5;stroke-miterlimit:10;" d="M300.96-326.43
												c-4.66,8.18-3.3,18.39-5.81,27.47"/>
											<path style="fill:none;stroke:#9BC74A;stroke-width:0.5;stroke-miterlimit:10;" d="M283.4-330.65
												c-0.96,3.79-2.53,7.42-4.65,10.71"/>
											<path style="fill:none;stroke:#9BC74A;stroke-width:0.5;stroke-miterlimit:10;" d="M297.49-315.5
												c-5.7-2.29-11.17-5.14-16.31-8.51"/>
											<path style="fill:none;stroke:#9BC74A;stroke-width:0.5;stroke-miterlimit:10;" d="M296.49-308.26
												c3.09,4.68,8.21,7.97,13.74,8.84"/>
											<path style="fill:none;stroke:#9BC74A;stroke-width:0.5;stroke-miterlimit:10;" d="M312.39-310.19
												c4.47,3.26,11,2.68,15.27,6.2"/>
											<path style="fill:none;stroke:#9BC74A;stroke-width:0.5;stroke-miterlimit:10;" d="M328.06-291.97
												c-6.14-2.14-12.62-3.29-19.13-3.4"/>
											<path style="fill:none;stroke:#9BC74A;stroke-width:0.5;stroke-miterlimit:10;" d="M314.67-315.94
												c-5.41-1.03-10.57-3.34-14.93-6.7"/>
											<path style="fill:none;stroke:#9BC74A;stroke-width:0.5;stroke-miterlimit:10;" d="M297.36-312.29
												c-4.92-0.18-9.85,0.13-14.71,0.94"/>
											<path style="fill:none;stroke:#9BC74A;stroke-width:0.5;stroke-miterlimit:10;" d="M365.17-384.48
												c-1.61,7.68-4.6,15.07-8.78,21.7"/>
										</g>
									</g>
								</g>
							</g>
						</g>
						<path style="fill:#E1FCF7;" d="M316.65-285.39c-1.11,8.55-2.21,17.1-3.32,25.65c4.15-9.02,8.92-17.76,14.26-26.14
							C323.93-285.61,320.26-285.35,316.65-285.39z"/>
					</g>
					<g>
						<g>
							<g>
								<path style="fill:#132554;" d="M401.52-72.62c0,0,1.98,9.9,1.18,10.94c-1.07,1.4-27.77,1.14-27.99-1.04
									c-0.34-3.38,5.83-7.9,12.73-9.19C394.35-73.19,401.52-72.62,401.52-72.62z"/>
								<g>
									<path style="fill:#28619E;" d="M408.38-153.57c-0.33,4.59-0.67,9.18-1.01,13.77c-1.04,14.3-2.09,28.6-3.13,42.9
										c-0.68,9.28-1.36,18.56-2.04,27.84c-5.51,0.23-12.09-0.6-17.75-2.02c-0.14-10.02-0.08-20.02,0.12-30.02
										c0.25-12.94,0.73-25.89,1.32-38.87c0.36-8.04,0.76-16.08,1.17-24.16C394.32-159.59,401.35-156.58,408.38-153.57z"/>
									<path style="fill:#1B498F;" d="M407.37-139.8c-1.04,14.3-2.09,28.6-3.13,42.9c-6.7-0.56-13.34-1.95-19.68-4.2
										c0.25-12.94,0.73-25.89,1.32-38.87C393.05-139.92,400.2-139.86,407.37-139.8z"/>
								</g>
							</g>
							<g>
								<path style="fill:#132554;" d="M411.67-72.62c0,0-1.98,9.9-1.18,10.94c1.07,1.4,27.77,1.14,27.99-1.04
									c0.34-3.38-5.83-7.9-12.73-9.19C418.84-73.19,411.67-72.62,411.67-72.62z"/>
								<g>
									<path style="fill:#28619E;" d="M432.55-162.28c-0.19,7.7-0.41,15.23-0.69,22.68c-0.51,13.69-1.17,27.08-2.07,40.63
										c-0.61,9.02-1.31,18.11-2.14,27.41c-2.84,0.95-13.71,2.23-16.59,1.47c0.02-8.97-0.04-17.79-0.13-26.56
										c-0.14-14.38-0.34-28.62-0.42-43.13c-0.02-4.49-0.03-9-0.02-13.56C417.73-155.81,424.96-158.29,432.55-162.28z"/>
									<path style="fill:#1B498F;" d="M431.86-139.6c-0.51,13.69-1.17,27.08-2.07,40.63c-6.15,1.54-12.5,2.31-18.86,2.32
										c-0.14-14.38-0.34-28.62-0.42-43.13C417.63-139.72,424.74-139.66,431.86-139.6z"/>
								</g>
							</g>
						</g>
						<g>
							<g>
								<polygon style="fill:#F2C9AA;" points="416.8,-252.8 417.37,-241.73 400.96,-241.08 402.37,-252.96 								"/>
								<g>
									<path style="fill:#F2C9AA;" d="M422.84-273.92c-0.56,2.78-0.2,5.66,0.16,8.47c0.36,2.82,0.72,5.69,0.17,8.47
										c-0.56,2.78-2.2,5.51-4.82,6.61c-3.76,1.59-8-0.56-12.08-0.54c-1.16-5.18-0.07-10.83,2.96-15.2
										C412.25-270.47,417.15-273.49,422.84-273.92z"/>
									<g>
										<path style="fill:#854301;" d="M425.81-271.66c-0.63,1.77-2.16,3.16-4.25,2.88c-0.93,3.07-2.31,6.01-3.94,8.42
											c0.29,4.81-3.06,9.61-7.68,10.98c-0.96,0.29-2.05,0.43-2.96-0.02c-0.9-0.45-1.47-1.66-0.93-2.51
											c-1.26,1.53-3.2,2.47-5.18,2.51c-0.9,0.01-1.82-0.15-2.57-0.66c-0.74-0.51-1.26-1.38-0.59-2.26
											c-3.07-2.43-6.04-5.2-7.64-8.77c-1.6-3.58-1.54-8.13,1.06-11.06c-1.74,0.45-2.79,0.53-3.4,0.04
											c-0.6-0.49-0.77-1.38-0.58-2.13c0.19-0.76,0.68-1.4,1.23-1.95c1.4-1.45,3.71-2.48,5.39-1.37
											c-0.04-1.43,0.23-2.84,0.72-4.17c1.52-4.05,5.24-7.41,9.49-8.65c5.66-1.66,11.89-0.09,16.92,3c1.32,0.8,2.67,1.85,3,3.37
											c0.32,1.51-1.1,3.35-2.56,2.82c2.01,1.93,4.13,4.03,4.69,6.76C426.22-273.54,426.13-272.56,425.81-271.66z"/>
										<path style="fill:#B5630B;" d="M425.81-271.66c-0.69-4.55-3.9-8.75-8.3-10.26c1.18-0.21,1.66-1.8,1.15-2.88
											c-0.51-1.08-1.64-1.71-2.75-2.17c-7.27-3-16.29-0.66-21.43,5.22c1.52-4.05,5.24-7.41,9.49-8.65
											c5.66-1.66,11.89-0.09,16.92,3c1.32,0.8,2.67,1.85,3,3.37c0.32,1.51-1.1,3.35-2.56,2.82c2.01,1.93,4.13,4.03,4.69,6.76
											C426.22-273.54,426.13-272.56,425.81-271.66z"/>
									</g>
									<ellipse style="fill:#F2C9AA;" cx="417.75" cy="-261.14" rx="2.8" ry="3.43"/>
								</g>
							</g>
							<g>
								<path style="fill:#D3E4EB;" d="M417.57-227.77l8.03-14.4c0,0,9.19,2.63,11.78,7.54c2.59,4.92,12.93,50.19,10.75,54.22
									s-21.19,9.95-21.19,9.95L417.57-227.77z"/>
								<g>
									<path style="fill:#FFFFFF;" d="M440.94-109.09c-4.34,5.19-53.91,7.06-61.23,1c-1.49-1.23-1.63-11.61-1.04-26.03
										c1.56-38.49,13.66-106.22,13.66-106.22s6.14-3.59,15.15-3.59c9.01,0,20.7,1.7,22.68,3.73c1.21,1.24,6.01,48.7,8.92,86.18
										C440.92-130.18,442.02-110.38,440.94-109.09z"/>
									<path style="fill:#E4F3F7;" d="M440.94-109.09c-4.34,5.19-53.91,7.06-61.23,1c-1.49-1.23-1.63-11.61-1.04-26.03
										c12.17,1.48,24.56,0.8,36.08-3.29c9.28-3.3,17.9-9.05,24.32-16.61C440.92-130.18,442.02-110.38,440.94-109.09z"/>
								</g>
							</g>
							<g>
								<g>
									<path style="fill:#F2C9AA;" d="M362.63-177.09c-3.37-0.1-6.73-0.19-10.1-0.27c-0.69,0.26-1.39,0.46-2.08,0.6
										c-4.04,0.76-8.1-0.61-10.73-3.66c-1.41,0.48-2.19,0.87-2.98,1.26c-0.14,1.43,0.34,2.62,0.62,3.87
										c0.13,0.52,0.18,1.17-0.21,1.47c-0.42,0.32-0.98-0.02-1.39-0.36c-1-0.85-2-1.8-2.52-3.07c-0.53-1.28-0.44-2.97,0.51-3.86
										c-0.62-1.71,0.29-3.91,1.88-4.69c-0.51-0.53-0.5-1.23-0.27-1.77c0.22-0.55,0.63-0.96,1.04-1.34
										c2.1-1.95,5.22-4.51,7.35-3.83c1.69,0.54,4.4,3.23,7.09,5.18c0.65,0.48,1.31,0.91,1.94,1.25c2.49,0.01,5.65-1.05,8.61-2.59
										C361.59-184.96,362.11-181.02,362.63-177.09z"/>
									<path style="fill:#DE8071;" d="M362.63-177.09c-3.37-0.1-6.73-0.19-10.1-0.27c-0.69,0.26-1.39,0.46-2.08,0.6
										c-0.22-3.6-0.09-7.22,0.4-10.79c0.65,0.48,1.31,0.91,1.94,1.25c2.49,0.01,5.65-1.05,8.61-2.59
										C361.59-184.96,362.11-181.02,362.63-177.09z"/>
								</g>
								<g>
									<path style="fill:#FFFFFF;" d="M396.29-222.2c0.27-6.94,4.87-20.69,0.09-19.97c-4.16,0.63-10.55,4.06-13.53,12.52
										c-4.31,12.26-5.99,28.3-10.47,34.38c-1.84,2.5-20.81,7.12-20.81,7.12l2.03,15.37c0,0,30.68-1.1,33.34-5.91
										C389.61-183.5,395.83-210.29,396.29-222.2z"/>
									<path style="fill:none;stroke:#D3E4EB;stroke-linecap:round;stroke-miterlimit:10;" d="M399.73-218.37
										c0.48,13.62-4.99,35.16-7.03,37.44c-1.41,1.58-6.04,3.92-8.63,4.55"/>
								</g>
							</g>
						</g>
					</g>
				</g>
				<g>
					<g>
						<g>
							<rect x="710.22" y="-304.89" style="fill:#69B5DB;" width="36.51" height="126"/>
							<path style="fill:#69B5DB;" d="M752.36-296.1h-47.78c-4.22,0-7.64-3.42-7.64-7.64v-2.3c0-4.22,3.42-7.64,7.64-7.64h47.78
								c4.22,0,7.64,3.42,7.64,7.64v2.3C760-299.52,756.58-296.1,752.36-296.1z"/>
						</g>
						<path style="fill:#69B5DB;" d="M726.08-235.25L658.7-104.83c-7.53,14.58,3.05,31.96,19.46,31.96h100.63
							c16.41,0,27-17.38,19.46-31.96l-67.38-130.42C729.86-237.19,727.08-237.19,726.08-235.25z"/>
						<g>
							<rect x="713.67" y="-304.89" style="fill:#DFF4F1;" width="29.34" height="126"/>
							<path style="fill:#DFF4F1;" d="M745.15-296.1h-34.78c-4.22,0-7.64-3.42-7.64-7.64v-2.3c0-4.22,3.42-7.64,7.64-7.64h34.78
								c4.22,0,7.64,3.42,7.64,7.64v2.3C752.78-299.52,749.36-296.1,745.15-296.1z"/>
						</g>
						<path style="fill:#DFF4F1;" d="M726.06-226.3l-58.87,116.79c-7.35,14.57,3.25,31.77,19.56,31.77h83.44
							c16.32,0,26.91-17.2,19.56-31.77L730.88-226.3C729.88-228.28,727.06-228.28,726.06-226.3z"/>
					</g>
					<g>
						<path style="fill:#66AB20;" d="M760.51-85.6h-64.07c-14.07,0-23.12-17.66-16.72-32.58l6.34-14.59h84.83l6.34,14.59
							C783.63-103.26,774.58-85.6,760.51-85.6z"/>
						<g>
							
								<ellipse transform="matrix(0.1602 -0.9871 0.9871 0.1602 700.9268 605.4604)" style="fill:#96BF3D;" cx="706.28" cy="-109.19" rx="9.34" ry="9.34"/>
							<circle style="fill:#96BF3D;" cx="749.23" cy="-148.16" r="9.34"/>
							<circle style="fill:#96BF3D;" cx="749.23" cy="-98.47" r="7.41"/>
							<circle style="fill:#96BF3D;" cx="734.52" cy="-118.53" r="3.64"/>
							<circle style="fill:#96BF3D;" cx="715.63" cy="-157.5" r="3.64"/>
							<circle style="fill:#96BF3D;" cx="738.16" cy="-161.14" r="3.64"/>
							<circle style="fill:#96BF3D;" cx="723.61" cy="-218.67" r="3.64"/>
							<circle style="fill:#96BF3D;" cx="730.89" cy="-196.23" r="3.64"/>
						</g>
					</g>
				</g>
			</g>
		</g>
	</g>
</g>
</svg>
